{"glyphs":{"0":{"ha":775,"x_min":39,"x_max":778,"o":"m 718 719 q 656 732 682 732 q 646 732 651 732 q 713 690 685 718 q 778 531 778 628 q 726 344 778 442 q 588 171 674 247 q 482 90 536 125 q 376 33 428 56 q 276 1 324 11 q 182 -10 228 -10 q 138 -7 158 -10 q 64 37 89 0 q 39 133 39 74 q 131 406 39 256 q 292 589 188 500 q 500 725 396 678 q 519 747 482 742 l 542 749 q 563 747 553 749 q 653 758 597 758 q 742 726 742 758 q 718 719 739 711 m 93 113 q 112 40 93 63 q 172 18 131 18 q 353 69 258 18 q 532 193 449 119 q 642 319 599 251 q 701 440 686 386 q 717 544 717 493 q 706 620 717 588 q 679 665 694 653 q 571 719 622 708 q 354 583 460 685 q 190 390 249 482 q 94 144 108 264 q 93 113 93 128 z "},"1":{"ha":413,"x_min":-1,"x_max":571,"o":"m 186 79 q 356 93 264 93 q 365 90 361 93 q 368 81 368 86 q 363 69 368 74 q 350 64 358 64 q 301 62 325 64 q 251 53 278 60 q 206 43 224 47 q 157 27 189 39 q 114 11 125 15 q 66 -8 103 7 q 21 -26 29 -24 l 17 -26 q 5 -17 10 -26 q 0 4 0 -7 q 10 26 0 22 q 129 69 118 67 q 271 327 163 126 q 425 610 379 528 q 260 532 349 564 l 253 531 q 242 543 242 531 q 242 549 242 546 q 246 554 243 551 q 253 558 249 557 q 476 700 329 588 l 483 713 q 535 733 496 733 q 569 717 569 733 q 567 707 569 713 l 186 79 z "},"2":{"ha":853,"x_min":0,"x_max":850,"o":"m 201 79 q 152 51 182 74 q 90 12 122 29 q 26 -6 58 -6 q 1 11 1 -6 q 21 49 1 26 q 67 83 40 71 q 96 94 78 89 q 133 103 114 99 q 173 109 153 107 q 207 111 193 111 q 211 111 208 111 q 215 111 214 111 q 563 326 478 260 q 691 448 644 390 q 751 581 738 506 q 752 587 751 583 q 753 594 753 590 q 753 600 753 597 q 747 629 753 617 q 731 649 742 642 q 706 660 721 657 q 672 664 692 664 q 633 660 654 664 q 589 651 613 657 q 308 507 415 607 q 297 503 303 503 q 286 517 286 503 q 293 531 286 525 q 511 666 389 611 q 746 721 633 721 q 850 633 850 721 q 740 433 850 546 q 569 286 674 363 q 244 99 451 201 q 418 54 296 94 q 614 18 535 18 q 739 69 717 18 q 743 89 743 79 q 675 153 743 131 q 669 167 660 158 q 686 169 675 172 q 779 83 779 143 q 728 6 779 35 q 607 -24 676 -24 q 388 26 526 -24 q 354 40 378 31 q 316 53 331 49 q 281 65 301 58 q 240 75 260 72 q 201 79 221 78 z "},"3":{"ha":844,"x_min":46,"x_max":846,"o":"m 635 458 q 814 317 814 440 q 729 142 814 219 q 530 26 644 64 q 306 -12 415 -12 q 117 26 188 -12 q 46 142 46 64 q 128 278 46 226 q 306 329 210 329 q 319 319 319 329 q 303 308 317 310 q 177 261 238 308 q 117 143 117 214 q 170 49 117 82 q 310 17 224 17 q 510 49 413 17 q 677 151 607 81 q 747 313 747 221 q 722 379 747 353 q 663 415 697 406 q 582 425 628 425 q 463 407 518 425 q 454 404 458 406 q 447 403 450 403 q 440 403 443 403 q 418 424 418 403 q 428 447 418 436 q 453 458 438 458 q 672 501 579 458 q 744 558 718 522 q 771 631 771 593 q 766 651 771 642 q 752 669 761 661 q 728 681 743 676 q 694 685 713 685 q 649 679 674 685 q 429 589 531 657 q 421 586 425 586 q 413 600 413 586 q 419 624 413 611 q 435 642 425 638 q 521 706 479 664 q 532 711 526 711 q 540 703 539 711 q 533 688 540 696 l 524 678 q 742 731 654 731 q 846 647 846 731 q 776 530 846 588 q 635 458 706 472 z "},"4":{"ha":671,"x_min":44,"x_max":808,"o":"m 322 65 l 347 69 q 346 82 346 75 q 449 314 346 158 q 300 338 360 338 q 79 286 217 338 q 71 285 75 285 q 53 294 60 285 q 46 317 46 304 q 47 329 46 324 q 53 339 49 335 q 61 347 57 343 q 72 353 65 350 q 83 357 79 356 q 97 360 88 358 q 111 363 107 363 q 125 366 115 364 q 138 368 135 368 q 508 567 319 458 q 747 744 696 676 q 767 751 754 751 q 794 746 781 751 q 807 732 807 740 l 806 728 q 713 608 781 694 q 599 460 646 522 q 510 335 551 397 q 650 308 589 308 q 690 316 669 308 q 727 342 711 324 q 743 388 743 361 q 742 399 743 393 q 740 411 742 406 q 743 424 739 419 q 755 425 747 428 q 767 415 763 422 q 783 380 778 396 q 789 351 789 364 q 644 279 789 279 q 492 303 581 279 q 468 266 488 296 q 436 215 449 236 q 408 164 424 193 q 384 112 392 135 q 378 74 376 89 q 521 83 461 83 q 530 80 526 83 q 533 71 533 76 q 528 59 533 64 q 515 54 524 54 q 467 52 490 54 q 416 44 443 50 q 372 33 389 38 q 322 17 354 29 q 279 1 290 6 q 231 -18 268 -3 q 186 -36 194 -33 q 184 -36 185 -36 q 182 -36 183 -36 q 170 -26 175 -36 q 165 -6 165 -17 q 175 17 165 13 q 322 65 282 57 m 222 379 q 303 383 267 383 q 465 350 363 383 q 508 416 478 369 q 569 508 539 463 q 629 592 600 553 l 657 626 q 222 379 510 526 z "},"5":{"ha":851,"x_min":17,"x_max":994,"o":"m 979 733 q 994 703 994 733 q 978 664 994 681 q 940 639 963 647 q 898 627 917 631 q 865 624 879 624 q 704 639 807 624 q 542 654 601 654 q 421 621 463 654 q 408 617 414 617 q 394 624 399 617 q 390 643 390 632 q 410 685 390 674 q 532 715 460 715 q 711 683 599 715 q 872 653 819 653 q 931 669 896 653 q 965 715 965 686 q 969 728 965 724 q 979 733 974 733 m 239 -40 q 80 -6 143 -40 q 17 79 17 29 q 38 152 17 119 q 113 225 60 185 q 122 230 117 228 q 129 232 126 232 q 139 230 135 232 q 145 224 143 228 q 147 215 147 219 q 131 196 147 203 q 88 156 107 188 q 69 101 69 125 q 119 21 69 49 q 242 -7 168 -7 q 394 20 313 -7 q 549 94 476 47 q 669 214 621 142 q 717 365 717 286 q 672 438 717 415 q 557 461 626 461 q 452 451 504 461 q 369 425 400 440 q 319 398 356 418 q 261 368 283 378 q 254 367 257 367 q 246 371 249 367 q 243 382 243 375 q 258 407 243 399 l 415 611 q 468 625 425 625 q 480 624 475 625 q 488 622 485 624 q 492 618 492 619 q 491 615 492 617 q 489 613 490 614 l 336 435 q 440 478 365 460 q 593 497 515 497 q 744 467 685 497 q 804 372 804 438 q 719 175 804 272 q 503 19 635 78 q 239 -40 371 -40 z "},"6":{"ha":782,"x_min":60,"x_max":879,"o":"m 438 504 q 215 337 329 450 q 101 125 101 224 q 249 8 104 8 q 351 21 290 8 q 476 56 411 33 q 585 119 540 78 q 631 211 631 161 q 614 244 631 231 q 564 258 597 258 q 383 204 457 258 q 290 57 308 150 q 271 35 286 35 q 260 49 260 35 q 308 182 260 125 q 428 265 356 239 q 583 292 500 292 q 670 271 639 292 q 701 215 701 250 q 651 106 701 154 q 524 31 600 57 q 376 -9 449 4 q 243 -22 303 -22 q 106 17 151 -22 q 60 129 60 57 q 156 346 60 226 q 403 547 253 465 q 701 685 578 643 l 681 689 q 675 697 674 693 q 782 715 686 715 q 807 715 796 715 q 838 710 824 714 q 861 699 853 706 q 874 686 869 693 q 879 674 879 679 q 867 660 879 663 q 438 504 692 628 z "},"7":{"ha":583,"x_min":128,"x_max":822,"o":"m 408 760 q 577 735 464 760 q 714 707 690 710 q 748 732 725 715 q 775 751 771 749 q 791 751 781 756 q 808 738 801 747 q 822 713 822 724 q 818 704 822 707 q 340 306 533 499 q 315 278 328 293 q 288 247 301 264 q 260 210 274 229 q 235 170 247 190 q 212 129 222 150 q 193 89 201 108 q 181 50 185 69 q 176 15 176 31 q 177 3 176 11 q 178 -7 178 -4 q 177 -12 178 -10 q 174 -15 176 -14 q 169 -17 172 -17 q 164 -18 167 -18 q 150 -11 156 -18 q 144 3 144 -4 q 143 24 143 11 q 191 173 143 90 q 300 325 239 256 q 682 682 460 506 q 622 691 678 682 q 523 704 565 700 q 433 708 481 708 q 272 683 332 708 q 186 579 213 657 q 156 557 179 557 q 137 564 144 557 q 129 583 129 571 l 131 596 q 131 600 131 597 l 132 603 q 136 612 133 606 q 142 624 139 618 q 148 636 144 629 q 155 650 151 643 q 161 663 158 657 q 165 676 164 669 q 167 685 167 682 q 167 696 167 692 q 168 708 167 700 q 172 720 169 717 q 178 722 174 724 q 186 686 186 717 q 408 760 269 760 z "},"8":{"ha":718,"x_min":1,"x_max":849,"o":"m 615 743 q 710 726 668 743 q 751 671 751 708 q 729 615 751 644 l 829 647 q 842 646 838 650 q 847 633 847 642 q 814 603 847 610 q 500 490 668 569 q 608 438 564 464 q 694 311 694 382 q 603 158 694 236 q 379 28 511 81 q 265 -8 326 7 q 149 -22 203 -22 q 42 4 83 -22 q 1 85 1 31 q 74 232 1 154 q 390 474 201 375 q 337 516 356 496 q 318 560 318 536 q 322 583 318 571 q 390 669 340 632 q 499 725 439 707 q 615 743 558 743 m 65 78 q 161 1 65 1 q 344 44 236 1 q 470 104 415 74 q 559 165 525 135 q 610 225 593 196 q 628 282 628 254 q 525 404 628 353 q 424 456 439 447 q 335 397 389 436 q 217 303 281 357 q 110 188 154 250 q 65 78 65 125 m 715 664 q 677 699 715 689 q 599 708 639 708 q 522 699 560 708 q 456 673 485 689 q 410 634 428 657 q 393 588 393 611 q 410 540 393 557 q 465 506 428 522 q 690 603 629 582 q 694 610 692 606 q 699 619 697 615 q 704 626 701 622 q 708 635 707 631 q 711 644 710 640 q 714 654 713 649 q 715 664 715 660 z "},"9":{"ha":519,"x_min":88,"x_max":733,"o":"m 682 689 q 665 690 676 689 q 647 690 653 690 q 478 669 568 690 q 315 614 389 647 q 192 533 240 581 q 143 438 143 485 q 182 401 143 401 q 196 403 189 401 q 335 456 249 410 q 663 676 497 540 q 683 682 668 682 q 717 675 701 682 q 733 657 733 668 q 722 639 733 649 q 692 612 715 632 q 642 569 668 592 q 593 524 617 546 q 460 392 521 458 q 333 241 399 326 q 230 65 268 156 q 192 -107 192 -26 q 192 -121 192 -114 q 208 -160 192 -153 q 215 -175 226 -165 q 199 -179 208 -179 q 142 -107 142 -179 q 206 105 142 -19 q 357 339 271 229 q 536 540 443 449 q 225 381 356 417 q 158 369 186 369 q 107 383 125 369 q 89 425 89 397 q 135 540 89 486 q 251 628 181 593 q 404 690 321 664 q 562 727 488 715 q 690 739 636 739 q 704 739 697 739 q 713 728 713 739 q 710 719 713 724 q 705 709 708 714 q 698 699 701 704 q 690 692 694 694 q 682 689 686 689 z "}," ":{"ha":278,"x_min":0,"x_max":0,"o":""},"!":{"ha":281,"x_min":104,"x_max":549,"o":"m 228 249 q 211 275 211 249 q 244 401 211 314 q 331 609 276 488 q 388 735 386 731 q 424 812 392 747 q 460 890 457 876 q 458 895 463 894 q 447 899 454 896 q 436 910 439 901 q 443 918 436 914 q 460 926 450 922 q 482 931 469 929 q 506 932 494 932 q 522 931 514 932 q 535 928 529 931 q 545 922 542 925 q 549 913 549 918 q 546 903 549 908 q 393 617 515 867 q 271 308 271 367 q 276 294 271 301 q 281 282 281 288 q 275 269 281 276 q 262 258 269 263 q 245 251 254 254 q 228 249 236 249 m 189 106 q 200 101 196 106 l 200 100 q 192 68 197 89 q 184 31 188 47 q 181 11 181 15 q 173 -7 181 1 q 154 -19 165 -15 q 133 -24 143 -24 q 106 35 106 -24 q 137 83 106 60 q 189 106 168 106 z "},"\"":{"ha":564,"x_min":124,"x_max":540,"o":"m 529 888 q 539 842 539 857 q 533 821 539 831 q 526 807 528 811 l 526 806 q 500 743 515 774 q 467 689 485 713 q 430 644 449 665 q 393 608 411 624 q 359 583 375 593 q 331 567 343 572 q 313 561 318 561 q 306 568 306 564 q 363 631 332 594 q 419 709 393 667 q 446 774 446 751 q 444 783 446 779 q 440 790 443 788 l 440 792 q 428 824 428 804 q 451 868 428 857 q 510 899 486 899 q 529 888 524 899 m 349 876 q 358 831 358 847 q 352 810 358 819 q 344 796 346 800 l 346 794 q 238 621 311 692 q 131 550 164 550 q 125 552 126 550 q 124 557 124 554 l 125 557 q 218 667 171 603 q 265 763 265 731 q 258 781 265 774 q 253 788 256 783 q 249 795 250 792 q 247 803 247 799 q 246 811 246 807 q 269 857 246 833 l 269 856 q 329 888 304 888 q 349 876 342 888 z "},"#":{"ha":933,"x_min":-11,"x_max":919,"o":"m 886 565 q 899 565 894 565 q 909 563 904 564 q 916 560 914 563 q 918 554 918 558 q 915 549 918 551 q 907 544 911 546 q 897 539 903 542 q 892 536 892 536 q 775 511 817 511 l 663 511 q 586 306 589 314 l 756 306 q 814 297 808 306 q 779 272 821 285 q 672 253 715 253 l 565 251 q 524 138 529 154 q 494 71 510 97 q 464 44 478 44 q 449 69 449 44 q 450 88 449 78 q 453 102 451 99 q 454 108 454 106 q 507 251 465 139 l 275 250 q 253 189 267 228 q 233 138 239 150 q 174 44 200 44 q 158 68 158 44 l 165 108 q 224 250 197 181 l 100 250 q 97 250 99 250 q 92 250 94 250 q 88 250 90 250 q 18 257 46 250 q -10 279 -10 264 q 6 295 -10 289 q 33 303 21 301 q 49 304 44 304 l 244 304 q 319 510 264 354 l 203 508 q 93 538 93 508 q 108 553 93 547 q 136 561 122 560 l 151 563 q 338 561 275 563 q 365 637 347 586 q 392 714 382 688 q 401 737 399 731 q 407 751 403 743 q 415 763 411 760 q 422 765 418 765 q 432 735 432 765 q 414 618 432 664 l 392 560 q 504 559 429 560 q 618 558 579 558 q 682 715 647 638 q 714 764 703 761 q 720 697 728 751 q 704 618 713 642 l 682 560 q 747 561 710 560 q 822 564 785 563 q 886 565 858 565 m 372 510 q 296 304 299 313 l 526 304 q 599 511 565 418 l 372 510 z "},"$":{"ha":794,"x_min":56,"x_max":619,"o":"m 57 54 q 96 113 57 113 q 99 106 99 113 q 101 87 100 99 q 107 68 103 75 q 211 22 128 22 q 324 346 249 149 q 262 371 283 361 q 212 399 240 381 q 171 442 183 417 q 158 499 158 467 q 250 647 160 582 q 463 725 340 711 q 532 882 519 874 q 547 885 542 885 q 557 881 553 885 q 561 869 561 876 q 556 849 561 861 q 506 728 543 822 l 518 728 q 598 702 576 728 q 619 635 619 676 q 619 625 619 631 q 618 614 618 619 q 603 585 615 601 q 581 568 592 568 q 574 575 574 568 q 574 583 574 578 q 576 594 575 589 q 578 606 578 599 q 579 618 579 613 q 489 688 579 685 q 372 379 417 501 q 385 375 376 378 q 433 356 417 363 q 474 337 449 350 q 510 312 499 324 q 532 283 522 300 q 542 244 542 265 q 540 228 542 238 q 536 210 539 219 q 432 73 514 135 q 242 -6 350 11 q 204 -161 210 -115 q 203 -181 203 -172 q 209 -212 203 -201 q 224 -224 215 -224 q 225 -233 228 -224 q 212 -251 222 -243 q 193 -260 201 -260 q 172 -240 178 -260 q 167 -193 167 -221 q 201 -10 167 -128 q 163 -11 189 -11 q 81 8 104 -10 q 57 54 57 26 m 472 172 q 479 215 479 196 q 448 284 479 258 q 356 333 417 310 q 250 24 288 146 q 388 73 322 31 q 472 172 454 115 m 340 392 q 347 410 340 393 l 449 686 q 373 670 413 683 q 297 638 333 657 q 236 588 260 618 q 213 522 213 557 q 246 445 213 475 q 340 392 279 415 z "},"%":{"ha":828,"x_min":113,"x_max":796,"o":"m 768 835 q 786 828 776 835 q 796 813 796 822 q 785 790 796 801 q 417 328 622 601 q 176 -46 213 54 q 174 -56 175 -51 q 171 -66 172 -61 q 169 -76 169 -71 q 169 -85 169 -81 q 182 -114 169 -107 q 182 -124 189 -117 q 157 -136 172 -136 q 136 -101 136 -136 q 163 14 136 -61 q 395 374 193 96 q 715 785 597 651 q 569 731 657 757 q 431 704 482 706 l 432 697 q 420 659 432 683 q 390 606 408 635 q 347 549 372 578 q 296 496 322 519 q 242 457 269 472 q 193 442 215 442 l 175 442 q 128 470 144 442 q 113 524 113 499 q 216 722 113 594 q 382 850 319 850 q 418 841 404 850 q 438 818 432 832 q 443 785 443 804 q 443 778 443 782 q 442 772 443 775 q 442 765 442 768 q 441 758 442 761 q 440 751 440 754 q 438 744 439 747 q 441 742 438 743 q 449 742 444 742 q 459 742 453 742 q 469 743 465 743 q 478 744 474 743 q 485 744 483 744 q 761 832 603 760 q 768 835 767 835 m 674 206 q 676 203 674 204 q 682 202 679 203 q 688 201 685 201 q 692 198 690 200 q 693 192 693 196 q 691 184 693 189 q 683 175 689 179 q 667 167 676 171 q 668 160 668 164 q 628 70 668 132 q 531 -44 589 8 q 429 -97 472 -97 l 411 -97 q 365 -69 381 -97 q 349 -15 349 -40 q 452 183 349 56 q 618 311 556 311 q 654 302 640 311 q 674 279 668 293 q 679 247 679 265 q 678 227 679 238 q 674 206 676 217 m 403 701 q 381 720 393 707 q 363 744 369 733 l 356 756 q 285 710 331 756 q 203 607 239 665 q 168 515 168 549 q 196 476 168 476 q 324 568 246 476 q 403 701 403 660 m 639 163 q 617 182 629 168 q 599 206 606 196 l 592 217 q 540 189 572 217 q 478 123 508 161 q 426 43 449 85 q 404 -24 404 1 q 432 -61 404 -61 q 560 31 482 -61 q 639 163 639 122 z "},"&":{"ha":1197,"x_min":57,"x_max":1136,"o":"m 679 383 q 640 381 658 383 q 603 372 621 378 q 574 358 586 367 q 555 335 563 349 q 547 306 547 322 q 549 288 547 297 q 554 268 550 278 q 556 258 556 263 q 549 249 554 250 q 535 255 543 249 q 522 274 528 261 q 515 301 515 286 q 575 399 515 368 q 714 431 635 431 q 797 422 754 431 q 898 399 840 414 q 978 379 956 383 q 988 377 983 378 q 1001 374 993 376 q 1015 372 1008 372 q 1028 369 1021 371 q 1043 367 1036 368 q 1058 366 1050 367 q 1071 365 1065 365 q 1090 367 1082 365 q 1103 371 1097 368 q 1125 376 1117 376 q 1133 375 1131 376 q 1135 369 1135 374 q 1125 351 1135 363 q 1042 329 1106 329 q 935 338 1017 329 q 884 348 911 340 q 833 365 857 356 q 800 376 808 374 q 850 331 829 363 q 871 263 871 300 q 763 96 871 181 q 515 -21 656 11 q 329 -43 414 -43 q 128 7 197 -43 q 58 132 58 57 q 76 210 58 171 q 128 287 94 250 q 217 357 163 324 q 338 413 271 390 q 158 538 158 428 q 218 688 158 619 q 369 796 278 756 q 562 858 461 836 q 754 879 663 879 q 833 874 796 879 q 899 859 869 869 q 951 834 929 849 q 985 799 974 819 q 997 754 997 779 q 963 660 997 711 q 840 572 925 606 q 699 539 754 539 q 686 546 688 539 q 704 560 690 557 q 810 597 742 560 q 896 678 878 635 q 906 711 903 696 q 910 742 910 726 q 862 824 910 796 q 731 851 814 851 q 574 831 658 851 q 410 774 490 811 q 278 675 331 738 q 225 538 225 613 q 273 475 225 496 q 389 454 321 454 q 497 471 454 454 q 517 475 507 475 q 525 474 521 475 q 532 471 529 472 q 537 467 535 469 q 540 463 539 465 q 542 457 542 460 q 519 431 542 443 q 451 414 496 418 q 285 342 356 388 q 181 245 214 296 q 147 143 147 194 q 206 35 147 78 q 375 -7 265 -7 q 522 10 442 -7 q 680 74 613 29 q 777 169 747 118 q 807 269 807 219 q 774 351 807 319 q 679 383 740 383 z "},"'":{"ha":290,"x_min":190,"x_max":426,"o":"m 394 794 q 418 776 410 794 q 426 739 426 757 q 411 701 426 715 q 391 652 403 676 q 367 608 379 628 q 340 569 354 588 q 310 535 325 550 q 282 508 296 521 q 255 485 268 494 q 231 470 242 476 q 210 460 219 464 q 197 457 201 457 q 191 459 193 457 q 190 464 189 461 l 190 465 q 208 483 199 474 q 226 503 217 492 q 247 528 236 515 q 267 553 257 540 q 287 580 278 567 q 304 606 296 593 q 318 631 313 619 q 327 652 324 642 q 331 671 331 663 q 324 688 331 681 q 318 694 321 690 q 314 702 315 699 q 312 710 313 706 q 311 718 311 714 q 335 764 311 740 l 336 764 q 394 794 371 794 z "},"(":{"ha":372,"x_min":-25,"x_max":624,"o":"m 604 942 q 613 939 610 940 q 619 935 617 938 q 622 931 621 933 q 622 925 622 928 q 601 894 622 911 q 565 876 581 876 q 389 836 474 875 q 242 735 304 797 q 138 606 181 674 q 71 471 94 539 q 18 169 18 314 q 44 19 18 79 q 122 -56 69 -42 q 133 -57 128 -56 q 141 -60 138 -58 q 147 -63 144 -61 q 152 -67 150 -65 q 155 -72 154 -69 q 156 -75 156 -74 q 153 -83 156 -79 q 145 -87 150 -86 q 133 -89 140 -89 q 115 -86 125 -89 q 12 7 49 -74 q -25 210 -25 88 q 17 479 -25 342 q 92 638 40 558 q 216 786 143 717 q 390 899 289 856 q 603 942 492 942 l 604 942 z "},")":{"ha":551,"x_min":-43,"x_max":564,"o":"m 288 925 q 289 928 288 926 q 292 931 290 931 q 297 933 294 932 q 303 935 300 935 q 310 936 307 936 q 317 936 313 936 q 325 936 322 936 q 332 936 328 936 q 509 869 454 936 q 564 694 564 803 q 508 442 564 575 q 264 71 415 219 q -32 -78 113 -78 l -33 -78 q -43 -62 -43 -74 q -22 -20 -43 -44 q 18 4 -1 4 q 249 142 129 6 q 457 463 368 278 l 458 463 q 524 710 524 597 q 478 846 524 794 q 331 897 432 897 q 318 897 324 897 q 299 907 311 897 q 288 925 288 917 z "},"*":{"ha":282,"x_min":28,"x_max":253,"o":"m 232 911 q 247 905 240 911 q 253 892 253 899 q 169 832 253 863 q 251 776 251 807 q 245 761 251 767 q 231 756 239 756 q 160 801 203 756 q 171 740 171 761 q 144 706 171 706 q 115 744 115 706 q 125 801 115 765 q 53 757 81 757 q 42 759 47 757 q 33 767 36 761 q 29 779 29 772 q 113 831 29 810 q 86 841 93 838 q 62 853 79 844 q 37 870 44 861 q 29 889 29 879 q 36 903 29 899 q 51 908 43 908 q 125 858 82 908 q 122 872 124 865 q 119 885 121 878 q 117 901 118 893 q 117 915 117 908 q 123 944 117 933 q 143 957 129 956 q 168 917 168 953 q 158 860 168 894 q 232 911 210 911 z "},"+":{"ha":526,"x_min":79,"x_max":506,"o":"m 494 249 q 501 244 499 246 q 504 240 503 242 q 506 238 506 239 q 472 225 506 229 q 382 218 438 221 q 299 211 326 215 q 224 17 278 131 q 200 -18 207 -18 q 193 3 193 -18 q 199 40 193 32 q 247 214 251 203 q 118 213 247 213 q 105 213 111 213 q 94 213 99 213 q 88 213 90 213 q 85 213 85 213 q 81 222 81 217 q 92 243 81 233 q 121 254 104 253 l 258 251 q 284 327 260 256 q 313 414 308 399 q 329 433 315 424 q 353 442 343 442 q 360 440 357 442 q 364 433 363 438 q 311 250 364 386 q 360 251 314 250 q 433 253 406 253 q 494 249 485 253 z "},",":{"ha":281,"x_min":1,"x_max":236,"o":"m 124 28 q 146 72 124 50 l 147 72 q 206 103 182 103 q 225 92 219 103 q 235 46 235 63 q 228 25 235 35 q 221 11 222 15 q 170 -93 203 -44 q 106 -171 138 -142 q 47 -217 74 -200 q 7 -235 19 -235 q 1 -228 0 -235 q 96 -116 49 -179 q 143 -22 143 -53 q 136 -6 143 -11 l 135 -6 q 124 28 124 8 z "},"-":{"ha":401,"x_min":32,"x_max":361,"o":"m 219 213 q 274 215 238 213 q 339 217 310 217 q 360 210 360 217 q 343 197 360 203 q 231 178 310 186 q 93 169 153 169 q 65 169 78 169 q 60 169 64 169 q 53 169 56 169 q 32 186 32 169 q 47 214 32 200 q 74 233 61 228 q 85 238 79 236 q 94 241 90 240 q 101 242 97 242 q 106 240 104 242 q 109 238 108 239 q 110 233 110 236 q 108 226 110 231 q 103 218 106 221 q 219 213 189 213 z "},".":{"ha":343,"x_min":157,"x_max":246,"o":"m 226 15 q 220 2 225 8 q 209 -9 215 -4 q 195 -16 203 -14 q 181 -18 188 -18 q 157 36 157 -18 q 190 83 157 60 q 240 107 222 107 q 246 104 244 107 q 238 72 243 93 q 230 35 233 51 q 226 15 226 19 z "},"/":{"ha":839,"x_min":28,"x_max":813,"o":"m 779 969 q 801 962 790 969 q 813 942 813 954 q 800 917 813 931 q 369 376 613 701 q 83 -67 126 50 q 75 -111 75 -92 q 90 -146 75 -137 q 90 -158 97 -149 q 61 -172 79 -172 q 28 -128 28 -172 q 54 -18 28 -82 q 144 146 81 46 q 249 303 208 246 q 382 490 289 360 q 559 726 468 611 q 709 905 650 840 q 779 969 768 969 z "},":":{"ha":281,"x_min":124,"x_max":278,"o":"m 268 501 q 278 497 274 501 l 278 496 q 270 464 275 485 q 262 428 265 443 q 258 408 258 413 q 242 383 258 393 q 210 372 226 372 q 183 429 183 372 q 190 451 183 440 q 206 471 196 463 q 228 487 217 479 q 250 498 239 494 q 268 501 261 501 m 200 122 q 185 97 200 106 q 151 88 169 88 q 125 144 125 88 q 156 192 125 169 q 208 215 188 215 q 218 213 215 215 l 219 213 l 219 211 q 212 179 217 200 q 203 142 207 158 q 200 122 200 126 z "},";":{"ha":281,"x_min":39,"x_max":294,"o":"m 276 265 q 268 247 276 256 q 249 235 260 239 q 228 231 238 231 q 203 276 203 231 q 203 281 203 278 q 203 286 203 285 q 213 313 203 299 q 235 336 222 326 q 263 353 249 346 q 285 360 276 360 q 294 356 292 360 l 294 354 q 276 265 276 268 m 124 28 q 146 72 124 50 l 147 72 q 206 103 182 103 q 225 92 219 103 q 235 46 235 63 q 228 25 235 35 q 221 11 222 15 q 137 -144 190 -87 q 51 -200 83 -200 q 39 -190 39 -200 l 39 -189 q 78 -137 49 -175 q 126 -71 108 -99 q 143 -25 143 -43 q 135 -6 143 -12 q 124 28 124 8 z "},"<":{"ha":442,"x_min":118,"x_max":318,"o":"m 118 356 q 151 418 118 368 q 231 529 185 468 q 282 599 276 590 q 308 614 290 614 q 318 606 318 614 q 263 513 318 597 q 181 393 207 429 q 202 367 183 389 q 238 323 221 344 q 273 276 254 301 q 303 233 292 251 q 315 207 315 214 q 301 189 315 189 l 290 194 q 122 347 239 264 q 118 356 118 351 z "},"=":{"ha":554,"x_min":149,"x_max":483,"o":"m 336 210 q 364 210 349 210 q 391 212 379 211 q 420 213 403 213 q 456 214 438 214 q 476 207 476 214 q 460 194 476 200 q 348 175 426 183 q 210 167 269 167 q 199 167 204 167 q 190 167 194 167 q 182 167 186 167 q 176 167 181 167 q 169 167 172 167 q 149 183 149 167 q 163 211 149 197 q 190 231 178 225 l 218 239 q 224 237 222 239 q 226 231 226 235 q 219 215 226 222 q 336 210 306 210 m 342 324 q 369 324 354 324 q 397 326 385 325 q 426 327 408 326 q 461 328 443 328 q 482 321 482 328 q 465 308 482 314 q 353 289 432 297 q 215 281 275 281 q 200 281 207 281 q 188 281 193 281 q 182 281 186 281 q 175 281 178 281 q 165 283 169 281 q 157 288 160 285 q 154 297 154 292 q 169 325 154 311 q 196 344 183 339 l 224 353 q 230 351 228 353 q 232 344 232 349 q 225 329 232 336 q 342 324 311 324 z "},">":{"ha":442,"x_min":118,"x_max":318,"o":"m 318 438 q 284 375 318 425 q 204 264 250 325 q 153 194 158 203 q 126 179 143 179 q 118 188 118 179 q 174 280 118 196 q 256 400 229 364 q 119 586 119 561 q 135 604 119 604 l 146 599 q 314 446 193 535 q 318 438 318 444 z "},"?":{"ha":644,"x_min":143,"x_max":783,"o":"m 594 913 q 730 876 676 913 q 783 765 783 840 q 772 709 783 738 q 744 656 760 681 q 694 601 728 632 q 635 549 660 569 q 559 493 610 528 q 478 439 508 458 q 388 381 447 419 q 368 368 375 372 q 326 331 344 353 q 301 293 308 308 q 283 251 293 278 q 269 215 274 225 l 268 215 q 260 208 264 211 q 253 206 257 206 q 235 218 243 206 q 228 249 228 231 q 261 333 228 290 q 320 378 272 347 q 437 453 368 410 q 546 526 506 496 l 544 526 q 651 638 610 575 q 692 753 692 700 q 654 828 692 800 q 540 857 617 857 q 339 805 425 857 q 253 671 253 753 q 253 660 253 665 q 267 613 256 626 q 288 597 278 599 q 297 592 297 596 q 297 589 297 590 q 295 585 296 588 q 293 579 294 582 l 293 578 q 265 568 281 568 q 227 581 246 568 q 196 615 208 593 q 183 664 183 638 q 210 739 183 703 q 377 863 264 813 q 594 913 490 913 m 246 101 q 230 50 243 85 q 217 13 217 15 l 217 11 q 169 -24 210 -14 l 168 -24 q 149 -13 154 -24 q 144 14 144 -3 q 144 24 144 18 q 144 33 144 31 q 179 83 146 60 q 235 106 213 106 q 241 105 239 106 q 246 101 243 104 z "},"@":{"ha":1117,"x_min":13,"x_max":1031,"o":"m 628 654 l 626 654 q 608 656 618 654 q 586 658 597 657 q 564 660 575 660 q 552 660 558 660 q 538 658 546 660 q 522 654 531 657 q 415 503 489 646 q 331 275 342 361 q 329 258 329 265 q 343 235 329 235 q 413 285 364 235 q 496 377 463 335 q 544 440 529 419 q 577 499 561 468 q 607 559 593 531 q 629 611 621 588 q 638 646 638 635 q 632 654 638 654 q 630 654 631 654 q 628 654 629 654 m 950 671 q 958 739 958 706 q 739 913 958 913 q 550 886 656 913 q 790 817 682 872 q 950 671 897 763 m 68 360 q 150 131 68 225 q 378 38 232 38 q 507 53 439 38 q 640 97 575 68 q 766 165 706 125 q 871 253 826 206 q 942 357 915 300 q 969 471 969 414 q 957 549 969 510 q 859 385 931 478 q 705 225 788 293 q 572 157 622 157 q 538 170 551 157 q 519 211 525 183 q 565 426 517 264 q 299 169 379 169 q 287 172 292 169 q 278 176 282 174 q 272 183 274 179 q 268 193 269 188 q 266 205 267 199 q 265 219 265 211 q 303 393 265 283 q 397 590 342 503 q 494 678 453 678 q 499 678 497 678 l 514 689 q 553 703 526 703 q 610 692 574 703 q 653 682 647 682 q 657 685 657 682 q 669 694 661 685 q 689 703 678 703 q 724 674 724 703 q 719 647 724 661 q 703 609 714 632 q 693 585 693 586 q 681 575 692 581 q 668 567 669 569 q 593 293 611 407 q 589 253 589 269 q 591 234 589 242 q 596 221 593 226 q 603 213 599 215 q 614 211 608 211 q 716 285 647 211 q 847 454 785 360 q 931 607 910 549 q 735 788 865 728 q 449 856 606 849 q 231 718 331 817 q 92 501 131 619 q 74 431 79 467 q 68 360 68 394 m 415 -3 q 124 109 235 -3 q 13 386 13 221 q 36 526 13 457 q 347 865 107 736 q 290 863 339 865 q 218 861 240 861 q 192 863 196 861 q 185 874 182 867 q 200 886 188 882 q 422 904 258 904 q 441 904 432 904 q 458 904 450 904 q 724 943 597 943 q 833 933 783 943 q 925 899 883 922 q 990 833 967 875 q 1014 732 1014 790 q 989 617 1014 682 q 1029 468 1029 544 q 974 290 1029 378 q 830 139 918 203 q 631 36 742 75 q 415 -3 521 -3 z "},"A":{"ha":853,"x_min":-1,"x_max":846,"o":"m 846 100 q 824 78 846 92 q 624 -89 711 24 q 611 -97 618 -97 q 597 -78 597 -97 q 619 -35 597 -62 q 657 6 640 -7 q 663 113 660 46 q 669 247 667 179 q 671 354 671 315 q 671 379 671 371 q 243 375 246 375 q 145 217 179 276 q 81 63 111 157 q 50 -122 50 -31 q 83 -231 50 -194 q 96 -250 96 -243 q 71 -258 96 -258 q 16 -205 33 -258 q -1 -104 -1 -151 q 52 128 -1 13 q 196 375 106 244 q 183 375 190 375 q 168 375 175 375 q 152 375 161 375 q 135 374 143 375 q 119 374 128 374 q 103 374 111 374 q 54 375 72 374 q 36 381 36 376 q 47 401 36 393 q 78 413 58 410 q 119 419 99 417 q 163 421 139 421 q 193 420 178 421 q 219 419 208 419 q 229 418 229 418 q 599 832 381 622 q 585 908 585 892 q 618 936 585 936 q 667 896 660 936 q 700 921 692 921 q 714 894 714 921 q 713 884 714 890 q 713 875 713 878 q 697 861 708 871 q 681 844 686 851 q 718 418 718 671 q 723 418 719 418 q 728 418 726 418 q 844 399 835 418 q 792 387 842 392 q 718 382 743 382 l 718 58 q 833 110 814 110 q 846 100 846 110 m 671 417 q 653 601 671 476 q 613 782 635 725 q 274 417 364 554 l 671 417 z "},"B":{"ha":1194,"x_min":3,"x_max":1181,"o":"m 438 -85 q 428 -110 438 -110 q 410 -93 418 -110 q 401 -61 403 -76 q 399 -36 399 -46 q 328 4 365 -21 q 290 51 290 29 q 297 60 290 60 q 322 47 301 60 q 367 17 343 33 q 399 -1 392 1 q 484 407 399 151 q 661 850 569 663 q 375 890 493 890 q 264 880 317 890 q 163 847 211 869 q 85 778 114 824 q 56 669 56 732 q 190 403 56 528 q 204 431 196 431 q 228 401 214 431 q 243 360 243 371 q 218 342 243 342 q 115 401 167 342 q 33 533 63 460 q 3 658 3 607 q 37 790 3 735 q 129 872 71 844 q 250 913 188 900 q 383 925 313 925 q 679 889 511 925 q 721 954 699 935 q 724 954 722 954 q 736 956 729 954 q 751 959 743 957 q 765 961 760 961 q 804 944 804 961 q 803 942 804 943 q 803 939 803 940 q 763 871 788 918 q 867 837 814 857 q 979 785 919 817 q 1076 707 1039 753 q 1113 608 1113 661 q 1081 519 1113 560 q 998 449 1050 478 q 901 403 946 421 q 807 372 856 385 q 915 357 857 369 q 1036 321 974 344 q 1140 254 1099 297 q 1181 157 1181 211 q 1132 53 1181 104 q 733 -94 992 -94 q 436 -49 563 -94 q 437 -66 436 -54 q 438 -85 438 -78 m 1047 606 q 1014 688 1047 649 q 927 756 981 728 q 829 801 874 783 q 742 832 785 819 l 740 832 q 540 368 628 636 q 602 378 563 375 q 654 385 642 382 q 759 408 704 393 q 885 449 814 422 q 1002 516 957 475 q 1047 606 1047 557 m 1057 31 q 1115 144 1115 89 q 1070 241 1115 200 q 956 301 1025 282 q 826 330 888 321 q 715 339 765 339 q 657 334 700 339 q 574 325 614 329 q 526 321 535 321 q 525 321 525 321 q 439 -15 454 101 q 735 -62 558 -62 q 1057 31 965 -62 z "},"C":{"ha":1046,"x_min":36,"x_max":1033,"o":"m 1028 193 q 1033 181 1033 193 q 1027 150 1033 168 q 1013 118 1021 132 q 997 97 1004 104 q 765 -47 911 10 q 486 -104 619 -104 q 151 1 267 -104 q 36 292 36 107 q 38 324 36 307 q 153 623 46 479 q 418 851 261 767 q 729 935 575 935 q 936 865 883 935 q 949 919 949 903 q 946 931 949 922 q 944 944 943 939 q 956 949 946 949 q 978 943 967 949 q 989 929 989 938 q 984 895 989 913 q 972 855 979 878 q 961 822 964 832 q 974 746 974 789 q 932 651 974 651 q 899 661 908 651 q 889 692 889 671 q 890 716 889 704 q 895 740 892 728 q 901 762 899 753 q 909 785 904 771 q 917 807 914 800 q 843 871 893 846 q 729 896 793 896 q 441 816 582 896 q 208 601 300 736 q 108 318 117 467 q 108 296 108 307 q 222 33 108 133 q 503 -68 335 -68 q 643 -54 576 -68 q 753 -22 710 -40 q 842 26 797 -4 q 907 75 886 56 q 957 124 928 94 q 990 157 986 153 q 1008 178 994 164 q 1028 193 1022 193 z "},"D":{"ha":1274,"x_min":-74,"x_max":1251,"o":"m 1182 238 q 1006 78 1115 146 q 788 -21 896 10 q 588 -51 681 -51 q 464 -28 507 -51 q 410 32 421 -4 q 409 35 410 33 q 407 39 408 38 q 387 9 401 32 q 363 -25 372 -14 q 328 -47 342 -47 q 306 8 306 -47 q 500 796 306 390 q 442 784 492 794 q 354 765 392 774 q 267 739 318 757 q 149 692 215 721 q 36 624 82 664 q -10 546 -10 585 q 8 500 -10 524 q 47 464 26 476 q 76 433 71 442 l 71 433 q 61 422 75 422 q 54 424 58 422 q 43 428 50 425 q 32 432 36 431 q -32 479 -17 463 q -74 564 -74 522 q -20 656 -74 611 q 108 730 33 700 q 272 785 183 760 q 424 822 361 810 q 522 838 486 833 q 575 926 550 899 l 578 926 q 650 936 617 936 q 665 931 665 936 q 607 843 632 897 q 614 843 610 843 q 839 822 735 843 q 1017 762 943 800 q 1145 672 1092 724 q 1225 562 1199 621 q 1251 439 1251 503 q 1182 238 1251 335 m 367 47 q 379 62 368 49 q 399 81 390 75 q 414 88 407 88 q 419 86 417 88 q 424 82 422 85 q 426 76 425 79 q 429 69 428 74 q 437 53 431 67 q 446 35 443 40 q 456 21 449 31 q 470 6 463 11 q 488 -3 478 1 q 571 -15 522 -15 q 759 20 654 -15 q 956 113 864 56 q 1097 233 1049 171 q 1200 479 1200 365 q 1119 657 1200 581 q 912 769 1038 733 q 639 806 786 806 q 586 804 613 806 q 368 53 401 482 q 367 47 368 49 z "},"E":{"ha":1299,"x_min":-35,"x_max":1340,"o":"m 613 404 q 603 404 608 404 q 595 404 599 404 q 586 404 592 404 q 577 404 581 404 q 569 405 574 404 q 561 406 564 406 q 555 408 558 407 q 549 412 551 410 q 546 417 547 414 q 544 424 544 419 q 554 447 544 435 q 575 458 564 458 q 601 458 588 458 q 659 458 621 458 q 714 457 697 457 q 763 601 731 504 q 811 746 794 697 q 271 850 456 850 q 192 844 231 850 q 109 824 153 839 q 38 780 65 810 q 11 707 11 750 q 70 572 11 642 q 200 456 129 503 q 330 369 271 410 q 389 317 389 329 q 383 313 389 313 q 296 347 361 313 q 177 420 232 381 q 72 511 122 460 q -6 627 22 563 q -35 761 -35 692 q 204 915 -35 915 q 824 782 442 915 q 830 804 825 788 q 839 832 835 821 q 850 857 843 843 q 867 878 857 871 q 888 885 876 885 q 936 857 914 885 q 958 803 958 829 q 950 789 958 789 q 925 801 940 789 q 907 814 910 814 q 886 796 896 814 q 874 764 876 778 q 1213 707 1040 707 q 1267 714 1242 707 q 1306 728 1292 721 q 1322 735 1319 735 q 1340 722 1340 735 q 1288 672 1340 688 q 1190 657 1235 657 q 1023 676 1119 657 q 863 725 926 696 q 821 606 856 703 q 769 457 786 510 q 875 455 779 457 q 1006 453 971 453 q 1047 447 1031 453 q 1063 432 1063 440 q 1014 417 1063 417 q 867 413 974 417 q 754 408 760 408 q 678 210 729 318 q 572 43 626 103 q 1042 -94 856 -94 q 1171 -55 1113 -94 q 1229 53 1229 -15 q 1207 117 1229 85 q 1185 158 1185 150 q 1207 186 1185 186 q 1245 150 1226 186 q 1264 63 1264 114 q 1187 -91 1264 -36 q 1007 -146 1110 -146 q 848 -119 939 -146 q 708 -72 757 -93 q 556 -3 660 -51 q 528 10 538 6 q 224 -104 406 -104 q 100 -78 154 -104 q 46 13 46 -51 q 96 116 46 76 q 213 156 146 156 q 531 63 328 156 q 699 406 599 151 q 661 405 692 406 q 613 404 631 404 m 499 25 q 342 76 439 53 q 186 100 246 100 q 93 43 93 100 q 131 -19 93 8 q 211 -56 168 -46 q 289 -67 254 -67 q 499 25 407 -67 z "},"F":{"ha":1021,"x_min":18,"x_max":1282,"o":"m 83 125 q 88 171 83 150 q 101 192 93 192 q 115 153 111 192 q 124 99 115 133 q 151 19 132 64 q 199 -66 171 -26 q 271 -133 226 -106 q 367 -160 315 -160 q 386 -158 376 -160 q 474 -124 431 -154 q 554 -42 518 -94 q 619 61 590 11 q 677 183 649 111 q 719 294 706 256 q 751 389 733 332 q 740 389 750 389 q 713 389 729 389 q 681 389 697 389 q 563 393 588 389 q 550 419 550 400 q 563 438 550 438 l 636 440 q 767 443 708 443 q 817 600 783 494 q 864 747 850 706 q 577 852 707 815 q 308 889 447 889 q 133 857 200 889 q 65 764 65 825 q 149 560 65 685 q 313 381 233 436 q 383 338 340 361 q 438 306 425 314 q 446 292 449 299 q 429 289 443 286 q 160 461 285 321 q 21 735 35 601 q 19 765 19 750 q 281 954 19 954 q 441 937 357 954 q 571 904 525 919 q 728 844 617 889 q 876 786 840 800 q 922 892 913 890 q 928 892 925 892 q 933 893 931 893 q 937 894 935 893 q 942 894 939 894 q 957 892 950 894 q 969 886 964 889 q 979 876 974 883 q 987 866 985 869 q 996 852 989 863 q 1004 839 1003 842 q 1007 830 1006 835 q 1010 822 1008 825 q 1012 815 1011 818 q 1013 807 1013 811 q 1010 797 1013 801 q 1003 793 1007 793 q 971 813 992 793 q 960 821 965 821 q 944 809 953 821 q 931 785 936 797 q 926 767 926 772 q 1082 717 1014 736 q 1192 699 1150 699 q 1223 703 1210 699 q 1242 715 1236 707 q 1265 726 1250 726 q 1281 715 1281 726 q 1261 682 1281 701 q 1161 647 1226 647 q 913 719 1065 647 q 822 443 828 463 q 1060 429 1029 443 q 1065 417 1069 422 q 1049 410 1060 411 q 1008 406 1044 410 q 915 399 972 403 q 807 392 857 394 q 703 76 746 168 q 457 -172 613 -114 q 372 -186 421 -186 q 238 -157 303 -186 q 138 -71 172 -128 q 97 28 110 -24 q 83 125 83 81 z "},"G":{"ha":1178,"x_min":21,"x_max":1185,"o":"m 1136 394 q 1185 382 1185 394 q 1136 360 1185 368 q 1053 351 1088 351 q 915 -93 956 -7 q 693 -404 813 -311 q 456 -497 574 -497 q 263 -411 332 -497 q 236 -350 236 -379 q 244 -335 238 -336 q 271 -356 256 -335 q 312 -406 294 -387 q 363 -442 329 -424 q 435 -460 397 -460 q 624 -392 533 -460 q 778 -218 714 -324 q 885 -5 842 -112 q 950 201 928 103 q 729 13 892 89 q 401 -64 567 -64 q 124 37 226 -64 q 21 286 21 138 q 51 456 21 374 q 135 603 82 538 q 261 724 189 669 q 416 816 333 779 q 588 874 499 853 q 765 894 678 894 q 804 893 785 894 q 967 863 904 888 q 1047 811 1031 838 q 1056 786 1056 797 q 1053 774 1056 781 q 1047 765 1050 768 q 1036 754 1043 761 q 1026 743 1029 747 q 1017 728 1022 738 q 1006 711 1011 719 q 996 695 1001 703 q 985 683 990 688 q 976 678 981 678 q 972 679 974 678 q 968 683 969 681 l 968 685 q 978 715 968 694 q 988 749 988 735 q 969 794 988 769 q 790 867 926 854 q 754 868 774 868 q 680 864 719 868 q 592 848 640 860 q 497 819 544 836 q 399 773 449 801 q 306 709 349 744 q 222 623 263 674 q 154 514 182 572 q 99 289 99 397 q 199 67 99 153 q 426 -18 299 -18 q 765 70 633 -18 q 985 344 896 158 q 607 338 867 338 q 569 352 583 338 q 554 385 554 367 q 583 417 554 403 q 632 431 611 431 q 635 431 633 431 q 644 425 643 431 q 643 422 644 424 q 634 408 636 414 q 639 400 632 403 q 728 398 654 400 q 902 395 801 396 q 1068 394 1003 394 q 1136 394 1113 394 z "},"H":{"ha":1332,"x_min":-11,"x_max":1418,"o":"m 49 124 q 51 153 49 139 q 57 176 53 167 q 67 185 61 185 q 81 146 78 185 q 89 92 81 126 q 117 12 97 57 q 164 -73 136 -33 q 237 -140 192 -112 q 333 -167 282 -167 q 351 -165 343 -167 q 480 -99 417 -158 q 588 47 543 -39 q 658 189 633 132 q 696 288 683 246 q 687 287 694 288 q 672 286 679 286 q 628 292 651 286 q 615 317 615 297 q 628 336 615 336 l 642 339 q 714 342 656 342 q 780 546 731 393 q 843 740 829 699 q 671 802 814 753 q 485 864 528 851 q 375 890 428 881 q 275 899 322 899 q 119 860 176 899 q 61 746 61 822 q 139 538 61 660 q 238 417 188 463 q 351 336 289 371 q 417 299 413 301 q 425 285 428 292 q 408 282 422 278 q 236 381 338 306 q 81 538 135 456 q -10 772 -10 674 q 64 909 -10 863 q 260 956 138 956 q 549 901 396 956 q 672 851 568 894 q 866 777 776 808 q 996 746 956 746 q 1014 749 1007 746 q 1024 756 1021 751 q 1047 767 1032 767 q 1063 756 1063 767 q 1058 741 1063 749 q 1043 722 1053 733 q 963 703 1024 703 q 892 713 911 703 q 856 606 882 685 q 807 458 831 528 q 769 342 783 388 q 1182 338 1019 342 l 1293 657 q 1290 666 1292 661 q 1288 676 1289 671 q 1288 686 1288 682 q 1292 717 1288 700 q 1301 744 1296 733 q 1311 765 1306 754 q 1317 775 1317 775 q 1344 805 1324 794 q 1386 815 1365 815 q 1403 813 1396 815 q 1414 808 1410 811 q 1418 800 1418 804 q 1411 788 1418 794 q 1246 335 1344 625 q 1339 328 1322 332 q 1347 319 1347 324 q 1335 311 1347 314 q 1300 307 1322 308 q 1265 306 1278 306 q 1236 306 1253 306 q 1136 -96 1151 46 q 1185 -63 1144 -96 q 1240 -11 1226 -31 q 1267 3 1256 3 q 1274 -6 1274 3 q 1238 -60 1274 -25 q 1107 -150 1144 -150 q 1068 -92 1068 -150 q 1088 22 1068 -50 q 1134 180 1107 94 q 1171 303 1161 265 q 751 290 982 299 q 422 -179 650 -94 q 338 -193 386 -193 q 203 -164 268 -193 q 103 -78 138 -135 q 49 124 49 13 z "},"I":{"ha":657,"x_min":13,"x_max":825,"o":"m 575 815 q 498 829 571 815 q 392 843 425 843 q 324 833 353 843 q 278 805 294 824 q 261 761 261 786 q 326 643 261 708 q 334 634 331 639 q 340 624 338 629 q 342 617 342 619 q 341 613 342 614 q 338 613 340 613 q 300 638 328 613 q 225 771 225 707 q 276 858 225 825 q 414 892 328 892 q 452 890 432 892 q 493 885 472 889 q 556 872 500 883 q 667 853 613 861 q 757 844 721 844 q 808 857 799 844 q 817 863 813 861 q 825 851 825 863 q 823 842 825 847 q 815 828 821 836 q 801 814 810 821 q 774 799 790 804 q 733 794 757 794 q 629 807 706 794 q 596 691 626 800 q 543 517 565 582 q 482 347 521 451 q 396 161 443 243 q 296 21 349 79 q 539 -39 429 -39 q 622 0 622 -39 q 617 24 622 11 q 606 47 611 36 q 600 60 600 57 q 603 70 600 65 q 610 74 606 75 q 629 49 621 69 q 638 3 638 28 q 613 -65 638 -37 q 532 -93 588 -93 q 398 -71 479 -93 q 261 -24 317 -49 q 110 -81 197 -81 q 40 -65 68 -81 q 13 -19 13 -49 q 45 44 13 14 q 124 75 78 75 q 257 38 171 75 q 371 228 315 108 q 458 443 426 349 q 528 663 490 538 q 575 815 567 789 m 225 -7 q 160 17 204 3 q 82 31 115 31 q 35 -3 35 31 q 56 -45 35 -29 q 108 -61 76 -61 q 225 -7 171 -60 z "},"J":{"ha":839,"x_min":6,"x_max":1097,"o":"m 865 804 q 694 830 833 807 q 497 853 554 853 q 371 790 371 853 q 434 681 371 747 q 608 546 497 615 q 613 536 617 542 q 601 533 610 532 q 417 632 486 561 q 347 776 347 703 q 352 813 347 796 q 367 846 357 831 q 395 874 378 861 q 434 895 413 886 q 485 909 456 904 q 549 914 514 914 q 591 913 569 914 q 638 907 613 911 q 689 897 663 903 q 742 885 693 896 q 826 866 790 874 q 913 851 863 858 q 997 844 964 844 q 1044 849 1025 844 q 1071 864 1063 854 q 1074 868 1072 867 q 1078 871 1076 869 q 1083 873 1081 872 q 1086 874 1085 874 q 1091 872 1089 874 q 1094 868 1093 871 q 1096 861 1096 865 q 1067 811 1096 842 q 989 789 1044 789 q 919 796 954 789 q 901 738 915 783 q 265 -357 582 -357 q 61 -221 157 -357 q 7 -25 7 -144 q 12 21 7 0 q 25 42 17 42 q 39 6 35 42 q 39 3 39 4 q 42 -27 39 -8 q 52 -70 46 -46 q 70 -122 58 -94 q 96 -175 82 -149 q 130 -226 110 -201 q 174 -269 150 -250 q 227 -299 197 -287 q 290 -310 257 -310 q 301 -309 296 -310 q 310 -308 306 -308 q 411 -251 358 -304 q 514 -108 464 -199 q 608 81 564 -17 q 697 301 653 178 q 770 508 742 424 q 829 690 799 592 q 865 804 860 788 z "},"K":{"ha":1319,"x_min":-3,"x_max":1414,"o":"m 1396 828 q 1403 826 1400 828 q 1408 823 1406 825 q 1413 818 1411 821 q 1414 811 1414 815 q 1308 677 1414 775 q 1060 482 1201 579 q 771 324 910 379 l 744 250 q 837 161 771 225 q 943 60 903 97 q 1039 -23 983 24 q 1138 -93 1094 -69 q 1215 -119 1182 -117 l 1219 -119 q 1267 -76 1253 -119 q 1282 25 1282 -33 q 1280 59 1282 39 q 1278 89 1278 79 q 1280 101 1278 97 q 1286 106 1282 106 q 1300 96 1293 106 q 1307 75 1307 86 q 1308 64 1307 69 q 1308 53 1308 58 q 1308 43 1308 49 q 1308 33 1308 38 q 1272 -117 1308 -69 q 1189 -164 1235 -164 q 987 -54 1117 -164 q 726 206 857 56 q 436 -179 596 -119 q 351 -193 400 -193 q 217 -164 282 -193 q 117 -78 151 -135 q 63 124 63 13 q 65 153 63 139 q 71 176 67 167 q 81 185 75 185 q 94 146 92 185 q 103 92 94 126 q 131 12 111 57 q 178 -73 150 -33 q 251 -140 206 -112 q 347 -167 296 -167 q 356 -166 351 -167 q 365 -165 361 -165 q 689 247 539 -150 q 667 269 683 253 q 641 294 650 285 q 620 316 632 303 q 603 338 608 329 q 597 353 597 347 q 610 360 597 360 q 664 342 629 342 q 725 351 690 342 q 792 570 753 436 q 843 740 831 704 q 481 876 560 861 q 303 894 390 894 q 116 861 189 894 q 43 761 43 828 q 46 735 43 749 q 54 707 49 722 q 132 548 90 617 q 217 438 174 479 q 292 374 260 397 q 365 329 325 350 q 417 299 404 308 q 425 285 428 292 q 408 282 422 279 q 142 458 268 313 q 0 728 15 604 q -3 763 -3 746 q 19 853 -3 815 q 81 910 42 890 q 164 939 119 931 q 263 947 208 947 q 423 932 342 947 q 549 901 504 917 q 672 851 568 894 q 866 777 776 808 q 996 746 956 746 q 1014 749 1007 746 q 1024 756 1021 751 q 1047 767 1032 767 q 1063 756 1063 767 q 1058 741 1063 749 q 1043 722 1053 733 q 963 703 1024 703 q 892 713 911 703 q 844 556 878 671 q 788 374 810 440 q 1019 499 886 413 q 1137 585 1076 536 q 1236 669 1197 633 q 1310 738 1275 704 q 1350 776 1344 772 l 1346 786 q 1354 805 1346 796 q 1374 821 1363 814 q 1396 828 1386 828 z "},"L":{"ha":1108,"x_min":35,"x_max":1079,"o":"m 957 933 q 1007 871 1007 933 q 995 757 1007 818 q 955 628 983 696 q 887 505 926 561 q 784 409 847 449 q 646 361 721 369 q 573 182 621 282 q 486 38 525 82 q 889 -86 731 -86 q 999 -51 950 -86 q 1049 46 1049 -15 q 1031 106 1049 76 q 1013 142 1013 135 q 1017 160 1013 151 q 1031 167 1022 169 q 1063 119 1047 160 q 1079 56 1079 78 q 1015 -83 1079 -33 q 858 -133 950 -133 q 817 -131 839 -133 q 777 -124 796 -128 q 733 -113 758 -121 q 692 -101 708 -106 q 647 -84 675 -96 q 606 -67 619 -72 q 563 -49 592 -62 q 524 -30 533 -35 q 483 -10 514 -25 q 447 7 453 4 q 188 -96 343 -96 q 81 -72 126 -96 q 35 8 35 -47 q 77 102 35 65 q 178 139 119 139 q 450 56 271 139 q 594 364 510 138 q 445 411 500 364 q 390 549 390 458 q 401 613 390 585 q 432 640 411 640 q 439 628 439 640 q 436 599 439 621 q 433 569 433 578 q 475 442 433 496 q 603 388 517 388 q 626 456 607 399 q 668 574 646 513 q 715 700 690 636 q 767 805 740 764 q 811 846 793 846 q 853 835 831 846 q 875 808 875 825 q 864 796 875 796 q 858 801 861 796 q 851 807 856 807 q 788 719 829 807 q 701 512 746 632 q 656 389 657 392 q 814 486 744 408 q 917 660 883 564 q 950 851 950 757 q 949 881 950 867 q 938 901 947 894 q 928 915 928 908 q 957 933 928 933 m 422 21 q 301 63 388 38 q 154 88 215 88 q 75 38 76 86 q 124 -37 75 -11 q 243 -62 172 -62 q 422 21 343 -62 z "},"M":{"ha":1338,"x_min":29,"x_max":1317,"o":"m 1256 829 q 1296 644 1296 829 q 1283 472 1296 560 q 1247 299 1271 383 q 1189 135 1222 215 q 1114 -19 1156 54 q 1274 72 1190 40 q 1295 80 1286 78 q 1310 82 1304 82 q 1315 79 1315 81 q 1278 43 1315 68 q 1228 6 1254 28 q 1181 -36 1201 -17 q 1138 -76 1160 -56 q 1097 -110 1115 -96 q 1061 -133 1079 -124 q 1029 -142 1043 -142 q 1013 -138 1022 -142 q 997 -128 1004 -135 q 990 -112 990 -121 q 1031 -68 990 -94 q 1074 -37 1072 -42 q 1132 110 1110 49 q 1180 254 1154 171 q 1219 418 1206 338 q 1232 578 1232 499 q 1224 696 1232 638 q 1181 625 1214 682 q 1106 497 1149 568 q 1019 365 1063 426 q 653 11 771 13 q 578 76 601 11 q 554 251 554 140 q 622 763 554 475 q 487 560 557 674 q 337 296 417 446 q 206 -11 257 146 q 156 -289 156 -168 l 156 -290 q 143 -311 151 -311 q 119 -279 131 -311 q 108 -217 108 -247 q 175 43 108 -122 q 330 365 242 208 q 495 642 418 521 q 603 800 572 764 q 574 807 596 801 q 531 817 551 813 q 478 829 510 822 q 417 840 446 836 q 353 848 389 844 q 288 851 318 851 q 178 831 229 851 q 97 774 128 811 q 67 693 67 738 q 121 578 67 638 q 292 467 175 519 q 319 443 317 456 q 317 440 319 442 q 311 439 315 439 q 295 441 304 439 q 272 446 286 443 q 105 544 171 471 q 32 689 39 618 q 31 695 32 692 q 31 702 31 699 q 31 709 31 706 q 31 715 31 713 q 31 721 31 718 q 294 904 31 904 q 671 842 454 904 q 696 804 696 835 q 685 736 696 789 q 619 260 619 431 q 623 190 619 221 q 634 137 626 160 q 656 101 642 114 q 689 89 669 89 q 986 382 779 89 q 1126 606 1063 492 q 1208 767 1190 719 q 1256 829 1233 829 z "},"N":{"ha":1342,"x_min":21,"x_max":1426,"o":"m 1417 626 q 1425 615 1425 619 q 1413 608 1422 610 q 1392 614 1401 608 q 1307 697 1358 629 q 1243 251 1290 425 q 1155 12 1199 88 q 1071 -64 1111 -64 q 986 22 1028 -64 q 915 229 944 107 q 869 485 886 351 q 851 719 851 619 q 860 744 851 733 q 879 754 869 754 q 897 743 890 754 q 906 710 904 732 q 926 492 914 599 q 959 264 939 385 q 1009 69 979 143 q 1074 -4 1039 -4 q 1215 274 1138 -4 q 1240 384 1229 321 q 1256 508 1250 447 q 1265 624 1263 569 q 1268 718 1268 678 q 1268 735 1268 728 q 1268 750 1268 743 q 1247 782 1254 771 q 1231 811 1240 793 q 1219 847 1222 829 q 1215 886 1215 865 q 1216 897 1215 892 q 1217 908 1217 903 q 1219 917 1218 913 q 1223 924 1221 921 q 1227 930 1225 928 q 1231 933 1229 932 q 1236 935 1233 935 q 1247 931 1242 935 q 1260 918 1253 926 q 1311 806 1275 900 q 1417 626 1374 642 m 22 154 q 28 199 22 179 q 40 219 33 219 q 54 182 51 219 q 60 138 54 165 q 78 76 67 111 q 111 4 90 40 q 158 -62 132 -32 q 222 -111 183 -92 q 304 -131 261 -131 q 315 -130 310 -131 q 324 -129 319 -129 q 438 -63 381 -124 q 541 80 496 -3 q 633 280 586 163 q 708 485 679 397 q 768 675 736 572 q 808 803 800 778 q 687 832 781 811 q 564 857 593 853 q 440 868 493 868 q 382 863 407 868 q 341 849 357 858 q 317 828 325 840 q 310 800 310 817 q 373 685 310 753 q 546 549 436 618 q 551 540 553 544 q 539 536 549 535 q 354 634 424 564 q 285 778 285 704 q 337 878 285 839 q 489 917 389 917 q 540 914 513 917 q 597 906 567 911 q 652 896 626 901 q 710 882 678 890 q 761 869 742 874 q 810 856 781 864 q 847 846 839 849 q 867 840 857 843 q 885 832 876 836 q 900 824 893 828 q 911 815 907 819 q 915 807 915 811 q 903 798 915 801 q 867 794 892 794 l 857 794 q 823 686 853 782 q 765 503 793 590 q 695 310 736 417 q 622 142 654 203 q 456 -92 543 -7 q 279 -178 368 -178 q 75 -42 171 -178 q 22 154 22 33 z "},"O":{"ha":1106,"x_min":10,"x_max":1094,"o":"m 689 950 q 797 896 797 950 q 760 822 797 865 q 1094 476 1094 778 q 1053 283 1094 375 q 944 124 1013 192 q 788 7 875 57 q 603 -68 700 -43 q 414 -93 507 -93 q 259 -72 331 -93 q 131 -7 188 -50 q 43 107 75 36 q 11 268 11 178 q 225 729 11 506 q 125 688 154 704 q 113 682 118 685 q 101 676 107 679 q 91 672 96 674 q 82 669 86 671 q 74 667 78 668 q 69 666 71 667 q 64 665 67 665 q 57 669 58 667 q 114 714 57 685 q 285 785 197 758 q 635 946 444 921 q 640 947 638 946 q 646 947 643 947 q 652 948 649 947 q 658 949 656 949 q 664 949 661 949 q 670 949 667 949 q 676 949 674 949 q 683 950 679 950 q 689 950 686 950 m 719 826 q 738 878 738 860 q 685 907 738 907 q 674 907 679 907 q 662 906 668 907 q 649 906 656 906 q 394 813 510 892 q 601 832 492 832 q 659 831 629 832 q 719 826 689 829 m 85 286 q 103 159 85 217 q 155 62 122 101 q 233 -5 188 22 q 331 -45 278 -32 q 443 -58 383 -58 q 607 -35 524 -58 q 766 35 690 -11 q 901 144 842 82 q 997 293 961 207 q 1032 475 1032 379 q 951 690 1032 600 q 742 793 869 779 q 707 754 732 781 q 624 681 682 728 q 515 608 567 635 q 438 578 451 578 q 433 579 433 578 q 510 643 433 593 q 699 796 618 715 q 632 797 667 797 q 475 787 553 797 q 326 760 397 776 q 144 526 204 649 q 85 286 85 403 z "},"P":{"ha":1186,"x_min":8,"x_max":1319,"o":"m 638 360 q 651 358 642 360 q 665 357 660 357 q 726 531 696 440 q 781 704 756 622 q 811 804 806 786 q 853 833 822 833 q 878 811 878 833 q 877 806 878 808 q 876 801 876 804 q 728 357 817 581 q 897 376 819 363 q 1031 408 974 389 q 1130 449 1088 426 q 1199 499 1172 472 q 1238 552 1225 525 q 1250 608 1250 579 q 1115 793 1250 711 q 785 875 979 875 q 551 847 661 875 q 372 766 440 818 q 303 651 303 714 q 406 499 303 576 q 431 474 431 479 q 424 469 431 469 q 395 476 414 469 q 368 490 376 483 q 238 675 238 586 q 284 773 238 728 q 408 848 331 818 q 586 894 486 878 q 794 911 686 911 q 1024 888 922 911 q 1190 826 1126 865 q 1285 740 1253 788 q 1318 638 1318 692 q 1279 524 1318 579 q 1167 423 1240 468 q 978 351 1094 378 q 719 324 861 324 q 714 324 717 324 q 621 123 668 214 q 517 -49 574 32 q 397 -176 460 -131 q 271 -221 333 -221 q 64 -82 164 -221 q 10 114 10 -6 q 15 160 10 140 q 28 181 19 181 q 42 142 39 181 q 50 88 42 122 q 78 8 58 53 q 125 -77 97 -37 q 198 -144 153 -117 q 294 -171 243 -171 q 313 -169 304 -171 q 654 325 474 -154 q 635 337 643 329 q 626 351 626 344 q 638 360 626 360 z "},"Q":{"ha":1106,"x_min":4,"x_max":1094,"o":"m 689 950 q 797 896 797 950 q 760 822 797 865 q 1094 476 1094 778 q 1044 265 1094 364 q 915 101 993 167 q 740 -13 836 35 q 555 -83 644 -61 q 392 -104 465 -104 q 117 1 222 -104 q 11 269 11 106 q 225 729 11 506 q 125 688 154 704 q 113 682 118 685 q 101 676 107 679 q 91 672 96 674 q 82 669 86 671 q 74 667 78 668 q 69 666 71 667 q 64 665 67 665 q 57 669 58 667 q 114 714 57 685 q 285 785 197 758 q 635 946 444 921 q 640 947 638 946 q 646 947 643 947 q 652 948 649 947 q 658 949 656 949 q 664 949 661 949 q 670 949 667 949 q 676 949 674 949 q 683 950 679 950 q 689 950 686 950 m 1049 -192 q 983 -330 1049 -279 q 828 -381 918 -381 q 674 -352 760 -381 q 519 -287 589 -324 q 358 -214 449 -251 q 197 -164 268 -176 q 143 -158 171 -158 q 63 -175 94 -158 q 31 -222 31 -192 q 24 -258 31 -237 q 11 -278 18 -278 q 4 -237 4 -278 q 43 -137 4 -179 q 139 -94 82 -94 q 308 -132 211 -94 q 484 -214 404 -169 q 667 -296 564 -258 q 857 -333 771 -333 q 969 -298 919 -333 q 1018 -201 1018 -262 q 1017 -174 1018 -186 q 1013 -153 1015 -162 q 1008 -140 1010 -144 q 1001 -126 1006 -135 q 994 -114 996 -117 q 993 -82 986 -93 q 1000 -81 996 -79 q 1033 -128 1017 -87 q 1049 -192 1049 -169 m 719 826 q 738 878 738 860 q 685 907 738 907 q 674 907 679 907 q 662 906 668 907 q 649 906 656 906 q 394 813 510 892 q 601 832 492 832 q 659 831 629 832 q 719 826 689 829 m 85 286 q 125 105 85 185 q 240 -21 165 25 q 411 -67 314 -67 q 535 -53 469 -67 q 671 -12 600 -39 q 806 59 742 14 q 920 162 869 104 q 1001 301 971 219 q 1032 475 1032 382 q 951 690 1032 600 q 742 793 869 779 q 707 754 732 781 q 624 681 682 728 q 515 608 567 635 q 438 578 451 578 q 433 579 433 578 q 510 643 433 593 q 699 796 618 715 q 632 797 667 797 q 475 787 553 797 q 326 760 397 776 q 144 526 204 649 q 85 286 85 403 z "},"R":{"ha":1321,"x_min":8,"x_max":1319,"o":"m 1282 25 q 1280 59 1282 39 q 1278 89 1278 79 q 1280 101 1278 97 q 1286 106 1282 106 q 1300 96 1293 106 q 1307 75 1307 86 q 1308 64 1307 69 q 1308 53 1308 58 q 1308 43 1308 49 q 1308 33 1308 38 q 1272 -117 1308 -69 q 1189 -164 1235 -164 q 689 265 1036 -164 q 599 83 644 165 q 499 -71 553 0 q 387 -182 446 -142 q 271 -222 328 -222 q 64 -82 163 -222 q 10 114 10 -6 q 15 160 10 140 q 28 181 19 181 q 42 142 39 181 q 50 88 42 122 q 78 8 58 53 q 125 -77 97 -37 q 198 -144 153 -117 q 294 -171 243 -171 q 313 -169 304 -171 q 650 314 474 -154 l 626 343 q 622 363 622 349 q 627 392 622 378 q 639 406 632 406 q 649 400 644 406 l 672 372 q 759 637 711 481 q 811 804 807 793 q 853 833 822 833 q 878 811 878 833 q 877 806 878 808 q 876 801 876 804 q 728 357 817 581 q 897 376 819 363 q 1031 408 974 389 q 1130 449 1088 426 q 1199 499 1172 472 q 1238 552 1225 525 q 1250 608 1250 579 q 1115 793 1250 711 q 785 875 979 875 q 551 847 661 875 q 372 766 440 818 q 303 651 303 714 q 406 499 303 576 q 431 474 431 479 q 424 469 431 469 q 395 476 414 469 q 368 490 376 483 q 238 675 238 586 q 284 773 238 728 q 408 848 331 818 q 586 894 486 878 q 794 911 686 911 q 1024 888 922 911 q 1190 826 1126 865 q 1285 740 1253 788 q 1318 638 1318 692 q 1279 524 1318 579 q 1167 423 1240 468 q 978 351 1094 378 q 719 324 861 324 q 714 324 717 324 l 714 322 q 1215 -119 1065 -106 l 1219 -119 q 1267 -76 1253 -119 q 1282 25 1282 -33 z "},"S":{"ha":639,"x_min":-12,"x_max":932,"o":"m 218 -75 q 353 -60 283 -75 q 478 -10 424 -44 q 533 69 533 25 q 532 82 533 76 q 465 158 525 128 q 327 210 406 189 q 172 258 249 232 q 41 338 94 285 q -12 469 -12 390 q 44 658 -12 571 q 190 802 100 744 q 380 897 279 860 q 582 947 481 935 q 694 956 642 956 q 932 799 932 956 q 854 640 932 717 q 672 564 776 564 q 658 567 663 564 q 653 575 653 571 q 654 581 653 578 q 659 587 656 585 q 667 590 663 589 q 676 592 671 592 q 811 645 747 592 q 875 778 875 699 q 858 847 875 818 q 810 891 840 875 q 744 914 779 907 q 667 921 708 921 q 626 919 646 921 q 586 915 606 918 q 338 848 454 899 q 143 706 222 797 q 64 504 64 615 q 101 390 64 438 q 195 319 139 342 q 318 276 251 297 q 444 242 385 256 q 546 199 503 228 q 596 128 589 169 l 597 111 q 535 0 597 54 q 374 -88 474 -54 q 168 -122 274 -122 q 26 -19 26 -122 q 64 36 26 36 q 71 27 68 36 q 78 3 74 18 q 88 -21 82 -11 q 110 -49 97 -37 q 140 -65 124 -60 q 176 -73 157 -71 q 218 -75 194 -75 z "},"T":{"ha":972,"x_min":21,"x_max":1282,"o":"m 83 125 q 88 171 83 150 q 101 192 93 192 q 115 153 111 192 q 124 99 115 133 q 151 19 132 64 q 199 -66 171 -26 q 271 -133 226 -106 q 367 -160 315 -160 q 386 -158 376 -160 q 482 -115 435 -154 q 571 -8 529 -76 q 649 134 613 61 q 719 304 685 207 q 777 471 754 401 q 827 628 800 540 q 864 747 854 717 q 581 852 708 815 q 318 889 454 889 q 67 743 67 889 q 88 645 67 697 q 144 548 110 593 q 209 468 178 503 q 271 408 240 433 q 370 342 311 372 q 438 306 429 311 q 446 292 449 299 q 429 289 443 286 q 233 385 315 314 q 88 555 153 454 q 22 754 22 656 q 89 899 22 844 q 283 954 156 954 q 444 937 360 954 q 572 904 528 919 q 729 844 617 889 q 876 786 842 799 q 922 892 913 890 q 928 892 925 892 q 933 893 931 893 q 937 894 935 893 q 942 894 939 894 q 957 892 950 894 q 969 886 964 889 q 979 876 974 883 q 987 866 985 869 q 996 852 989 863 q 1004 839 1003 842 q 1007 830 1006 835 q 1010 822 1008 825 q 1012 815 1011 818 q 1013 807 1013 811 q 1010 797 1013 801 q 1003 793 1007 793 q 971 813 992 793 q 960 821 965 821 q 944 809 953 821 q 931 785 936 797 q 926 767 926 772 q 1072 715 1004 733 q 1183 696 1139 696 q 1242 715 1228 696 q 1265 726 1250 726 q 1281 715 1281 726 q 1261 682 1281 701 q 1167 647 1228 647 q 914 725 1075 647 q 868 574 897 676 q 816 393 839 471 q 754 215 793 315 q 676 44 715 114 q 580 -87 638 -26 q 457 -172 522 -149 q 372 -186 421 -186 q 238 -157 303 -186 q 138 -71 172 -128 q 97 28 110 -24 q 83 125 83 81 z "},"U":{"ha":1247,"x_min":19,"x_max":1331,"o":"m 504 -53 q 461 -34 476 -53 q 446 17 446 -15 q 451 63 446 38 q 467 121 456 88 q 485 176 478 154 q 512 240 493 199 q 537 296 531 282 q 564 354 543 310 q 585 399 585 399 q 602 435 586 403 q 628 488 618 467 q 656 547 639 508 q 685 615 674 585 q 709 681 697 646 q 727 747 721 717 q 733 803 733 778 q 713 855 733 842 q 639 868 692 868 q 382 794 513 868 q 165 598 251 721 q 78 346 78 475 q 103 249 78 286 q 182 211 129 211 q 291 233 240 211 q 369 282 342 256 q 416 331 396 308 q 440 353 436 353 q 446 340 444 353 q 358 229 432 281 q 183 178 285 178 q 68 225 117 178 q 19 361 19 272 q 83 583 19 478 q 243 756 146 688 q 451 863 340 824 q 660 903 561 903 q 799 797 799 903 q 781 703 799 758 q 744 604 764 647 q 672 450 725 561 q 651 406 658 421 q 638 377 649 401 q 616 331 626 353 q 591 278 606 310 q 565 217 576 246 q 543 158 554 189 q 526 101 532 128 q 521 57 521 75 q 553 14 521 14 q 581 20 564 14 q 621 40 597 26 q 674 76 644 54 q 1008 448 811 181 q 1244 829 1206 715 q 1296 856 1265 856 q 1321 842 1311 856 q 1331 799 1331 829 q 1221 542 1304 758 q 1110 229 1138 325 q 1068 33 1068 82 q 1103 -15 1068 -15 q 1203 42 1133 -15 q 1226 57 1219 57 q 1232 50 1232 57 q 1227 33 1232 43 q 1219 21 1222 22 q 1039 -81 1107 -81 q 999 -21 999 -81 q 1061 254 999 44 q 1203 646 1125 463 q 936 297 1104 485 q 658 24 768 108 q 571 -33 610 -14 q 504 -53 532 -53 z "},"V":{"ha":979,"x_min":17,"x_max":1374,"o":"m 1368 926 l 1367 925 q 1349 922 1363 924 q 1323 917 1336 919 q 1284 899 1310 914 q 1229 857 1258 883 q 980 564 1118 758 q 757 222 842 369 q 683 79 672 75 q 689 71 689 78 q 647 3 689 44 q 608 -22 624 -21 q 577 -13 592 -22 q 563 11 563 -4 q 566 25 563 18 q 575 40 569 32 q 610 190 590 58 q 629 396 629 321 q 624 541 629 476 q 602 679 619 606 q 555 802 585 753 q 471 884 525 851 q 343 917 417 917 q 154 851 228 917 q 81 657 81 785 q 124 516 81 571 q 229 461 167 461 q 244 460 238 461 q 253 456 250 458 q 256 451 256 454 q 249 446 256 449 q 229 443 242 443 q 76 507 135 443 q 17 669 17 571 q 113 875 17 801 q 356 949 208 949 q 690 472 690 949 q 688 385 690 429 q 681 290 686 342 q 674 213 676 239 q 664 133 671 188 q 728 240 667 138 q 838 417 790 342 q 958 598 886 492 q 1100 785 1031 704 q 1226 911 1169 867 q 1332 958 1288 958 q 1350 956 1342 958 q 1363 950 1358 954 q 1371 942 1368 946 q 1374 935 1374 938 q 1372 930 1374 932 q 1368 926 1371 928 z "},"W":{"ha":1629,"x_min":22,"x_max":1746,"o":"m 1238 672 q 1251 667 1243 672 q 1265 651 1258 661 q 1271 629 1271 640 q 1258 556 1271 600 q 1158 81 1158 221 q 1215 -28 1158 -28 q 1344 42 1265 -28 q 1499 216 1424 111 q 1627 460 1574 321 q 1681 722 1681 599 q 1608 879 1681 853 q 1588 897 1588 886 q 1590 903 1588 900 q 1598 908 1593 907 q 1610 910 1603 910 q 1706 863 1667 910 q 1746 729 1746 817 q 1682 456 1746 606 q 1529 190 1618 307 q 1344 -8 1440 72 q 1183 -87 1247 -87 q 1097 68 1097 -87 q 1108 194 1097 121 q 1129 322 1118 267 q 1157 449 1140 376 q 1178 544 1174 522 q 961 321 1075 463 q 790 89 847 179 q 688 -79 732 -1 l 688 -78 q 625 -137 656 -137 q 603 -126 611 -137 q 596 -93 596 -114 q 601 -56 596 -75 q 667 142 606 -42 q 770 494 728 325 q 813 771 813 664 q 777 884 813 850 q 658 918 742 918 q 533 901 606 918 q 381 849 461 885 q 234 765 301 813 q 122 647 167 717 q 78 499 78 576 q 145 358 78 415 q 299 301 213 301 q 408 325 375 301 q 415 329 411 328 q 421 331 418 331 q 426 332 424 332 q 435 325 435 332 q 415 304 435 315 q 290 281 375 281 q 261 281 278 281 q 95 346 168 283 q 22 503 22 408 q 87 683 22 596 q 248 826 151 769 q 453 916 344 882 q 656 950 563 950 q 893 740 893 950 q 885 650 893 697 q 858 538 878 603 q 828 445 838 474 q 787 333 818 417 q 751 240 756 250 q 697 42 706 113 q 1125 563 990 411 q 1153 594 1136 575 q 1210 657 1194 642 q 1238 672 1226 672 z "},"X":{"ha":1014,"x_min":1,"x_max":1032,"o":"m 1011 918 q 1032 878 1032 918 q 940 725 1032 801 q 596 433 739 558 q 881 15 764 58 q 888 13 885 14 q 894 13 892 13 q 935 36 915 13 q 965 86 954 60 q 982 139 976 113 q 993 160 986 160 q 1001 153 997 160 q 1004 138 1004 146 q 984 60 1004 96 q 937 3 964 24 q 886 -27 910 -17 q 851 -37 863 -37 q 843 -37 847 -37 q 836 -36 839 -37 q 547 390 722 -4 l 379 240 q 181 36 288 157 q 50 -131 74 -85 q 22 -154 38 -154 q 13 -150 17 -154 q 10 -137 10 -146 q 10 -130 10 -135 q 14 -121 11 -125 q 343 267 97 39 q 532 431 413 332 q 438 699 456 656 q 353 842 406 785 q 247 900 300 900 q 69 739 110 900 q 56 635 56 683 q 72 542 56 578 q 107 497 89 506 q 114 490 113 494 q 113 483 115 486 q 103 479 110 479 q 33 528 63 479 q 3 642 3 576 q 11 707 3 676 q 114 885 44 824 q 249 946 183 946 q 389 888 325 946 q 492 721 453 829 l 583 474 q 943 793 835 679 q 999 881 986 838 q 1001 892 1000 885 q 1001 904 1001 899 q 1004 914 1001 910 q 1011 918 1007 918 m 593 443 l 592 443 l 592 442 l 593 443 z "},"Y":{"ha":1326,"x_min":60,"x_max":1419,"o":"m 1419 840 q 1293 406 1419 700 q 1058 -71 1167 111 q 955 -222 1014 -146 q 819 -378 896 -299 q 654 -506 743 -457 q 485 -556 565 -556 q 349 -512 410 -556 q 288 -399 288 -469 q 297 -332 288 -372 q 324 -287 307 -292 q 328 -292 326 -289 q 332 -298 331 -294 q 334 -306 333 -301 q 335 -315 335 -311 q 335 -325 335 -319 q 333 -354 335 -336 q 332 -376 332 -372 q 383 -472 332 -437 q 500 -506 435 -506 q 650 -459 572 -506 q 797 -336 728 -412 q 916 -193 867 -260 q 1008 -56 965 -126 q 1105 127 1058 25 q 1178 301 1151 229 q 1251 501 1206 372 q 1317 683 1296 629 q 1119 425 1265 597 q 800 97 972 253 q 549 -58 628 -58 q 504 3 504 -58 q 553 202 504 81 q 659 430 601 324 q 765 654 717 536 q 814 846 814 772 q 789 901 814 888 q 718 914 764 914 q 523 863 628 914 q 332 735 418 813 q 188 556 246 657 q 131 363 131 454 q 268 226 131 226 q 333 235 303 226 q 390 264 364 244 q 431 295 417 283 q 466 331 444 307 q 489 357 488 356 q 510 357 510 378 q 490 317 510 342 q 383 225 451 261 q 246 189 314 189 q 113 244 165 189 q 60 381 60 300 q 129 581 60 476 q 300 766 199 686 q 519 898 401 846 q 728 950 636 950 q 835 924 790 950 q 879 839 879 897 q 835 667 879 775 q 739 460 792 558 q 642 249 686 361 q 599 69 599 138 q 631 24 599 24 q 833 165 694 24 q 1078 447 971 307 q 1238 668 1186 588 q 1347 882 1289 749 q 1382 908 1358 908 q 1411 886 1403 908 q 1419 840 1419 864 z "},"Z":{"ha":910,"x_min":3,"x_max":899,"o":"m 61 -70 q 51 -72 61 -70 q 36 -74 42 -74 q 17 -53 31 -74 q 3 -24 3 -33 l 3 -22 q 75 108 10 26 q 231 276 140 189 q 427 458 322 363 q 621 631 532 553 q 769 772 710 710 q 828 856 828 833 q 824 865 828 863 q 815 866 821 865 q 802 867 808 867 q 787 869 796 868 q 768 871 778 869 q 747 873 758 872 q 723 874 735 874 q 697 876 711 875 q 669 877 683 876 q 640 878 656 878 q 608 878 624 878 q 388 867 496 878 q 254 836 281 857 q 265 826 258 835 q 271 808 271 817 q 260 796 269 796 q 224 815 246 796 q 190 856 203 835 q 186 865 188 860 q 185 874 185 869 q 206 894 185 892 q 586 915 338 915 q 648 915 617 915 q 710 914 679 914 q 766 913 740 914 q 822 912 792 913 q 869 911 851 911 q 897 864 897 906 q 881 807 897 829 q 749 671 843 757 q 550 494 654 585 q 344 311 446 404 q 171 132 242 218 q 90 -10 100 46 q 159 0 121 -6 q 269 14 197 6 q 424 28 342 22 q 579 33 507 33 q 813 10 728 33 q 846 -25 846 0 q 821 -78 846 -49 q 772 -122 796 -107 q 760 -128 763 -128 q 761 -115 753 -128 q 801 -50 801 -75 q 790 -28 801 -36 q 761 -16 779 -19 q 718 -12 743 -12 q 169 -53 504 -12 q 112 -61 143 -56 q 61 -70 81 -67 z "},"[":{"ha":813,"x_min":28,"x_max":772,"o":"m 765 922 q 755 913 761 914 q 722 911 749 911 l 608 911 q 506 831 565 911 q 326 544 446 751 q 104 58 104 160 q 232 15 104 15 q 296 17 249 15 q 360 19 343 19 q 367 13 367 19 q 358 -8 367 3 q 339 -18 349 -18 l 161 -18 q 158 -18 160 -18 q 153 -18 156 -18 q 148 -18 150 -18 q 143 -18 146 -18 q 138 -18 140 -18 q 28 25 28 -18 q 206 458 28 133 q 490 904 385 782 q 581 950 531 950 l 757 950 q 767 947 764 950 q 771 940 771 944 q 769 932 771 936 q 765 922 768 928 z "},"\\":{"ha":839,"x_min":61,"x_max":838,"o":"m 814 -129 q 802 -126 806 -129 q 799 -118 799 -124 q 797 -98 800 -112 q 789 -67 794 -83 q 503 376 746 50 q 72 917 260 701 q 63 942 63 928 q 70 962 63 954 q 93 969 78 969 q 278 763 114 969 q 616 308 443 557 q 822 -36 789 60 q 838 -101 838 -79 q 832 -122 838 -114 q 814 -129 826 -129 z "},"]":{"ha":772,"x_min":31,"x_max":775,"o":"m 38 4 q 48 14 42 13 q 81 15 54 15 l 194 15 q 297 95 238 15 q 476 382 357 175 q 699 868 699 767 q 571 911 699 911 q 507 909 554 911 q 443 907 460 907 q 436 914 436 907 q 445 934 436 924 q 464 944 454 944 l 642 944 q 648 944 644 944 q 656 944 651 944 q 665 944 661 944 q 775 901 775 944 q 597 469 775 793 q 313 22 418 144 q 222 -24 272 -24 l 46 -24 q 32 -14 32 -24 q 38 4 32 -7 z "},"^":{"ha":464,"x_min":68,"x_max":392,"o":"m 379 632 q 225 732 293 679 q 151 678 208 718 q 82 632 94 638 q 74 629 78 629 q 70 631 71 629 q 69 633 69 632 q 74 643 69 638 q 150 715 82 656 q 232 776 218 774 q 303 720 242 774 q 385 647 365 667 q 389 642 388 644 q 390 636 390 639 q 385 631 390 631 q 379 632 382 631 z "},"_":{"ha":456,"x_min":-3,"x_max":474,"o":"m 474 -21 l 471 -24 l 1 -24 l -3 -21 l -3 1 l 1 6 l 471 6 l 474 1 l 474 -21 z "},"`":{"ha":493,"x_min":111,"x_max":375,"o":"m 372 663 l 375 657 q 374 655 375 656 q 369 654 372 654 q 125 769 333 654 q 115 778 118 774 q 113 790 113 783 q 124 815 113 803 q 146 828 135 828 q 151 826 149 828 q 157 824 154 825 q 236 769 185 801 q 324 710 288 736 q 372 663 360 683 z "},"a":{"ha":457,"x_min":8,"x_max":475,"o":"m 461 111 q 449 99 460 110 q 431 83 438 89 q 410 66 424 78 q 388 47 397 54 q 364 31 378 40 q 340 16 350 21 q 318 7 329 11 q 297 3 307 3 q 263 38 268 3 q 308 253 263 96 q 42 -4 122 -4 q 8 46 8 -4 q 47 219 8 110 q 140 416 85 328 q 238 504 196 504 l 242 504 l 257 515 q 296 529 269 529 q 354 518 317 529 q 396 507 392 507 q 410 518 401 507 q 432 529 419 529 q 467 499 467 529 q 462 471 467 486 q 448 435 457 456 q 438 411 439 415 q 424 403 436 408 q 411 393 413 397 q 357 209 381 307 q 333 89 333 111 q 353 54 333 54 q 401 78 372 54 q 450 125 429 101 q 472 149 471 149 q 475 143 475 149 q 461 111 475 122 m 369 481 q 341 483 361 481 q 307 486 321 486 q 265 481 288 486 q 151 316 231 471 q 72 85 72 161 q 86 61 72 61 q 190 146 115 61 q 288 267 264 231 q 351 387 322 322 q 381 472 381 451 q 374 481 381 481 l 369 481 z "},"b":{"ha":406,"x_min":-3,"x_max":450,"o":"m 54 15 q 40 -1 47 -1 q 13 15 28 -1 q -3 54 -3 32 q 31 160 -3 75 q 44 176 35 171 q 54 186 53 182 q 292 876 204 576 l 303 885 q 327 901 313 893 q 351 910 342 910 q 365 889 365 910 q 268 610 350 832 q 133 260 186 388 q 273 437 186 339 q 403 535 360 535 q 431 483 431 535 l 431 474 q 404 349 429 446 q 446 364 435 364 q 450 361 450 364 q 433 340 450 354 q 397 319 415 326 q 292 83 343 140 q 213 26 272 63 q 139 -11 153 -11 q 54 15 82 -11 m 328 286 q 117 149 164 200 q 97 106 108 132 q 81 71 85 79 q 149 33 114 33 q 255 118 206 33 q 328 286 304 203 m 339 317 q 364 438 361 375 q 350 467 364 467 q 126 183 304 467 q 339 317 210 251 z "},"c":{"ha":321,"x_min":6,"x_max":367,"o":"m 367 456 q 353 403 367 426 q 325 381 340 381 q 308 406 308 381 q 314 436 308 414 q 319 468 319 458 q 296 490 319 490 q 244 467 279 490 q 190 426 208 444 q 114 274 164 399 q 64 82 64 150 q 104 31 64 31 q 207 70 156 31 q 290 151 258 110 q 324 192 322 192 q 331 182 331 189 q 297 116 331 161 q 205 30 264 71 q 90 -11 146 -11 q 6 88 6 -11 q 68 318 6 183 q 176 474 131 453 q 222 494 197 482 q 263 514 246 507 q 301 521 281 521 q 367 456 367 521 z "},"d":{"ha":471,"x_min":7,"x_max":596,"o":"m 592 900 q 596 888 596 897 q 574 805 596 865 q 515 648 553 744 q 456 490 476 551 q 458 492 457 492 q 470 482 464 492 q 476 464 476 472 q 463 456 476 456 q 443 460 444 456 q 373 257 415 397 q 331 85 331 117 q 349 53 331 53 q 397 77 369 53 q 447 126 425 101 q 472 151 468 151 q 476 144 476 151 q 474 133 476 140 q 470 122 472 126 q 467 117 468 117 q 378 44 435 85 q 289 3 321 3 q 263 32 263 3 q 315 261 263 107 q 170 83 256 176 q 36 -10 85 -10 q 7 32 7 -10 q 49 205 7 92 q 148 410 90 318 q 244 503 206 503 l 250 503 q 273 513 260 503 q 301 524 286 524 q 360 513 322 524 q 401 501 399 501 q 403 503 403 501 q 506 781 503 772 q 490 797 490 781 q 532 899 490 836 q 554 910 538 910 q 592 900 572 910 m 393 471 q 311 486 393 486 q 276 483 288 486 q 159 315 246 475 q 72 82 72 156 q 86 60 72 60 q 126 82 100 60 q 175 129 153 104 q 224 184 197 154 q 251 217 250 214 q 320 315 289 258 q 372 419 351 371 q 393 471 392 468 z "},"e":{"ha":351,"x_min":28,"x_max":374,"o":"m 365 432 q 374 363 374 389 q 353 310 374 332 q 299 280 332 289 q 239 267 265 271 q 189 264 213 264 q 158 265 175 264 q 139 265 140 265 q 93 82 93 149 q 135 26 93 26 q 203 63 164 26 q 271 137 242 100 q 306 174 300 174 q 315 163 315 174 q 239 55 315 124 q 119 -14 163 -14 q 56 8 85 -14 q 28 79 28 29 q 32 115 28 94 q 58 218 42 168 q 75 279 74 268 q 54 301 54 285 q 78 317 54 317 l 88 317 q 151 443 143 426 q 300 517 190 517 q 365 432 347 517 m 315 365 q 308 425 315 400 q 292 460 301 450 q 274 469 283 469 q 208 410 246 469 q 151 304 169 350 q 174 303 154 304 q 207 301 193 301 q 289 314 264 301 q 315 365 314 326 z "},"f":{"ha":292,"x_min":-250,"x_max":558,"o":"m 536 921 q 558 889 558 917 q 549 851 558 869 q 531 832 540 832 q 522 847 529 832 q 499 875 515 861 q 460 889 483 889 q 363 811 393 889 q 268 521 301 654 l 404 521 q 443 513 443 521 q 379 491 443 499 q 257 483 315 483 q 223 372 251 469 q 159 155 194 275 q 106 -22 124 35 q -8 -227 60 -167 q -143 -287 -75 -287 q -250 -176 -250 -287 q -238 -104 -250 -137 q -217 -71 -226 -71 q -210 -79 -211 -71 q -212 -118 -212 -107 q -187 -221 -212 -182 q -126 -260 -162 -260 q -58 -224 -93 -260 q 6 -117 -24 -189 q 110 194 44 -19 q 194 478 176 408 q 101 472 161 472 q 69 485 69 472 q 88 508 69 494 q 117 521 106 521 l 206 521 q 293 799 269 747 q 320 847 306 826 q 352 881 335 868 q 385 901 369 893 q 422 912 400 908 q 458 917 443 915 q 497 919 472 918 q 536 921 522 919 z "},"g":{"ha":407,"x_min":-101,"x_max":431,"o":"m 332 -297 q 209 -427 319 -368 q 0 -486 99 -486 q -101 -412 -101 -486 q -33 -206 -101 -339 q 81 -22 35 -74 q 108 -8 85 -17 q 90 2 101 -4 q 72 12 79 8 q 58 21 64 15 q 53 32 53 26 q 66 60 53 47 q 93 74 79 74 l 99 74 q 258 -67 183 42 q 333 -269 333 -175 q 332 -297 333 -289 m 431 408 q 410 396 431 396 l 397 396 q 391 362 396 388 q 382 315 386 336 q 375 286 378 293 q 278 144 340 197 q 150 90 217 90 q 94 113 111 90 q 76 183 76 135 q 151 414 76 303 q 307 525 225 525 q 328 522 314 525 q 364 572 328 572 q 404 508 404 572 q 403 475 404 499 q 401 440 401 451 q 407 438 403 440 q 415 432 411 435 q 422 425 418 429 q 428 417 426 421 q 431 408 431 413 m 267 -315 l 267 -297 q 227 -150 267 -224 q 132 -28 188 -76 q 98 -76 129 -32 q 45 -154 67 -121 q -4 -235 24 -187 q -47 -324 -32 -283 q -62 -394 -62 -365 q 3 -451 -62 -451 q 169 -404 74 -451 q 267 -315 264 -357 m 346 401 q 328 445 331 404 q 308 486 325 486 q 228 431 265 486 q 169 321 190 375 q 135 174 135 226 q 169 131 135 131 q 283 213 221 131 q 346 401 346 296 z "},"h":{"ha":431,"x_min":11,"x_max":474,"o":"m 464 492 q 324 223 389 371 q 260 -7 260 75 q 271 -26 260 -26 q 295 -14 275 -26 q 319 -1 315 -1 q 326 -10 326 -1 q 300 -45 326 -26 q 249 -64 274 -64 q 214 -12 214 -64 q 253 156 214 47 q 331 355 292 265 q 369 456 369 444 q 368 458 369 458 q 343 438 363 458 q 196 245 256 339 q 116 101 136 151 q 74 22 96 51 q 24 -8 53 -8 q 11 6 11 -8 q 18 33 11 18 q 90 235 56 131 q 165 467 125 339 q 229 671 204 596 q 233 696 233 683 q 232 706 233 701 q 231 714 231 711 q 235 732 231 719 q 289 849 267 821 q 357 878 311 878 q 378 865 375 878 q 132 215 226 560 q 444 539 339 539 q 474 519 474 539 q 464 492 474 507 z "},"i":{"ha":233,"x_min":25,"x_max":354,"o":"m 354 764 q 328 718 354 746 q 294 675 301 690 q 256 624 276 629 q 228 669 228 624 q 271 733 228 699 q 346 768 314 768 q 354 764 353 768 m 275 526 q 256 492 272 522 q 229 439 240 461 q 199 374 218 417 q 164 292 179 331 q 132 199 149 253 q 103 90 115 144 q 101 79 101 86 q 115 63 101 63 q 160 83 124 63 q 208 104 197 104 q 219 99 218 104 q 149 37 219 82 q 51 -8 78 -8 q 25 17 25 -8 q 31 46 25 29 q 62 135 46 89 q 86 206 78 181 q 103 257 94 231 q 117 297 113 283 q 124 323 121 310 q 129 343 128 336 q 131 357 131 350 q 128 367 131 363 q 126 375 126 372 q 131 393 126 381 q 185 510 161 481 q 254 539 208 539 q 275 526 272 539 z "},"j":{"ha":279,"x_min":-226,"x_max":376,"o":"m 304 526 q 117 -103 206 290 q 22 -308 83 -247 q -108 -368 -40 -368 q -226 -240 -226 -368 q -217 -179 -226 -207 q -200 -151 -208 -151 q -193 -160 -194 -151 l -193 -174 q -165 -296 -193 -249 q -97 -343 -137 -343 q -35 -308 -65 -343 q 18 -203 -4 -274 q 169 332 100 60 q 172 356 172 343 q 170 367 172 361 q 168 376 168 372 q 171 393 168 386 q 215 509 193 479 q 282 539 238 539 q 304 526 300 539 m 351 736 q 322 708 335 726 q 304 672 310 689 q 289 641 299 654 q 267 628 279 628 q 249 649 257 628 q 239 685 240 671 q 285 744 239 714 q 357 775 331 775 q 376 763 376 775 q 351 736 376 750 z "},"k":{"ha":374,"x_min":-1,"x_max":490,"o":"m 453 490 q 290 356 367 440 q 213 246 213 272 q 256 121 213 196 q 332 18 299 46 q 358 -18 358 -4 q 346 -26 358 -26 q 282 12 318 -26 q 220 90 246 50 q 167 181 194 129 l 138 232 q 75 24 78 67 q 49 -8 75 14 q 8 -29 24 -29 q -1 -17 -1 -29 q 6 10 -1 -11 q 81 215 44 107 q 161 463 117 322 q 228 671 206 604 q 233 696 233 688 q 231 706 233 701 q 229 714 229 711 q 233 732 229 719 q 288 849 265 821 q 356 878 310 878 q 376 865 375 878 q 241 564 293 697 q 149 269 189 431 l 213 326 q 346 444 276 383 q 425 513 415 504 q 482 540 463 540 q 490 535 490 540 q 453 490 490 519 z "},"l":{"ha":249,"x_min":24,"x_max":374,"o":"m 374 865 q 218 483 297 707 q 101 90 139 258 q 100 79 100 86 q 114 63 100 63 q 159 83 122 63 q 206 104 196 104 q 218 99 214 104 q 149 37 218 82 q 50 -8 79 -8 q 24 17 24 -8 q 29 46 24 31 q 97 242 65 144 q 168 473 128 339 q 228 671 208 607 q 232 696 232 683 q 230 706 232 701 q 228 715 228 711 q 232 732 228 719 q 283 849 260 819 q 353 878 307 878 q 374 865 372 878 z "},"m":{"ha":678,"x_min":-3,"x_max":758,"o":"m 750 504 q 547 25 582 207 q 543 -3 543 11 q 556 -22 543 -22 q 584 -9 561 -22 q 611 4 607 4 q 618 -4 618 4 q 588 -42 618 -22 q 526 -61 557 -61 q 496 -48 506 -61 q 486 -3 486 -35 q 500 78 486 29 q 528 160 514 126 q 567 251 542 194 q 597 319 593 308 q 640 440 640 421 q 633 450 640 450 q 618 443 629 450 q 465 286 546 394 q 346 33 385 178 q 317 8 343 22 q 272 -7 290 -7 q 256 6 256 -7 l 256 8 l 257 11 q 388 438 296 194 q 394 463 394 456 q 390 469 394 469 q 369 454 383 469 q 213 250 281 351 q 117 96 144 149 q 64 10 90 43 q 8 -24 38 -24 q -3 -12 -3 -24 q 3 13 -3 -3 q 17 43 10 28 q 26 61 25 58 q 118 332 49 115 q 124 357 124 349 q 122 367 124 363 q 119 375 119 372 q 124 393 119 381 q 178 510 154 481 q 246 539 201 539 q 267 526 264 539 q 131 193 153 293 q 482 563 363 563 q 510 544 510 563 q 500 517 510 532 q 347 157 379 313 q 477 366 415 292 q 661 529 539 440 q 731 550 688 550 q 758 531 758 550 q 750 504 758 521 z "},"n":{"ha":453,"x_min":-4,"x_max":510,"o":"m 500 517 q 368 246 429 399 q 307 17 307 93 q 318 -8 307 -8 q 345 6 322 -8 q 372 19 368 19 q 381 11 381 19 q 350 -26 381 -6 q 289 -47 319 -47 q 249 13 249 -47 q 271 139 249 67 q 340 324 293 211 q 388 438 388 436 q 394 465 394 456 q 390 472 394 472 q 360 447 383 472 q 189 219 300 381 q 75 21 78 58 q 49 -6 74 11 q 7 -24 24 -24 q -4 -14 -3 -24 q 48 125 -1 -18 q 118 332 97 268 q 124 357 124 349 q 122 367 124 363 q 119 375 119 372 q 124 393 119 381 q 178 510 156 482 q 246 539 200 539 q 267 526 264 539 q 131 193 153 293 q 482 563 360 563 q 510 544 510 563 q 500 517 510 532 z "},"o":{"ha":363,"x_min":29,"x_max":421,"o":"m 394 414 q 421 399 421 410 q 400 377 421 388 q 363 367 379 367 q 278 89 363 204 q 110 -26 193 -26 q 29 90 29 -26 q 35 154 29 122 q 60 247 42 190 q 107 371 78 304 q 178 484 136 438 q 264 531 221 531 l 274 531 q 285 564 274 550 q 315 578 296 578 q 350 497 335 576 q 394 414 365 417 m 324 378 q 293 427 311 385 q 268 469 275 469 q 168 342 225 469 q 97 142 111 215 q 92 83 92 110 q 131 15 92 15 q 255 128 186 15 q 324 378 324 242 z "},"p":{"ha":414,"x_min":-94,"x_max":472,"o":"m 372 299 q 399 308 381 301 q 432 319 417 315 q 463 324 447 324 q 472 319 472 324 q 458 302 472 310 q 416 286 444 294 q 378 274 388 278 q 385 194 385 238 q 330 37 385 86 q 200 -12 275 -12 q 75 24 119 -12 q 28 -113 63 -12 q -22 -258 -7 -214 q -24 -264 -24 -261 q -19 -276 -24 -268 q -14 -293 -14 -285 q -35 -347 -14 -310 q -78 -383 -56 -383 q -94 -349 -94 -383 q -72 -247 -94 -319 q -5 -59 -49 -175 q 40 63 39 57 q 36 86 36 72 q 67 138 36 118 q 175 481 160 425 q 160 484 175 482 q 144 493 144 486 q 167 514 144 504 l 188 522 q 182 533 182 528 q 208 576 182 553 q 253 599 235 599 q 264 585 264 599 q 257 558 264 572 l 242 525 q 372 299 340 456 m 318 254 q 222 210 294 254 q 122 142 150 167 l 92 54 q 186 22 140 22 q 291 69 257 22 q 325 182 325 115 q 318 254 325 213 m 311 276 q 285 369 301 326 q 253 435 268 413 q 229 457 239 457 q 211 417 225 457 q 174 303 197 378 q 138 190 150 228 q 311 276 204 236 z "},"q":{"ha":432,"x_min":14,"x_max":517,"o":"m 490 411 q 477 403 489 408 q 464 393 465 397 q 381 194 407 258 q 317 18 354 129 q 257 -190 279 -93 q 251 -229 251 -212 q 267 -254 251 -254 q 345 -205 293 -254 q 401 -156 397 -156 q 408 -165 408 -156 q 403 -183 408 -174 q 396 -194 399 -193 q 207 -311 260 -311 q 175 -276 179 -311 q 339 246 175 -186 q 253 143 297 193 q 145 41 208 93 q 46 -11 82 -11 q 14 32 14 -11 q 62 206 14 93 q 175 412 110 319 q 283 504 240 504 l 288 504 l 303 515 q 342 529 315 529 q 400 518 364 529 q 440 507 436 507 q 456 518 446 507 q 479 529 467 529 q 517 494 517 529 q 490 411 517 468 m 414 481 q 385 484 406 481 q 351 488 364 488 q 310 481 331 488 q 239 400 292 476 q 138 226 186 324 q 90 81 90 129 q 103 61 90 61 q 206 140 132 61 q 318 267 281 218 q 391 391 358 328 q 424 474 424 454 q 418 481 424 481 l 414 481 z "},"r":{"ha":375,"x_min":8,"x_max":442,"o":"m 410 410 q 380 380 399 394 q 351 365 361 365 q 343 374 343 365 q 356 413 343 379 q 369 458 369 446 q 363 468 369 468 q 219 318 314 468 q 78 25 124 168 q 51 3 69 14 q 21 -8 33 -8 q 8 -1 13 -8 q 17 67 8 36 q 40 103 26 97 q 83 275 71 218 l 97 333 q 100 356 100 343 q 97 368 100 363 q 94 379 94 374 q 97 394 94 388 q 142 514 119 482 q 210 546 165 546 q 229 535 226 546 q 209 486 228 531 q 174 403 190 442 q 139 304 158 364 q 108 194 119 244 q 250 412 154 285 q 408 539 346 539 q 442 497 442 539 q 410 410 442 454 z "},"s":{"ha":353,"x_min":19,"x_max":399,"o":"m 399 476 q 363 397 396 449 q 311 346 329 346 q 306 354 306 346 q 321 405 306 367 q 336 454 336 443 q 311 475 336 475 q 265 468 307 475 q 174 424 231 460 q 118 344 118 388 q 125 317 118 329 q 188 256 143 281 q 266 208 233 231 q 299 150 299 186 q 205 33 299 89 q 44 -24 111 -24 q 26 -15 33 -24 q 19 4 19 -6 q 35 21 19 21 q 163 49 81 21 q 246 111 246 78 q 215 157 246 131 q 147 206 183 183 q 78 259 110 228 q 47 319 47 290 q 64 364 47 343 q 90 394 76 379 q 117 419 104 408 q 145 442 129 431 q 174 461 161 453 q 203 478 186 469 q 229 491 219 486 q 255 503 239 496 q 277 512 271 510 q 297 519 283 514 q 313 525 311 525 q 349 532 336 532 q 399 476 399 532 z "},"t":{"ha":321,"x_min":74,"x_max":447,"o":"m 210 521 l 215 540 q 219 564 219 557 q 217 574 219 569 q 214 583 214 579 q 218 600 214 588 q 269 718 246 689 q 336 747 292 747 q 358 735 356 747 q 274 521 328 669 l 408 521 q 447 513 447 521 q 383 491 447 499 q 261 483 319 483 q 149 108 192 288 q 142 68 142 81 q 157 44 142 44 q 238 94 185 44 q 296 143 292 143 q 303 135 303 143 q 288 104 303 111 q 108 -11 160 -11 q 76 29 76 -11 q 110 160 76 51 q 199 478 114 174 q 106 472 165 472 q 74 485 74 472 q 92 508 74 494 q 121 521 110 521 l 210 521 z "},"u":{"ha":463,"x_min":10,"x_max":499,"o":"m 499 533 q 468 450 494 521 q 425 331 442 379 q 372 158 400 260 q 343 35 343 57 q 346 31 343 31 q 402 65 357 31 q 464 100 447 100 q 475 93 475 100 q 444 61 475 83 q 372 15 413 39 q 328 -12 332 -10 q 299 -41 318 -21 q 265 -74 281 -61 q 236 -87 249 -87 q 218 -72 218 -87 q 240 -42 218 -62 q 269 -7 263 -22 q 364 325 293 50 q 191 108 299 228 q 29 -12 83 -12 q 10 13 10 -12 q 25 72 10 33 q 58 147 25 74 q 112 274 92 221 q 132 351 132 328 q 129 365 132 358 q 126 375 126 371 q 129 390 126 376 q 174 508 153 479 q 243 536 194 536 q 267 524 263 536 q 100 94 100 114 q 104 89 100 89 q 138 111 110 89 q 382 411 276 218 q 408 500 383 454 q 482 546 433 546 q 499 533 497 546 z "},"v":{"ha":485,"x_min":71,"x_max":486,"o":"m 482 492 q 413 316 467 410 q 294 151 358 222 q 170 33 231 81 q 79 -15 110 -15 q 71 -8 71 -15 q 74 5 71 1 q 80 11 76 8 q 89 19 83 14 q 99 42 94 25 q 109 88 104 60 q 118 172 114 117 q 124 300 122 226 q 115 338 124 325 q 107 386 107 350 q 120 481 107 454 q 175 507 133 507 q 201 494 194 507 q 149 57 153 107 q 176 81 150 58 q 228 129 203 103 q 288 196 254 156 q 352 292 322 236 q 401 410 382 347 q 404 426 404 421 q 399 451 404 436 q 393 472 393 465 q 422 524 393 489 q 471 560 451 560 q 486 531 486 560 q 482 492 486 514 z "},"w":{"ha":685,"x_min":24,"x_max":742,"o":"m 742 501 q 717 438 742 493 q 647 297 692 382 q 560 143 603 213 q 534 99 543 117 q 522 74 525 82 q 512 40 519 67 q 499 -6 504 14 q 483 -15 493 -15 q 455 2 469 -15 q 440 35 440 19 q 441 52 440 40 q 442 71 442 64 q 365 446 442 261 q 223 234 315 417 q 131 -11 131 51 q 115 -26 126 -26 q 85 -7 101 -26 q 68 28 68 13 q 69 33 68 32 q 128 297 128 176 q 118 395 128 357 q 96 447 108 433 q 69 461 83 461 q 50 450 67 461 q 28 439 33 439 q 24 443 24 439 q 60 494 24 463 q 115 526 96 526 q 172 331 172 526 q 168 218 172 289 q 284 408 211 297 q 386 519 357 519 q 414 535 397 535 q 440 504 440 535 q 439 492 440 500 q 438 481 438 485 q 450 436 438 472 q 478 331 461 403 q 507 206 494 260 q 521 153 519 153 q 607 283 540 153 q 678 485 674 414 q 672 510 678 493 q 667 536 667 526 q 681 568 667 553 l 682 568 q 706 581 697 581 q 733 553 724 581 q 742 501 742 526 z "},"x":{"ha":392,"x_min":-104,"x_max":465,"o":"m 447 465 q 433 461 435 461 l 429 463 q 385 422 425 463 q 333 368 344 381 q 267 297 267 301 l 303 169 q 339 8 339 40 q 321 -34 339 -7 q 285 -61 303 -61 q 269 -5 279 -61 q 246 130 260 51 q 218 246 232 208 q 125 131 186 204 q 18 -3 64 57 q -62 -126 -28 -64 q -92 -154 -78 -154 q -104 -129 -104 -154 q -42 -16 -104 -97 q 103 158 21 65 q 206 282 185 250 l 203 292 q 199 311 201 301 q 193 336 197 321 q 184 365 189 351 q 172 392 179 378 q 156 415 164 406 q 138 431 149 425 q 117 438 128 438 q 97 436 110 438 q 81 435 85 435 q 73 435 76 435 q 67 438 69 436 q 63 444 64 440 q 61 451 61 447 q 80 467 61 456 q 106 479 99 479 q 145 503 125 481 q 169 525 165 525 l 171 525 q 222 450 194 525 q 258 332 250 375 q 354 449 276 365 q 450 533 432 533 q 465 513 465 533 q 447 465 465 478 z "},"y":{"ha":440,"x_min":-121,"x_max":510,"o":"m 506 539 q 510 524 510 532 q 388 300 510 468 q 193 46 267 132 l 193 49 q 190 38 192 49 q 183 10 188 26 q 175 -23 179 -7 q 165 -51 171 -39 q 153 -62 158 -62 q 138 -59 147 -62 q 128 -56 129 -56 q -60 -378 -60 -307 q -54 -403 -60 -390 q -49 -421 -49 -417 q -65 -447 -49 -436 q -99 -458 -82 -458 q -121 -432 -121 -458 q -61 -280 -121 -382 q 62 -90 -1 -178 q 126 3 125 -3 q 142 128 142 49 q 120 328 142 242 q 61 414 99 414 q 50 414 57 414 l 42 413 q 36 419 36 413 q 67 453 36 431 q 90 483 71 456 q 119 511 110 511 q 172 422 149 511 q 194 222 194 332 q 194 189 194 211 q 193 156 193 167 q 204 133 193 133 q 333 281 236 133 q 429 468 429 428 q 422 476 429 476 q 413 474 419 476 q 401 471 406 471 q 390 478 394 471 q 431 518 390 496 q 496 540 471 540 q 506 539 503 540 z "},"z":{"ha":421,"x_min":-15,"x_max":464,"o":"m 463 479 q 444 442 456 454 q 422 426 432 429 q 411 422 411 424 q 227 249 342 365 q 68 67 113 133 q 65 58 65 64 q 160 36 65 36 q 375 56 297 36 q 399 60 389 60 q 413 50 413 60 q 396 9 413 32 q 360 -14 379 -14 q 342 0 342 -14 q 208 7 258 7 q 92 2 156 7 q 19 -3 29 -3 q -15 29 -15 -3 q 11 90 -15 67 q 375 471 253 324 l 300 471 q 174 451 192 471 q 161 436 172 450 q 140 410 150 422 q 126 399 129 399 q 114 408 114 399 q 145 492 114 467 q 256 518 176 518 q 274 518 261 518 q 303 519 286 518 q 335 519 319 519 q 427 514 390 519 q 464 493 464 508 q 463 479 464 485 z "},"{":{"ha":449,"x_min":49,"x_max":597,"o":"m 160 368 q 188 354 175 363 q 210 335 200 346 q 227 313 219 325 q 238 284 235 300 q 242 251 242 268 l 242 242 q 206 94 238 190 q 171 -53 175 -3 q 171 -65 171 -58 q 177 -101 171 -86 q 193 -125 183 -117 q 218 -138 203 -133 q 247 -144 233 -143 q 278 -144 260 -144 q 289 -144 282 -144 q 300 -144 296 -144 q 310 -152 310 -146 q 301 -164 310 -158 q 278 -169 292 -169 q 244 -169 258 -169 q 212 -165 229 -168 q 181 -158 194 -162 q 156 -145 168 -153 q 135 -126 143 -137 q 122 -99 126 -115 q 117 -64 117 -83 q 117 -56 117 -60 q 118 -47 118 -51 q 154 101 122 4 q 190 249 186 199 q 190 253 190 251 q 190 258 190 256 q 190 263 190 260 q 175 319 190 297 q 138 351 160 342 q 88 360 115 360 q 50 371 50 360 q 75 389 50 382 q 215 428 174 399 q 283 546 257 457 q 301 622 290 571 q 319 699 313 674 q 349 772 332 742 q 396 831 367 803 q 472 874 425 860 q 583 889 519 889 q 588 889 585 889 l 589 889 q 596 876 594 886 q 582 860 596 863 q 437 813 478 860 q 369 658 396 765 q 335 543 349 575 q 264 430 310 479 q 160 368 218 381 z "},"|":{"ha":304,"x_min":139,"x_max":219,"o":"m 171 -104 q 151 -122 161 -122 q 145 -119 147 -122 q 142 -112 143 -117 q 140 -101 140 -108 q 142 -86 140 -94 q 151 154 151 -47 l 151 617 q 149 747 151 693 q 143 824 146 800 q 140 856 140 849 q 164 869 140 869 q 219 750 219 869 q 205 275 219 599 q 171 -104 190 -49 z "},"}":{"ha":590,"x_min":36,"x_max":585,"o":"m 474 353 q 414 397 436 367 q 392 469 392 428 q 392 474 392 472 q 392 479 392 476 q 427 627 396 531 q 463 774 458 724 q 463 786 463 779 q 454 830 463 813 q 428 854 446 847 q 394 863 410 861 q 356 865 379 865 q 344 865 351 865 q 333 865 338 865 q 324 873 324 867 q 333 885 324 879 q 356 890 342 890 q 415 887 390 890 q 465 873 439 883 q 503 840 490 863 q 517 785 517 818 q 515 768 517 776 q 479 619 511 717 q 443 472 447 522 q 443 458 443 465 q 473 385 443 408 q 546 361 503 361 q 583 350 583 361 q 558 332 583 339 q 418 293 460 322 q 350 175 376 264 q 332 99 343 150 q 314 22 321 47 q 284 -51 301 -21 q 238 -110 267 -82 q 161 -153 208 -139 q 50 -168 114 -168 q 46 -168 49 -168 l 44 -168 q 38 -156 38 -168 q 51 -139 38 -142 q 197 -92 156 -139 q 264 63 238 -44 q 299 178 285 146 q 369 291 324 242 q 474 353 415 340 z "},"~":{"ha":422,"x_min":40,"x_max":349,"o":"m 43 608 q 40 611 40 608 q 63 641 40 621 q 100 668 86 661 q 150 682 122 682 q 217 667 174 682 q 282 653 260 653 q 340 682 315 653 q 349 676 349 682 q 328 647 349 667 q 293 618 308 628 q 256 607 275 607 q 186 626 231 607 q 118 644 142 644 q 72 626 94 644 q 43 608 50 608 z "},"":{"ha":281,"x_min":-199,"x_max":242,"o":"m 174 429 q 178 440 175 435 q 185 449 181 446 q 196 456 190 453 q 208 460 201 458 q 219 461 214 461 q 238 446 233 461 q 242 408 242 431 l 242 407 q 209 360 242 383 q 158 336 176 336 q 154 339 154 336 q 161 371 156 349 q 170 408 167 393 q 174 429 174 424 m 122 189 q 138 165 136 186 q 104 39 138 128 q 19 -167 71 -50 q -39 -296 -33 -283 q -76 -369 -42 -304 q -112 -450 -110 -435 q -103 -461 -115 -458 q -89 -471 -90 -464 q -95 -478 -89 -475 q -111 -484 -101 -482 q -133 -488 -121 -486 q -157 -490 -146 -490 q -173 -489 -165 -490 q -186 -486 -181 -487 q -195 -481 -192 -485 q -199 -475 -199 -478 q -198 -471 -199 -472 q -196 -467 -197 -469 q -47 -190 -164 -428 q 82 132 82 71 q 77 146 82 139 q 72 157 72 153 q 90 178 72 168 q 122 189 108 189 z "},"":{"ha":321,"x_min":86,"x_max":444,"o":"m 432 876 q 443 864 443 876 q 439 849 443 858 q 357 664 418 807 q 380 661 369 664 q 399 653 390 658 q 411 638 407 647 q 415 615 415 628 q 403 577 415 593 q 376 561 392 561 q 363 579 363 561 q 367 601 363 585 q 372 624 372 617 q 347 642 372 642 q 213 304 275 474 q 290 344 251 315 q 352 399 329 374 q 376 424 375 424 q 382 417 382 424 q 357 374 382 403 q 290 317 333 347 q 203 276 246 288 q 143 74 151 133 q 142 67 143 71 q 142 61 142 64 q 142 57 142 58 q 158 25 142 25 q 160 18 164 25 q 151 7 158 14 q 143 0 144 0 q 133 -3 138 -3 q 116 12 121 -3 q 111 47 111 26 q 168 269 111 114 q 165 269 167 269 q 160 269 163 269 q 135 272 146 269 q 115 281 124 275 q 99 294 106 286 q 90 314 93 303 q 88 339 88 325 q 140 506 88 406 q 243 629 192 606 q 285 647 260 635 q 322 661 311 658 q 419 874 407 868 q 424 875 422 875 q 427 876 425 875 q 432 876 429 876 m 256 594 q 226 555 246 586 q 188 485 207 524 q 153 405 168 447 q 139 336 139 363 q 145 310 139 319 q 165 299 151 300 l 178 299 q 264 511 233 438 q 285 567 269 526 q 310 628 301 607 q 256 594 285 615 z "},"":{"ha":1135,"x_min":56,"x_max":1074,"o":"m 317 433 q 330 454 317 450 q 368 458 343 458 q 397 458 381 458 q 426 458 413 458 q 454 457 439 457 q 481 457 469 457 q 506 529 489 476 q 538 631 522 582 q 584 740 554 681 q 648 842 614 799 q 736 914 682 885 q 854 943 790 943 q 955 905 914 943 q 996 810 996 867 q 975 735 996 761 q 929 708 954 708 q 912 713 917 708 q 918 726 907 717 q 961 815 961 756 q 947 867 961 844 q 905 903 933 890 q 836 917 876 917 q 756 892 793 917 q 692 831 718 867 q 640 740 667 796 q 599 642 614 685 q 565 541 585 600 q 536 457 546 482 q 604 455 546 457 q 697 453 663 453 q 738 447 722 453 q 754 432 754 440 q 706 417 754 417 q 599 418 665 417 q 528 419 533 419 q 506 365 526 418 q 477 294 485 313 q 448 228 469 276 q 412 154 426 181 q 377 96 397 128 q 339 43 357 64 q 585 -33 435 -3 q 851 -64 736 -64 q 981 -24 922 -64 q 1039 83 1039 15 q 1024 151 1039 121 q 994 189 1008 182 q 987 203 983 194 q 1003 213 990 213 q 1051 178 1028 213 q 1074 93 1074 144 q 1006 -61 1074 -7 q 839 -115 939 -115 q 767 -112 803 -115 q 689 -101 732 -110 q 622 -87 646 -92 q 544 -65 597 -82 q 480 -44 492 -49 q 406 -19 468 -40 q 342 3 344 1 q 167 44 219 44 q 100 -18 100 44 q 88 -25 100 -25 q 66 -14 76 -25 q 56 21 56 -3 q 149 93 56 93 q 304 58 197 93 q 386 208 331 92 q 472 417 442 324 q 435 416 465 417 q 386 415 404 415 q 376 415 382 415 q 367 415 371 415 q 356 415 363 415 q 346 416 350 415 q 337 417 342 417 q 328 419 332 418 q 322 422 325 421 q 318 427 319 424 q 317 433 317 431 z "},"":{"ha":665,"x_min":68,"x_max":607,"o":"m 575 622 l 607 610 q 585 590 604 607 q 540 551 565 574 q 492 507 515 529 q 532 422 532 478 q 501 326 532 368 q 421 260 471 283 q 508 126 488 150 l 463 126 q 396 249 457 144 q 307 235 356 235 q 226 250 258 235 l 113 125 l 68 125 l 210 258 q 161 349 161 289 q 254 500 161 444 l 181 613 l 221 625 q 275 511 226 600 q 392 535 329 535 q 475 518 439 535 q 575 622 535 576 m 479 410 q 454 475 479 450 q 379 500 429 500 q 261 463 307 500 q 215 369 215 426 q 244 302 215 329 q 324 275 272 275 q 436 315 393 275 q 479 410 479 354 z "},"":{"ha":808,"x_min":86,"x_max":803,"o":"m 336 242 q 365 242 350 242 q 392 242 381 242 q 419 244 404 243 q 447 245 433 244 q 478 246 460 246 q 515 246 496 246 q 537 244 529 246 q 544 238 544 242 q 521 225 544 231 q 329 200 461 210 q 325 157 325 175 q 319 106 322 124 q 310 64 317 88 q 292 28 303 40 q 262 8 282 17 q 215 0 242 0 q 190 17 188 0 q 211 58 197 29 q 229 96 225 88 q 267 196 251 143 q 245 195 256 196 q 224 194 235 194 q 204 194 214 194 q 185 193 194 193 q 138 194 160 193 q 101 199 110 194 q 90 210 93 204 q 86 222 86 217 q 93 240 86 232 q 110 253 100 247 q 131 258 121 258 q 165 253 143 258 q 190 247 186 247 q 281 244 217 247 l 281 246 q 282 249 281 247 q 294 318 290 279 q 211 315 253 315 q 161 317 183 315 q 125 321 133 317 q 116 329 119 325 q 111 337 113 333 q 110 344 110 340 q 124 369 110 358 q 154 381 138 381 q 188 375 167 381 q 214 369 210 369 q 299 367 240 369 q 297 383 299 379 q 149 811 244 519 q 139 867 139 847 q 154 897 139 890 q 178 906 167 903 q 203 908 190 908 q 217 907 210 908 q 231 904 224 906 q 247 900 239 903 q 244 869 271 892 q 232 857 236 867 q 228 831 228 847 q 354 429 228 732 q 563 633 429 490 q 719 868 696 776 q 732 904 722 883 q 751 925 742 925 q 756 926 753 925 q 764 926 760 926 q 771 926 768 926 q 803 899 801 926 q 674 704 807 867 q 657 685 663 692 q 371 394 571 581 q 361 364 363 369 q 414 365 386 364 q 474 367 442 367 q 539 368 506 368 q 556 367 549 368 q 565 364 563 365 q 568 360 568 363 q 544 347 568 353 q 351 322 483 332 q 336 242 342 274 z "},"":{"ha":304,"x_min":139,"x_max":219,"o":"m 213 447 l 151 450 l 151 617 q 149 747 151 693 q 143 824 146 800 q 140 856 140 849 q 164 869 140 869 q 219 750 219 869 q 213 447 219 615 m 151 385 l 210 386 q 171 -108 193 -44 q 151 -126 161 -126 q 145 -124 147 -126 q 142 -117 143 -121 q 140 -106 140 -112 q 142 -90 140 -99 q 153 86 153 -44 q 152 222 153 122 q 151 385 151 321 z "},"":{"ha":869,"x_min":-21,"x_max":819,"o":"m 769 765 q 635 874 769 874 q 628 873 632 874 q 622 872 625 872 q 616 872 619 872 q 610 872 613 872 q 566 867 589 871 q 519 854 543 863 q 470 835 494 846 q 423 810 446 824 q 381 779 400 796 q 348 744 363 763 q 325 703 333 725 q 317 660 317 682 q 317 652 317 656 q 318 646 318 649 q 331 599 321 621 q 351 562 340 578 q 384 530 363 546 q 419 504 406 514 q 463 481 433 494 q 505 463 492 468 q 551 445 518 457 q 593 429 583 433 q 647 406 625 417 q 695 381 669 396 q 737 351 721 365 q 763 316 753 336 q 774 275 774 296 q 774 266 774 271 q 772 257 774 261 q 697 115 760 183 q 539 10 633 47 q 567 -57 567 -19 q 565 -74 567 -65 q 422 -272 546 -185 q 135 -358 299 -358 q 122 -358 129 -358 q -19 -258 -19 -356 q -19 -250 -19 -254 q 19 -200 -14 -204 q 21 -200 19 -200 q 28 -208 25 -200 q 34 -231 31 -217 q 43 -256 38 -246 q 97 -302 63 -290 q 189 -314 132 -314 q 319 -290 254 -314 q 431 -222 383 -267 q 489 -122 478 -178 q 491 -110 490 -117 q 492 -99 492 -104 q 386 22 492 -28 q 321 50 364 33 q 246 80 278 67 q 175 115 214 93 q 111 159 136 136 q 69 215 86 182 q 51 289 51 249 q 113 439 51 368 q 272 551 175 510 q 258 619 258 581 q 318 768 258 697 q 475 881 378 839 q 678 924 572 924 q 818 785 818 924 q 813 757 818 772 q 799 730 808 742 q 779 718 789 718 q 769 736 769 718 q 769 749 769 739 q 769 765 769 758 m 111 315 q 124 269 114 290 q 144 231 133 247 q 177 199 156 215 q 213 174 199 183 q 256 151 226 164 q 298 132 285 138 q 344 115 311 126 q 386 99 376 103 q 513 35 478 60 q 632 106 581 58 q 696 208 683 153 q 697 217 697 213 q 698 224 697 221 q 699 232 699 228 q 593 353 699 303 q 498 391 574 361 q 373 450 422 421 q 293 517 324 479 q 164 438 217 488 q 111 328 111 389 q 111 315 111 322 z "},"":{"ha":785,"x_min":417,"x_max":722,"o":"m 703 722 q 695 704 703 713 q 676 692 688 696 q 656 688 665 688 q 629 732 629 688 q 629 744 629 738 q 662 793 631 769 q 714 817 693 817 q 722 813 721 817 q 713 760 722 796 q 703 722 703 725 m 492 722 q 484 704 492 713 q 465 692 476 696 q 444 688 454 688 q 418 732 418 688 q 418 744 418 738 q 451 793 419 769 q 503 817 482 817 q 511 813 510 817 q 501 760 511 796 q 492 722 492 725 z "},"":{"ha":1110,"x_min":68,"x_max":1057,"o":"m 450 -11 q 280 17 354 -11 q 160 95 206 46 q 92 207 115 144 q 68 342 68 269 q 93 498 68 419 q 168 647 118 576 q 286 774 218 718 q 449 863 354 829 q 649 896 543 896 q 833 868 753 896 q 960 792 913 840 q 1033 683 1008 744 q 1057 551 1057 622 q 1030 394 1057 474 q 949 242 1003 314 q 824 113 896 169 q 655 23 753 57 q 450 -11 557 -11 m 658 872 q 510 848 582 872 q 379 783 438 824 q 272 688 321 743 q 190 572 224 633 q 139 444 157 510 q 121 318 121 379 q 206 101 121 186 q 461 17 290 17 q 637 51 553 17 q 783 140 721 85 q 893 267 846 196 q 965 415 940 338 q 989 565 989 492 q 969 684 989 629 q 911 781 950 739 q 808 848 872 824 q 658 872 743 872 m 833 314 q 839 307 839 313 q 827 276 839 296 q 806 244 815 256 q 667 162 758 192 q 489 132 575 132 q 305 197 367 132 q 243 363 243 263 q 291 545 243 456 q 435 698 339 635 q 651 761 532 761 q 775 719 744 761 q 783 751 783 739 q 796 768 783 768 q 804 765 801 768 q 807 758 807 763 q 804 738 807 749 q 797 713 801 726 q 790 693 792 700 q 799 639 799 674 q 774 592 794 592 q 762 593 767 592 q 753 597 757 594 q 749 604 750 600 q 747 614 747 608 q 748 628 747 621 q 751 644 749 636 q 754 657 753 653 q 760 672 756 661 q 764 685 764 683 q 642 732 735 732 q 501 699 567 732 q 392 615 435 667 q 326 500 350 563 q 301 376 301 438 q 354 227 301 286 q 510 168 407 168 q 808 294 671 168 q 833 314 826 317 z "},"":{"ha":457,"x_min":8,"x_max":475,"o":"m 461 514 q 449 502 460 513 q 431 486 438 492 q 410 469 424 481 q 388 450 397 457 q 364 433 378 443 q 340 419 350 424 q 318 410 329 414 q 297 406 307 406 q 263 440 268 406 q 308 656 263 499 q 42 399 122 399 q 8 449 8 399 q 47 622 8 513 q 140 819 85 731 q 238 907 196 907 l 242 907 l 257 918 q 296 932 269 932 q 354 921 317 932 q 396 910 392 910 q 410 921 401 910 q 432 932 419 932 q 467 901 467 932 q 462 874 467 889 q 448 838 457 858 q 438 814 439 818 q 424 806 436 811 q 411 796 413 800 q 357 612 381 710 q 333 492 333 514 q 353 457 333 457 q 401 481 372 457 q 450 528 429 504 q 472 551 471 551 q 475 546 475 551 q 461 514 475 525 m 369 883 q 341 886 361 883 q 307 889 321 889 q 265 883 288 889 q 151 719 231 874 q 72 488 72 564 q 86 464 72 464 q 190 549 115 464 q 288 669 264 633 q 351 790 322 725 q 381 875 381 854 q 374 883 381 883 l 369 883 z "},"":{"ha":583,"x_min":118,"x_max":513,"o":"m 513 606 q 456 510 513 596 q 375 393 399 425 q 511 207 511 233 q 499 189 511 189 q 496 189 497 189 l 485 194 q 446 241 468 218 q 408 276 424 264 q 361 313 393 289 q 317 347 329 338 q 313 356 313 351 q 381 469 313 371 q 478 599 450 567 q 504 614 489 614 q 513 606 513 614 m 318 606 q 261 510 318 596 q 181 393 204 425 q 315 207 315 225 q 303 189 315 189 q 301 189 303 189 l 290 194 q 251 241 274 218 q 213 276 228 264 q 166 313 199 288 q 122 347 133 338 q 118 356 118 351 q 185 466 118 371 q 282 599 251 561 q 308 614 293 614 q 318 606 318 614 z "},"":{"ha":828,"x_min":40,"x_max":794,"o":"m 597 315 q 636 314 610 315 q 675 313 663 313 l 715 314 l 736 317 l 758 321 q 769 317 765 321 q 774 318 772 317 l 778 318 q 794 301 794 318 q 776 190 794 261 q 756 115 757 119 q 743 51 747 85 q 731 43 738 43 q 717 57 719 43 q 742 290 722 211 l 683 286 q 586 274 614 282 q 525 261 536 261 q 486 260 511 257 l 435 264 q 385 274 408 265 q 336 269 360 269 l 281 269 q 260 268 267 269 l 236 265 q 208 265 229 264 q 182 264 188 267 q 64 244 146 250 q 56 247 58 244 l 54 247 q 40 260 43 249 q 51 275 40 268 l 158 279 q 300 293 251 279 q 331 301 317 300 l 361 306 q 394 300 378 306 q 458 306 421 301 q 531 313 496 310 q 597 315 567 315 z "},"":{"ha":401,"x_min":32,"x_max":361,"o":"m 219 213 q 274 215 238 213 q 339 217 310 217 q 360 210 360 217 q 343 197 360 203 q 231 178 310 186 q 93 169 153 169 q 65 169 78 169 q 60 169 64 169 q 53 169 56 169 q 32 186 32 169 q 47 214 32 200 q 74 233 61 228 q 85 238 79 236 q 94 241 90 240 q 101 242 97 242 q 106 240 104 242 q 109 238 108 239 q 110 233 110 236 q 108 226 110 231 q 103 218 106 221 q 219 213 189 213 z "},"":{"ha":886,"x_min":175,"x_max":656,"o":"m 361 440 q 222 489 269 440 q 175 611 175 538 q 256 799 175 718 q 457 881 339 881 q 569 857 524 881 q 635 797 615 833 q 656 713 656 760 q 620 587 656 649 q 516 483 585 525 q 361 440 447 440 m 494 510 q 500 510 497 510 q 506 511 503 511 q 510 511 508 511 q 514 510 513 511 q 590 606 563 549 q 618 719 618 664 q 579 825 618 783 q 461 867 540 867 q 390 855 425 867 q 328 824 356 843 q 276 778 300 804 q 237 722 253 751 q 212 661 221 693 q 203 600 203 629 q 244 496 203 536 q 367 456 285 456 q 503 500 440 456 q 479 499 497 499 q 416 533 454 499 q 347 613 378 568 l 336 631 q 317 524 317 557 q 313 515 317 519 q 299 510 310 511 q 288 515 288 510 q 289 525 288 518 q 292 540 290 532 q 294 549 294 547 q 321 644 299 572 q 313 663 310 660 q 325 667 315 665 q 369 790 339 714 q 390 839 374 818 q 415 844 396 846 q 422 839 422 842 q 410 815 411 822 q 429 815 415 815 q 453 813 443 814 q 477 810 464 811 q 500 805 490 808 q 519 796 510 801 q 533 781 528 790 q 538 760 538 772 q 535 742 538 751 q 476 668 522 690 q 369 646 429 646 q 366 646 368 646 q 363 646 364 646 q 361 635 350 646 q 380 612 367 628 q 402 584 393 596 q 425 558 411 572 q 450 533 439 543 q 473 517 461 524 q 494 510 485 510 m 508 736 q 513 756 513 747 q 503 781 513 771 q 477 795 494 790 q 444 801 460 800 q 404 804 429 803 l 403 804 q 346 661 376 764 q 376 658 360 658 q 457 678 418 658 q 508 736 496 697 z "},"":{"ha":317,"x_min":29,"x_max":303,"o":"m 303 597 q 289 587 303 590 q 267 583 275 583 l 65 583 q 39 585 47 583 q 31 592 31 588 q 72 615 31 606 q 138 622 104 622 q 267 611 181 622 q 303 597 303 603 z "},"":{"ha":393,"x_min":90,"x_max":329,"o":"m 294 648 q 311 630 294 648 q 329 564 329 613 q 294 480 329 515 q 210 444 258 444 q 126 480 161 444 q 90 564 90 515 q 126 648 90 613 q 210 683 161 683 q 294 648 258 683 m 272 501 q 285 515 272 501 q 299 564 299 528 q 272 626 299 600 q 210 653 246 653 q 147 626 174 653 q 121 564 121 600 q 147 501 121 528 q 210 475 174 475 q 272 501 246 475 z "},"":{"ha":526,"x_min":101,"x_max":554,"o":"m 543 392 q 554 381 554 385 q 520 368 554 372 q 431 361 486 364 q 347 354 375 358 q 272 160 326 274 q 249 125 256 125 q 243 131 244 125 q 242 146 242 136 q 247 183 242 175 q 296 357 300 346 q 167 356 296 356 q 142 356 151 356 q 133 356 133 356 q 129 365 129 360 q 134 379 129 372 q 149 391 139 386 q 169 397 158 396 l 307 394 q 333 470 308 399 q 361 557 357 542 q 365 563 363 560 q 370 569 367 567 q 378 575 374 572 q 386 580 382 578 q 394 583 390 582 q 401 585 399 585 q 408 583 406 585 q 413 576 411 581 q 360 393 413 529 q 408 394 363 393 q 482 396 454 396 q 543 392 533 396 m 378 71 q 394 71 382 71 q 419 69 407 71 q 431 64 431 67 q 326 40 431 54 q 156 25 222 25 q 125 26 136 25 q 121 26 124 26 q 115 25 117 25 q 106 31 110 25 q 103 42 103 36 q 106 58 103 50 q 115 73 110 67 q 128 83 121 79 q 143 88 136 88 q 149 69 156 88 q 190 69 163 69 q 250 67 218 68 q 307 67 282 67 q 378 69 356 67 l 378 71 z "},"":{"ha":760,"x_min":39,"x_max":676,"o":"m 190 454 q 153 433 176 450 q 106 402 131 415 q 58 389 82 389 q 39 403 39 389 q 54 431 39 414 q 89 457 69 447 q 140 472 106 465 q 196 478 174 478 q 200 478 197 478 q 461 639 385 581 q 558 730 522 688 q 603 829 593 772 q 604 843 604 836 q 543 893 604 893 q 481 883 517 893 q 269 775 350 850 q 253 778 258 764 q 258 792 253 786 q 421 894 329 853 q 599 935 513 935 q 676 869 676 935 q 594 719 676 804 q 465 608 544 665 q 222 468 378 546 q 352 436 263 464 q 499 408 442 408 q 568 422 540 408 q 596 460 596 435 q 544 508 596 492 q 540 518 535 513 q 553 521 544 524 q 624 457 624 503 q 585 399 624 421 q 494 376 546 376 q 329 414 439 376 q 298 426 321 417 q 262 439 275 435 q 228 448 249 443 q 190 454 208 453 z "},"":{"ha":844,"x_min":3,"x_max":603,"o":"m 444 738 q 578 632 578 725 q 454 455 578 525 q 197 385 331 385 q 56 413 110 385 q 3 500 3 442 q 64 603 3 564 q 197 642 125 642 q 208 635 207 642 q 194 625 204 628 q 101 590 146 625 q 56 501 56 554 q 95 431 56 456 q 200 407 135 407 q 426 467 324 407 q 528 629 528 528 q 492 693 528 674 q 404 713 457 713 q 357 709 381 713 q 315 700 333 706 q 299 696 306 696 q 282 711 282 696 q 285 724 282 718 q 294 733 288 729 q 307 738 300 738 q 472 771 401 738 q 526 813 507 786 q 546 867 546 839 q 531 897 546 885 q 488 908 517 908 q 454 904 472 908 q 290 836 360 885 q 283 833 286 833 q 278 843 278 833 q 294 875 278 867 q 358 924 325 890 q 367 928 363 928 q 372 922 371 928 q 368 910 374 915 l 361 903 q 525 943 460 943 q 582 928 561 943 q 603 879 603 913 q 549 791 603 835 q 444 738 496 747 z "},"":{"ha":493,"x_min":413,"x_max":649,"o":"m 640 775 q 563 717 610 756 q 481 651 517 678 q 421 619 444 625 q 419 619 419 619 q 417 619 418 619 q 414 620 415 619 q 413 622 413 621 q 599 822 413 647 q 607 828 603 826 q 615 829 611 829 q 638 817 628 829 q 649 792 649 804 q 647 782 649 786 q 640 775 644 778 z "},"":{"ha":463,"x_min":-43,"x_max":499,"o":"m 499 533 q 483 490 494 519 q 455 413 472 460 q 425 331 438 365 q 353 56 386 215 q 352 42 353 53 q 350 24 351 32 q 343 6 349 17 q 328 -12 338 -4 q 319 -19 324 -17 q 311 -24 315 -22 q 303 -28 307 -26 q 297 -31 300 -31 q 290 -33 293 -32 q 285 -33 288 -33 q 267 -18 267 -33 q 269 -7 267 -12 q 364 325 288 26 q 233 154 313 250 q 89 15 153 58 q 44 -10 63 -3 q 42 -21 42 -18 q 22 -128 32 -54 q 11 -271 11 -203 q 85 -446 11 -443 q 110 -462 110 -447 q 99 -479 110 -472 q 72 -486 89 -486 q 1 -451 26 -486 q -33 -375 -25 -417 q -39 -341 -36 -358 q -42 -306 -42 -324 q -43 -271 -43 -289 q -42 -228 -43 -250 q 75 188 -29 -47 q 129 329 119 300 q 133 353 133 343 q 130 365 133 358 q 126 376 126 371 q 129 390 126 382 q 158 486 144 447 q 194 522 167 507 q 243 536 221 536 q 267 524 264 536 q 183 310 196 349 q 107 118 157 235 q 100 94 100 101 q 104 89 101 90 q 138 111 111 89 q 382 411 276 218 q 394 471 394 460 q 401 492 394 481 q 417 513 407 504 q 438 530 426 522 q 462 542 450 538 q 482 546 474 546 q 499 533 497 546 z "},"":{"ha":575,"x_min":104,"x_max":447,"o":"m 340 703 q 334 481 336 575 q 330 243 332 388 q 328 -28 328 99 q 328 -65 328 -50 q 313 -81 328 -69 q 288 -92 297 -92 q 276 -78 276 -92 q 283 43 276 -54 q 290 178 289 140 q 297 336 290 185 q 303 532 303 488 q 303 543 303 539 q 239 529 268 529 q 140 581 175 529 q 104 703 104 632 q 108 744 104 724 q 118 783 111 764 q 135 820 125 803 q 158 852 144 838 q 188 877 171 867 q 225 893 204 888 q 268 899 246 899 q 281 899 275 899 q 294 897 288 899 q 347 876 317 893 q 376 842 376 860 q 368 832 376 833 q 352 833 360 831 q 343 833 344 836 q 340 703 340 800 m 406 960 q 431 938 414 960 q 447 899 447 917 q 446 888 447 893 q 443 881 444 882 l 442 878 q 429 403 433 699 q 424 -28 424 28 q 424 -65 424 -50 q 417 -74 424 -68 q 400 -86 410 -81 q 383 -92 390 -92 q 372 -78 372 -92 q 378 43 372 -54 q 386 178 385 140 q 390 314 389 268 q 393 435 392 360 q 395 575 394 511 q 396 703 396 639 q 395 758 396 726 q 394 814 394 789 q 394 870 394 839 q 393 926 393 901 q 394 937 393 932 q 395 946 394 942 q 397 953 396 950 q 399 957 397 956 q 401 959 400 958 q 406 960 403 960 z "},"":{"ha":379,"x_min":147,"x_max":242,"o":"m 222 401 q 207 376 222 386 q 175 367 192 367 q 149 411 149 367 q 149 424 149 417 q 165 458 149 440 q 201 485 182 475 q 233 496 221 496 q 242 492 240 496 q 232 440 242 475 q 222 401 222 404 z "},"":{"ha":311,"x_min":21,"x_max":240,"o":"m 240 -251 q 204 -330 240 -297 q 123 -376 168 -362 q 33 -389 78 -389 q 21 -374 21 -389 q 33 -362 21 -367 q 84 -354 51 -357 q 135 -348 117 -351 q 167 -324 153 -344 q 182 -267 182 -304 q 146 -197 182 -247 q 110 -118 110 -146 q 136 -34 110 -71 q 207 3 163 3 q 224 -7 222 3 q 177 -38 194 -12 q 160 -94 160 -64 q 200 -162 160 -111 q 240 -251 240 -212 z "},"":{"ha":615,"x_min":36,"x_max":465,"o":"m 176 454 q 304 464 235 464 q 313 451 317 464 q 300 442 310 442 q 264 440 282 442 q 226 434 246 439 q 192 426 206 429 q 156 414 179 422 q 123 402 132 406 q 87 388 114 399 q 53 375 60 378 q 50 375 51 375 q 41 383 44 375 q 38 399 38 390 q 44 414 38 411 q 135 446 108 440 q 244 645 161 490 q 356 851 328 800 q 232 793 297 817 q 221 794 225 790 q 218 805 217 799 q 226 813 219 811 q 394 919 290 839 l 400 929 q 439 944 410 944 q 451 943 446 944 q 460 939 457 942 q 464 932 464 936 q 463 925 464 929 l 176 454 z "},"":{"ha":363,"x_min":29,"x_max":421,"o":"m 394 788 q 421 772 421 783 q 400 751 421 761 q 363 740 379 740 q 278 463 363 578 q 110 347 193 347 q 29 464 29 347 q 35 528 29 496 q 60 621 42 564 q 107 744 78 678 q 178 858 136 811 q 264 904 221 904 l 274 904 q 285 938 274 924 q 315 951 296 951 q 350 870 335 950 q 394 788 365 790 m 324 751 q 293 801 311 758 q 268 843 275 843 q 168 716 225 843 q 97 515 111 589 q 92 457 92 483 q 131 389 92 389 q 255 502 186 389 q 324 751 324 615 z "},"":{"ha":583,"x_min":118,"x_max":535,"o":"m 535 438 q 466 324 535 422 q 369 194 397 226 q 343 179 357 179 q 335 188 335 179 q 391 281 335 197 q 472 400 447 365 q 336 586 336 560 q 349 604 339 603 q 351 604 350 604 l 363 599 q 402 553 379 575 q 439 518 425 531 q 486 480 453 506 q 531 446 519 454 q 535 438 535 442 m 318 438 q 249 324 318 422 q 153 194 181 226 q 126 179 140 179 q 118 188 118 179 q 174 281 118 197 q 256 400 231 365 q 119 586 119 560 q 119 592 119 589 q 121 597 119 594 q 124 601 122 599 q 127 603 125 603 q 132 604 129 604 q 135 604 133 604 l 146 599 q 185 553 163 575 q 222 518 208 531 q 269 480 236 506 q 314 446 303 454 q 318 438 318 442 z "},"":{"ha":1296,"x_min":36,"x_max":1217,"o":"m 853 49 l 871 51 q 871 61 871 56 q 879 107 871 81 q 902 160 888 133 q 926 203 917 186 q 947 235 936 219 q 836 253 883 253 q 671 214 775 253 l 665 213 q 651 220 657 213 q 646 238 646 228 q 665 264 646 258 l 714 276 q 1171 558 1104 469 q 1186 564 1175 564 q 1197 563 1192 564 q 1206 559 1201 561 q 1214 555 1211 557 q 1217 550 1217 553 q 1217 548 1217 549 q 1215 546 1217 547 q 1144 454 1192 514 q 1060 346 1097 394 q 993 251 1024 297 q 1099 231 1051 231 q 1129 236 1114 231 q 1156 256 1144 242 q 1168 292 1168 271 q 1167 308 1168 300 q 1172 319 1164 318 q 1186 311 1181 319 q 1203 264 1203 283 q 1094 210 1203 210 q 979 226 1051 210 q 956 190 975 219 q 925 140 938 161 q 902 94 913 119 q 893 56 892 69 q 1001 63 953 63 q 1010 50 1014 63 q 997 40 1007 40 q 963 38 981 40 q 933 35 946 36 q 900 27 921 33 q 872 19 879 21 q 840 8 864 17 q 812 -3 815 -1 q 779 -17 808 -4 l 750 -28 q 749 -28 750 -28 q 747 -28 749 -28 q 738 -20 742 -28 q 735 -4 735 -12 q 735 3 735 0 q 738 9 736 7 q 742 13 739 11 q 853 49 846 47 m 176 454 q 304 464 235 464 q 313 451 317 464 q 300 442 310 442 q 264 440 282 442 q 226 434 246 439 q 192 426 206 429 q 156 414 179 422 q 123 402 132 406 q 87 388 114 399 q 53 375 60 378 q 50 375 51 375 q 41 383 44 375 q 38 399 38 390 q 44 414 38 411 q 135 446 108 440 q 244 645 161 490 q 356 851 328 800 q 232 793 297 817 q 221 794 225 790 q 218 805 217 799 q 226 813 219 811 q 394 919 290 839 l 400 929 q 439 944 410 944 q 451 943 446 944 q 460 939 457 942 q 464 932 464 936 q 463 925 464 929 l 176 454 m 856 703 q 851 683 865 693 q 545 431 717 582 q 344 226 374 281 q 349 190 328 199 q 342 182 356 188 q 328 178 331 178 q 304 199 304 178 q 324 250 304 219 q 386 324 343 281 q 462 399 429 368 q 556 485 494 429 q 735 638 647 569 q 836 707 824 707 q 856 703 847 707 m 778 285 q 838 288 822 288 q 960 263 882 288 q 1008 335 963 267 q 1083 443 1054 404 l 1104 469 q 778 285 988 392 z "},"":{"ha":1410,"x_min":36,"x_max":1314,"o":"m 997 703 q 993 683 1007 693 q 687 431 858 582 q 486 226 515 281 q 490 190 469 199 q 483 182 497 188 q 469 178 472 178 q 446 199 446 178 q 465 250 446 219 q 528 324 485 281 q 603 399 571 368 q 697 485 636 429 q 877 638 789 569 q 978 707 965 707 q 997 703 989 707 m 176 454 q 304 464 235 464 q 313 451 317 464 q 300 442 310 442 q 264 440 282 442 q 226 434 246 439 q 192 426 206 429 q 156 414 179 422 q 123 402 132 406 q 87 388 114 399 q 53 375 60 378 q 50 375 51 375 q 41 383 44 375 q 38 399 38 390 q 44 414 38 411 q 135 446 108 440 q 244 645 161 490 q 356 851 328 800 q 232 793 297 817 q 221 794 225 790 q 218 805 217 799 q 226 813 219 811 q 394 919 290 839 l 400 929 q 439 944 410 944 q 451 943 446 944 q 460 939 457 942 q 464 932 464 936 q 463 925 464 929 l 176 454 m 828 60 q 767 22 817 56 q 696 -6 726 -4 q 676 8 676 -6 q 692 36 676 19 q 726 63 707 53 q 777 77 743 71 q 833 83 811 83 q 835 83 835 83 q 838 83 836 83 q 1099 244 1022 186 q 1195 335 1160 293 q 1240 435 1231 378 q 1241 442 1240 439 q 1242 449 1242 446 q 1181 499 1242 499 q 1151 496 1167 499 q 1118 489 1136 493 q 907 381 988 456 q 890 383 896 369 q 896 397 889 392 q 1058 499 967 458 q 1236 540 1150 540 q 1314 475 1314 540 q 1232 325 1314 410 q 1103 214 1182 271 q 860 74 1015 151 q 1006 38 896 71 q 1136 14 1082 14 q 1206 27 1178 14 q 1233 65 1233 40 q 1221 92 1233 79 q 1182 114 1208 106 q 1178 124 1172 118 q 1190 126 1182 129 q 1261 63 1261 108 q 1222 4 1261 26 q 1132 -18 1183 -18 q 967 19 1076 -18 q 935 31 958 22 q 899 44 913 40 q 866 53 886 49 q 828 60 846 58 z "},"":{"ha":1429,"x_min":3,"x_max":1356,"o":"m 992 49 l 1010 51 q 1010 61 1010 56 q 1018 107 1010 81 q 1041 160 1026 133 q 1065 203 1056 186 q 1086 235 1075 219 q 975 253 1022 253 q 810 214 914 253 q 804 213 807 213 q 790 220 796 213 q 785 238 785 228 q 804 264 785 258 l 853 276 q 1310 558 1243 469 q 1325 564 1314 564 q 1335 563 1331 564 q 1345 559 1340 561 q 1353 555 1350 557 q 1356 550 1356 553 q 1356 548 1356 549 q 1354 546 1356 547 q 1283 454 1331 514 q 1199 346 1236 394 q 1132 251 1163 297 q 1238 231 1190 231 q 1268 236 1253 231 q 1295 256 1283 242 q 1307 292 1307 271 q 1306 308 1307 300 q 1311 319 1303 318 q 1325 311 1319 319 q 1342 264 1342 283 q 1233 210 1342 210 q 1118 226 1190 210 q 1095 190 1114 219 q 1064 140 1076 161 q 1041 94 1051 119 q 1032 56 1031 69 q 1140 63 1092 63 q 1149 50 1153 63 q 1136 40 1146 40 q 1102 38 1119 40 q 1072 35 1085 36 q 1039 27 1060 33 q 1010 19 1018 21 q 978 8 1003 17 q 951 -3 954 -1 q 918 -17 947 -4 l 889 -28 q 888 -28 889 -28 q 886 -28 888 -28 q 877 -20 881 -28 q 874 -4 874 -12 q 874 3 874 0 q 876 9 875 7 q 881 13 878 11 q 992 49 985 47 m 444 738 q 578 632 578 725 q 454 455 578 525 q 197 385 331 385 q 56 413 110 385 q 3 500 3 442 q 64 603 3 564 q 197 642 125 642 q 208 635 207 642 q 194 625 204 628 q 101 590 146 625 q 56 501 56 554 q 95 431 56 456 q 200 407 135 407 q 426 467 324 407 q 528 629 528 528 q 492 693 528 674 q 404 713 457 713 q 357 709 381 713 q 315 700 333 706 q 299 696 306 696 q 282 711 282 696 q 285 724 282 718 q 294 733 288 729 q 307 738 300 738 q 472 771 401 738 q 526 813 507 786 q 546 867 546 839 q 531 897 546 885 q 488 908 517 908 q 454 904 472 908 q 290 836 360 885 q 283 833 286 833 q 278 843 278 833 q 294 875 278 867 q 358 924 325 890 q 367 928 363 928 q 372 922 371 928 q 368 910 374 915 l 361 903 q 525 943 460 943 q 582 928 561 943 q 603 879 603 913 q 549 791 603 835 q 444 738 496 747 m 1033 703 q 1029 683 1043 693 q 723 431 894 582 q 522 226 551 281 q 526 190 506 199 q 519 182 533 188 q 506 178 508 178 q 482 199 482 178 q 501 250 482 219 q 564 324 521 281 q 640 399 607 368 q 733 485 672 429 q 913 638 825 569 q 1014 707 1001 707 q 1033 703 1025 707 m 917 285 q 976 288 961 288 q 1099 263 1021 288 q 1147 335 1101 267 q 1222 443 1193 404 l 1243 469 q 917 285 1126 392 z "},"":{"ha":644,"x_min":-96,"x_max":542,"o":"m 540 343 q 506 294 539 317 q 450 271 472 271 q 439 275 443 271 q 455 326 442 292 q 468 364 468 361 l 468 365 q 517 399 476 392 l 518 400 q 542 365 542 400 q 540 343 542 363 m 389 -215 q 394 -203 389 -208 q 407 -195 400 -197 q 421 -193 414 -193 q 478 -222 451 -193 q 504 -290 504 -250 q 478 -362 504 -326 q 310 -486 424 -436 q 93 -536 197 -536 q -42 -500 11 -536 q -96 -389 -96 -464 q -84 -333 -96 -361 q -56 -280 -72 -304 q -7 -225 -40 -256 q 51 -173 26 -194 q 126 -117 76 -151 q 206 -64 176 -83 q 297 -6 236 -44 q 318 8 311 4 q 367 52 350 28 q 400 116 385 76 q 418 160 415 156 l 419 160 q 427 167 424 164 q 435 169 431 169 q 447 164 442 169 q 456 149 453 158 q 460 126 460 139 q 426 42 460 85 q 367 -3 415 28 q 251 -78 319 -35 q 142 -151 182 -121 q 35 -262 76 -200 q -6 -378 -6 -325 q 10 -431 -6 -408 q 59 -468 25 -454 q 144 -482 93 -482 q 284 -459 218 -482 q 392 -392 350 -436 q 433 -294 433 -349 q 433 -283 433 -289 q 419 -236 431 -250 q 399 -221 408 -222 q 389 -215 389 -219 z "},"":{"ha":853,"x_min":-1,"x_max":846,"o":"m 846 100 q 824 78 846 92 q 624 -89 711 24 q 611 -97 618 -97 q 597 -78 597 -97 q 619 -35 597 -62 q 657 6 640 -7 q 663 113 660 46 q 669 247 667 179 q 671 354 671 315 q 671 379 671 371 q 243 375 246 375 q 145 217 179 276 q 81 63 111 157 q 50 -122 50 -31 q 83 -231 50 -194 q 96 -250 96 -243 q 71 -258 96 -258 q 16 -205 33 -258 q -1 -104 -1 -151 q 52 128 -1 13 q 196 375 106 244 q 183 375 190 375 q 168 375 175 375 q 152 375 161 375 q 135 374 143 375 q 119 374 128 374 q 103 374 111 374 q 54 375 72 374 q 36 381 36 376 q 47 401 36 393 q 78 413 58 410 q 119 419 99 417 q 163 421 139 421 q 193 420 178 421 q 219 419 208 419 q 229 418 229 418 q 599 832 381 622 q 585 908 585 892 q 618 936 585 936 q 667 896 660 936 q 700 921 692 921 q 714 894 714 921 q 713 884 714 890 q 713 875 713 878 q 697 861 708 871 q 681 844 686 851 q 718 418 718 671 q 723 418 719 418 q 728 418 726 418 q 844 399 835 418 q 792 387 842 392 q 718 382 743 382 l 718 58 q 833 110 814 110 q 846 100 846 110 m 671 417 q 653 601 671 476 q 613 782 635 725 q 274 417 364 554 l 671 417 m 760 997 q 763 992 763 994 q 761 990 763 990 q 757 989 760 989 q 663 1026 738 989 q 513 1104 589 1063 q 500 1125 500 1111 q 503 1138 500 1131 q 510 1150 506 1144 q 522 1159 515 1156 q 534 1163 528 1163 q 544 1158 540 1163 q 624 1103 572 1136 q 711 1044 675 1071 q 760 997 747 1018 z "},"":{"ha":853,"x_min":-1,"x_max":846,"o":"m 846 100 q 824 78 846 92 q 624 -89 711 24 q 611 -97 618 -97 q 597 -78 597 -97 q 619 -35 597 -62 q 657 6 640 -7 q 663 113 660 46 q 669 247 667 179 q 671 354 671 315 q 671 379 671 371 q 243 375 246 375 q 145 217 179 276 q 81 63 111 157 q 50 -122 50 -31 q 83 -231 50 -194 q 96 -250 96 -243 q 71 -258 96 -258 q 16 -205 33 -258 q -1 -104 -1 -151 q 52 128 -1 13 q 196 375 106 244 q 183 375 190 375 q 168 375 175 375 q 152 375 161 375 q 135 374 143 375 q 119 374 128 374 q 103 374 111 374 q 54 375 72 374 q 36 381 36 376 q 47 401 36 393 q 78 413 58 410 q 119 419 99 417 q 163 421 139 421 q 193 420 178 421 q 219 419 208 419 q 229 418 229 418 q 599 832 381 622 q 585 908 585 892 q 618 936 585 936 q 667 896 660 936 q 700 921 692 921 q 714 894 714 921 q 713 884 714 890 q 713 875 713 878 q 697 861 708 871 q 681 844 686 851 q 718 418 718 671 q 723 418 719 418 q 728 418 726 418 q 844 399 835 418 q 792 387 842 392 q 718 382 743 382 l 718 58 q 833 110 814 110 q 846 100 846 110 m 671 417 q 653 601 671 476 q 613 782 635 725 q 274 417 364 554 l 671 417 m 829 1126 q 752 1068 799 1107 q 669 1003 706 1029 q 610 971 633 976 l 606 971 q 601 974 601 971 q 788 1174 601 999 q 804 1181 796 1181 q 814 1178 808 1181 q 824 1172 819 1176 q 831 1163 828 1168 q 835 1153 833 1158 q 838 1142 838 1147 q 835 1133 838 1138 q 829 1126 833 1129 z "},"":{"ha":853,"x_min":-1,"x_max":846,"o":"m 846 100 q 824 78 846 92 q 624 -89 711 24 q 611 -97 618 -97 q 597 -78 597 -97 q 619 -35 597 -62 q 657 6 640 -7 q 663 113 660 46 q 669 247 667 179 q 671 354 671 315 q 671 379 671 371 q 243 375 246 375 q 145 217 179 276 q 81 63 111 157 q 50 -122 50 -31 q 83 -231 50 -194 q 96 -250 96 -243 q 71 -258 96 -258 q 16 -205 33 -258 q -1 -104 -1 -151 q 52 128 -1 13 q 196 375 106 244 q 183 375 190 375 q 168 375 175 375 q 152 375 161 375 q 135 374 143 375 q 119 374 128 374 q 103 374 111 374 q 54 375 72 374 q 36 381 36 376 q 47 401 36 393 q 78 413 58 410 q 119 419 99 417 q 163 421 139 421 q 193 420 178 421 q 219 419 208 419 q 229 418 229 418 q 599 832 381 622 q 585 908 585 892 q 618 936 585 936 q 667 896 660 936 q 700 921 692 921 q 714 894 714 921 q 713 884 714 890 q 713 875 713 878 q 697 861 708 871 q 681 844 686 851 q 718 418 718 671 q 723 418 719 418 q 728 418 726 418 q 844 399 835 418 q 792 387 842 392 q 718 382 743 382 l 718 58 q 833 110 814 110 q 846 100 846 110 m 671 417 q 653 601 671 476 q 613 782 635 725 q 274 417 364 554 l 671 417 m 786 1010 q 730 1067 768 1025 q 678 1129 692 1108 q 600 1065 660 1113 q 528 1010 540 1017 q 521 1007 524 1007 q 517 1011 517 1007 q 518 1016 517 1013 q 522 1024 519 1019 q 610 1109 536 1040 q 696 1181 683 1178 q 743 1115 703 1178 q 796 1028 783 1051 q 797 1018 797 1024 q 797 1013 797 1015 q 794 1010 796 1011 q 790 1008 793 1008 q 789 1008 790 1008 q 786 1010 788 1008 z "},"":{"ha":853,"x_min":-1,"x_max":846,"o":"m 846 100 q 824 78 846 92 q 624 -89 711 24 q 611 -97 618 -97 q 597 -78 597 -97 q 619 -35 597 -62 q 657 6 640 -7 q 663 113 660 46 q 669 247 667 179 q 671 354 671 315 q 671 379 671 371 q 243 375 246 375 q 145 217 179 276 q 81 63 111 157 q 50 -122 50 -31 q 83 -231 50 -194 q 96 -250 96 -243 q 71 -258 96 -258 q 16 -205 33 -258 q -1 -104 -1 -151 q 52 128 -1 13 q 196 375 106 244 q 183 375 190 375 q 168 375 175 375 q 152 375 161 375 q 135 374 143 375 q 119 374 128 374 q 103 374 111 374 q 54 375 72 374 q 36 381 36 376 q 47 401 36 393 q 78 413 58 410 q 119 419 99 417 q 163 421 139 421 q 193 420 178 421 q 219 419 208 419 q 229 418 229 418 q 599 832 381 622 q 585 908 585 892 q 618 936 585 936 q 667 896 660 936 q 700 921 692 921 q 714 894 714 921 q 713 884 714 890 q 713 875 713 878 q 697 861 708 871 q 681 844 686 851 q 718 418 718 671 q 723 418 719 418 q 728 418 726 418 q 844 399 835 418 q 792 387 842 392 q 718 382 743 382 l 718 58 q 833 110 814 110 q 846 100 846 110 m 671 417 q 653 601 671 476 q 613 782 635 725 q 274 417 364 554 l 671 417 m 522 1032 q 519 1035 519 1032 q 542 1065 519 1044 q 579 1092 565 1085 q 629 1106 601 1106 q 696 1091 653 1106 q 761 1076 739 1076 q 819 1106 794 1076 q 828 1100 828 1106 q 808 1071 828 1090 q 772 1042 788 1051 q 735 1031 754 1031 q 665 1049 710 1031 q 597 1068 621 1068 q 551 1050 574 1068 q 522 1032 529 1032 z "},"":{"ha":853,"x_min":-1,"x_max":846,"o":"m 846 100 q 824 78 846 92 q 624 -89 711 24 q 611 -97 618 -97 q 597 -78 597 -97 q 619 -35 597 -62 q 657 6 640 -7 q 663 113 660 46 q 669 247 667 179 q 671 354 671 315 q 671 379 671 371 q 243 375 246 375 q 145 217 179 276 q 81 63 111 157 q 50 -122 50 -31 q 83 -231 50 -194 q 96 -250 96 -243 q 71 -258 96 -258 q 16 -205 33 -258 q -1 -104 -1 -151 q 52 128 -1 13 q 196 375 106 244 q 183 375 190 375 q 168 375 175 375 q 152 375 161 375 q 135 374 143 375 q 119 374 128 374 q 103 374 111 374 q 54 375 72 374 q 36 381 36 376 q 47 401 36 393 q 78 413 58 410 q 119 419 99 417 q 163 421 139 421 q 193 420 178 421 q 219 419 208 419 q 229 418 229 418 q 599 832 381 622 q 585 908 585 892 q 618 936 585 936 q 667 896 660 936 q 700 921 692 921 q 714 894 714 921 q 713 884 714 890 q 713 875 713 878 q 697 861 708 871 q 681 844 686 851 q 718 418 718 671 q 723 418 719 418 q 728 418 726 418 q 844 399 835 418 q 792 387 842 392 q 718 382 743 382 l 718 58 q 833 110 814 110 q 846 100 846 110 m 671 417 q 653 601 671 476 q 613 782 635 725 q 274 417 364 554 l 671 417 m 821 1063 q 806 1038 821 1047 q 774 1028 790 1028 q 747 1072 747 1028 q 747 1078 747 1075 q 747 1085 747 1082 q 758 1111 747 1097 q 781 1135 768 1125 q 808 1151 794 1144 q 832 1157 822 1157 q 840 1153 839 1157 q 831 1101 840 1136 q 821 1063 821 1065 m 610 1063 q 594 1038 610 1047 q 563 1028 579 1028 q 536 1072 536 1028 q 536 1085 536 1078 q 569 1133 538 1110 q 621 1157 600 1157 q 629 1153 628 1157 q 619 1101 629 1136 q 610 1063 610 1065 z "},"":{"ha":853,"x_min":-1,"x_max":846,"o":"m 792 1026 q 769 957 792 990 q 713 907 746 924 q 714 894 714 903 q 713 884 714 890 q 713 875 713 878 q 697 861 708 871 q 681 844 686 851 q 718 418 718 671 q 723 418 719 418 q 728 418 726 418 q 844 399 835 418 q 792 387 842 392 q 718 382 743 382 l 718 58 q 833 110 814 110 q 846 100 846 110 q 824 78 846 92 q 624 -89 711 24 q 611 -97 618 -97 q 597 -78 597 -97 q 619 -35 597 -62 q 657 6 640 -7 q 663 113 660 46 q 669 247 667 179 q 671 354 671 315 q 671 379 671 371 q 243 375 246 375 q 145 217 179 276 q 81 63 111 157 q 50 -122 50 -31 q 83 -231 50 -194 q 96 -250 96 -243 q 71 -258 96 -258 q 16 -205 33 -258 q -1 -104 -1 -151 q 52 128 -1 13 q 196 375 106 244 q 183 375 190 375 q 168 375 175 375 q 152 375 161 375 q 135 374 143 375 q 119 374 128 374 q 103 374 111 374 q 54 375 72 374 q 36 381 36 376 q 47 401 36 393 q 78 413 58 410 q 119 419 99 417 q 163 421 139 421 q 193 420 178 421 q 219 419 208 419 q 229 418 229 418 q 599 832 381 622 q 585 908 585 892 q 608 935 585 931 q 607 949 607 939 q 622 1011 607 976 q 661 1054 638 1046 q 732 1094 681 1094 q 775 1074 758 1094 q 792 1026 792 1054 m 671 417 q 653 601 671 476 q 613 782 635 725 q 274 417 364 554 l 671 417 m 728 1074 q 685 1055 707 1074 q 651 1010 664 1036 q 639 961 639 985 q 679 922 639 922 q 739 954 714 922 q 764 1026 764 986 q 728 1074 764 1074 z "},"":{"ha":1333,"x_min":-108,"x_max":1314,"o":"m 726 861 q 778 852 758 856 q 826 844 797 849 q 878 838 856 840 q 929 833 901 835 q 983 832 957 832 q 1063 835 1024 832 q 1139 842 1103 838 q 1193 856 1168 846 q 1232 876 1218 867 q 1249 885 1246 885 q 1267 875 1267 888 q 1213 817 1267 840 q 1117 789 1160 794 q 1067 783 1092 785 q 1017 782 1043 782 q 956 784 986 782 q 885 792 926 786 q 829 800 844 797 q 758 813 814 803 q 699 824 703 822 q 702 766 701 796 q 703 703 703 736 q 686 421 703 571 q 752 420 708 421 q 811 419 796 419 q 910 419 821 419 q 1033 418 999 418 q 1060 416 1047 418 q 1081 410 1072 414 q 1094 402 1089 407 q 1099 393 1099 397 q 1088 383 1099 388 q 1056 379 1076 379 q 679 374 926 379 l 632 61 q 767 19 676 50 q 934 -31 858 -12 q 1076 -50 1010 -50 q 1153 -43 1117 -50 q 1246 10 1206 -32 q 1286 110 1286 51 q 1286 117 1286 114 q 1285 123 1286 119 q 1285 131 1285 126 q 1259 192 1281 163 q 1236 229 1238 221 q 1238 250 1235 240 q 1251 260 1242 260 q 1274 235 1260 260 q 1299 185 1289 211 q 1311 147 1310 158 q 1314 114 1314 131 q 1260 -29 1314 28 q 1132 -100 1207 -86 q 1098 -105 1115 -103 q 1063 -107 1081 -107 q 816 -52 975 -107 q 601 13 657 3 q 564 10 586 6 q 565 18 564 15 q 513 21 538 21 q 446 15 478 21 q 388 -32 393 3 q 389 -43 388 -35 q 386 -53 389 -51 q 371 -40 376 -53 q 365 -15 365 -28 q 409 53 365 28 q 513 78 453 78 q 574 74 539 78 q 594 168 581 107 q 617 279 607 229 q 632 374 626 329 q 422 375 544 375 q 315 375 386 375 q 208 375 244 375 q 110 217 144 276 q 46 63 76 157 q 15 -122 15 -31 q 21 -172 15 -149 q 34 -208 26 -194 q 49 -232 42 -222 q 63 -247 57 -242 q 68 -256 68 -253 q 36 -258 68 -258 q -19 -205 -1 -258 q -36 -104 -36 -151 q 17 128 -36 13 q 161 375 71 244 q 140 375 153 375 q 117 375 128 375 q 93 374 107 375 q 68 374 79 374 q 42 374 54 374 q 21 376 31 375 q 6 378 11 376 q 1 381 1 379 q 13 401 1 393 q 44 413 24 410 q 84 419 64 417 q 128 421 104 421 q 151 420 139 421 q 172 419 164 419 q 187 419 181 419 q 194 418 193 418 q 391 645 271 521 q 601 840 511 769 q 536 849 599 840 q 418 858 478 854 q 303 861 358 861 q 164 853 221 861 q 8 794 79 840 q -62 668 -62 749 q -42 590 -62 617 q -33 578 -36 583 q -31 568 -31 572 q -34 562 -31 564 q -43 560 -37 560 q -78 583 -65 560 q -108 717 -108 640 q 131 904 -108 872 q 282 914 199 914 q 447 906 360 914 q 614 883 535 897 q 607 932 607 911 q 640 960 607 960 q 674 935 658 960 q 689 888 689 910 q 742 921 729 921 q 763 908 763 921 q 761 901 763 906 q 758 892 760 896 q 752 883 756 888 q 747 875 749 878 q 726 861 740 868 m 639 419 q 650 667 650 585 q 647 752 650 714 q 638 817 644 790 q 239 417 347 581 q 639 419 556 417 z "},"":{"ha":1046,"x_min":36,"x_max":1033,"o":"m 1028 193 q 1033 181 1033 193 q 1027 150 1033 168 q 1013 118 1021 132 q 997 97 1004 104 q 765 -47 911 10 q 486 -104 619 -104 q 456 -103 465 -104 q 425 -176 425 -129 q 465 -244 425 -193 q 506 -333 506 -294 q 469 -412 506 -379 q 388 -458 433 -444 q 299 -471 343 -471 q 286 -456 286 -471 q 299 -444 286 -449 q 349 -436 317 -439 q 400 -430 382 -433 q 433 -406 418 -426 q 447 -349 447 -386 q 411 -278 447 -329 q 375 -200 375 -228 q 414 -100 375 -135 q 133 19 229 -83 q 36 292 36 122 q 38 324 36 307 q 153 623 46 479 q 418 851 261 767 q 729 935 575 935 q 936 865 883 935 q 949 919 949 903 q 946 931 949 922 q 944 944 943 939 q 956 949 946 949 q 978 943 967 949 q 989 929 989 938 q 984 895 989 913 q 972 855 979 878 q 961 822 964 832 q 974 746 974 789 q 932 651 974 651 q 899 661 908 651 q 889 692 889 671 q 890 716 889 704 q 895 740 892 728 q 901 762 899 753 q 909 785 904 771 q 917 807 914 800 q 843 871 893 846 q 729 896 793 896 q 441 816 582 896 q 208 601 300 736 q 108 318 117 467 q 108 296 108 307 q 222 33 108 133 q 503 -68 335 -68 q 643 -54 576 -68 q 753 -22 710 -40 q 842 26 797 -4 q 907 75 886 56 q 957 124 928 94 q 990 157 986 153 q 1008 178 994 164 q 1028 193 1022 193 z "},"":{"ha":1299,"x_min":-35,"x_max":1340,"o":"m 613 404 q 603 404 608 404 q 595 404 599 404 q 586 404 592 404 q 577 404 581 404 q 569 405 574 404 q 561 406 564 406 q 555 408 558 407 q 549 412 551 410 q 546 417 547 414 q 544 424 544 419 q 554 447 544 435 q 575 458 564 458 q 601 458 588 458 q 659 458 621 458 q 714 457 697 457 q 763 601 731 504 q 811 746 794 697 q 271 850 456 850 q 192 844 231 850 q 109 824 153 839 q 38 780 65 810 q 11 707 11 750 q 70 572 11 642 q 200 456 129 503 q 330 369 271 410 q 389 317 389 329 q 383 313 389 313 q 296 347 361 313 q 177 420 232 381 q 72 511 122 460 q -6 627 22 563 q -35 761 -35 692 q 204 915 -35 915 q 824 782 442 915 q 830 804 825 788 q 839 832 835 821 q 850 857 843 843 q 867 878 857 871 q 888 885 876 885 q 936 857 914 885 q 958 803 958 829 q 950 789 958 789 q 925 801 940 789 q 907 814 910 814 q 886 796 896 814 q 874 764 876 778 q 1213 707 1040 707 q 1267 714 1242 707 q 1306 728 1292 721 q 1322 735 1319 735 q 1340 722 1340 735 q 1288 672 1340 688 q 1190 657 1235 657 q 1023 676 1119 657 q 863 725 926 696 q 821 606 856 703 q 769 457 786 510 q 875 455 779 457 q 1006 453 971 453 q 1047 447 1031 453 q 1063 432 1063 440 q 1014 417 1063 417 q 867 413 974 417 q 754 408 760 408 q 678 210 729 318 q 572 43 626 103 q 1042 -94 856 -94 q 1171 -55 1113 -94 q 1229 53 1229 -15 q 1207 117 1229 85 q 1185 158 1185 150 q 1207 186 1185 186 q 1245 150 1226 186 q 1264 63 1264 114 q 1187 -91 1264 -36 q 1007 -146 1110 -146 q 848 -119 939 -146 q 708 -72 757 -93 q 556 -3 660 -51 q 528 10 538 6 q 224 -104 406 -104 q 100 -78 154 -104 q 46 13 46 -51 q 96 116 46 76 q 213 156 146 156 q 531 63 328 156 q 699 406 599 151 q 661 405 692 406 q 613 404 631 404 m 499 25 q 342 76 439 53 q 186 100 246 100 q 93 43 93 100 q 131 -19 93 8 q 211 -56 168 -46 q 289 -67 254 -67 q 499 25 407 -67 m 1088 951 q 1090 946 1090 949 q 1089 944 1090 944 q 1085 943 1088 943 q 991 980 1065 943 q 840 1058 917 1017 q 828 1079 828 1065 q 831 1092 828 1085 q 838 1104 833 1099 q 849 1113 843 1110 q 862 1117 856 1117 q 872 1113 868 1117 q 951 1058 900 1090 q 1039 999 1003 1025 q 1088 951 1075 972 z "},"":{"ha":1299,"x_min":-35,"x_max":1340,"o":"m 613 404 q 603 404 608 404 q 595 404 599 404 q 586 404 592 404 q 577 404 581 404 q 569 405 574 404 q 561 406 564 406 q 555 408 558 407 q 549 412 551 410 q 546 417 547 414 q 544 424 544 419 q 554 447 544 435 q 575 458 564 458 q 601 458 588 458 q 659 458 621 458 q 714 457 697 457 q 763 601 731 504 q 811 746 794 697 q 271 850 456 850 q 192 844 231 850 q 109 824 153 839 q 38 780 65 810 q 11 707 11 750 q 70 572 11 642 q 200 456 129 503 q 330 369 271 410 q 389 317 389 329 q 383 313 389 313 q 296 347 361 313 q 177 420 232 381 q 72 511 122 460 q -6 627 22 563 q -35 761 -35 692 q 204 915 -35 915 q 824 782 442 915 q 830 804 825 788 q 839 832 835 821 q 850 857 843 843 q 867 878 857 871 q 888 885 876 885 q 936 857 914 885 q 958 803 958 829 q 950 789 958 789 q 925 801 940 789 q 907 814 910 814 q 886 796 896 814 q 874 764 876 778 q 1213 707 1040 707 q 1267 714 1242 707 q 1306 728 1292 721 q 1322 735 1319 735 q 1340 722 1340 735 q 1288 672 1340 688 q 1190 657 1235 657 q 1023 676 1119 657 q 863 725 926 696 q 821 606 856 703 q 769 457 786 510 q 875 455 779 457 q 1006 453 971 453 q 1047 447 1031 453 q 1063 432 1063 440 q 1014 417 1063 417 q 867 413 974 417 q 754 408 760 408 q 678 210 729 318 q 572 43 626 103 q 1042 -94 856 -94 q 1171 -55 1113 -94 q 1229 53 1229 -15 q 1207 117 1229 85 q 1185 158 1185 150 q 1207 186 1185 186 q 1245 150 1226 186 q 1264 63 1264 114 q 1187 -91 1264 -36 q 1007 -146 1110 -146 q 848 -119 939 -146 q 708 -72 757 -93 q 556 -3 660 -51 q 528 10 538 6 q 224 -104 406 -104 q 100 -78 154 -104 q 46 13 46 -51 q 96 116 46 76 q 213 156 146 156 q 531 63 328 156 q 699 406 599 151 q 661 405 692 406 q 613 404 631 404 m 499 25 q 342 76 439 53 q 186 100 246 100 q 93 43 93 100 q 131 -19 93 8 q 211 -56 168 -46 q 289 -67 254 -67 q 499 25 407 -67 m 1201 1106 q 1124 1047 1171 1086 q 1042 982 1078 1008 q 982 950 1006 956 l 978 950 q 974 953 974 950 q 1160 1153 974 978 q 1176 1160 1168 1160 q 1199 1147 1189 1160 q 1210 1122 1210 1135 q 1208 1113 1210 1117 q 1201 1106 1206 1108 z "},"":{"ha":1299,"x_min":-35,"x_max":1340,"o":"m 613 404 q 603 404 608 404 q 595 404 599 404 q 586 404 592 404 q 577 404 581 404 q 569 405 574 404 q 561 406 564 406 q 555 408 558 407 q 549 412 551 410 q 546 417 547 414 q 544 424 544 419 q 554 447 544 435 q 575 458 564 458 q 601 458 588 458 q 659 458 621 458 q 714 457 697 457 q 763 601 731 504 q 811 746 794 697 q 271 850 456 850 q 192 844 231 850 q 109 824 153 839 q 38 780 65 810 q 11 707 11 750 q 70 572 11 642 q 200 456 129 503 q 330 369 271 410 q 389 317 389 329 q 383 313 389 313 q 296 347 361 313 q 177 420 232 381 q 72 511 122 460 q -6 627 22 563 q -35 761 -35 692 q 204 915 -35 915 q 824 782 442 915 q 830 804 825 788 q 839 832 835 821 q 850 857 843 843 q 867 878 857 871 q 888 885 876 885 q 936 857 914 885 q 958 803 958 829 q 950 789 958 789 q 925 801 940 789 q 907 814 910 814 q 886 796 896 814 q 874 764 876 778 q 1213 707 1040 707 q 1267 714 1242 707 q 1306 728 1292 721 q 1322 735 1319 735 q 1340 722 1340 735 q 1288 672 1340 688 q 1190 657 1235 657 q 1023 676 1119 657 q 863 725 926 696 q 821 606 856 703 q 769 457 786 510 q 875 455 779 457 q 1006 453 971 453 q 1047 447 1031 453 q 1063 432 1063 440 q 1014 417 1063 417 q 867 413 974 417 q 754 408 760 408 q 678 210 729 318 q 572 43 626 103 q 1042 -94 856 -94 q 1171 -55 1113 -94 q 1229 53 1229 -15 q 1207 117 1229 85 q 1185 158 1185 150 q 1207 186 1185 186 q 1245 150 1226 186 q 1264 63 1264 114 q 1187 -91 1264 -36 q 1007 -146 1110 -146 q 848 -119 939 -146 q 708 -72 757 -93 q 556 -3 660 -51 q 528 10 538 6 q 224 -104 406 -104 q 100 -78 154 -104 q 46 13 46 -51 q 96 116 46 76 q 213 156 146 156 q 531 63 328 156 q 699 406 599 151 q 661 405 692 406 q 613 404 631 404 m 499 25 q 342 76 439 53 q 186 100 246 100 q 93 43 93 100 q 131 -19 93 8 q 211 -56 168 -46 q 289 -67 254 -67 q 499 25 407 -67 m 1157 967 q 1101 1024 1139 982 q 1049 1086 1063 1065 q 971 1022 1031 1069 q 899 967 911 974 q 892 964 894 964 q 888 968 888 964 q 893 981 888 972 q 981 1066 907 997 q 1067 1138 1054 1135 q 1114 1072 1074 1135 q 1167 985 1154 1008 q 1168 975 1168 981 q 1161 965 1167 967 q 1160 965 1161 965 q 1157 967 1158 965 z "},"":{"ha":1299,"x_min":-35,"x_max":1340,"o":"m 613 404 q 603 404 608 404 q 595 404 599 404 q 586 404 592 404 q 577 404 581 404 q 569 405 574 404 q 561 406 564 406 q 555 408 558 407 q 549 412 551 410 q 546 417 547 414 q 544 424 544 419 q 554 447 544 435 q 575 458 564 458 q 601 458 588 458 q 659 458 621 458 q 714 457 697 457 q 763 601 731 504 q 811 746 794 697 q 271 850 456 850 q 192 844 231 850 q 109 824 153 839 q 38 780 65 810 q 11 707 11 750 q 70 572 11 642 q 200 456 129 503 q 330 369 271 410 q 389 317 389 329 q 383 313 389 313 q 296 347 361 313 q 177 420 232 381 q 72 511 122 460 q -6 627 22 563 q -35 761 -35 692 q 204 915 -35 915 q 824 782 442 915 q 830 804 825 788 q 839 832 835 821 q 850 857 843 843 q 867 878 857 871 q 888 885 876 885 q 936 857 914 885 q 958 803 958 829 q 950 789 958 789 q 925 801 940 789 q 907 814 910 814 q 886 796 896 814 q 874 764 876 778 q 1213 707 1040 707 q 1267 714 1242 707 q 1306 728 1292 721 q 1322 735 1319 735 q 1340 722 1340 735 q 1288 672 1340 688 q 1190 657 1235 657 q 1023 676 1119 657 q 863 725 926 696 q 821 606 856 703 q 769 457 786 510 q 875 455 779 457 q 1006 453 971 453 q 1047 447 1031 453 q 1063 432 1063 440 q 1014 417 1063 417 q 867 413 974 417 q 754 408 760 408 q 678 210 729 318 q 572 43 626 103 q 1042 -94 856 -94 q 1171 -55 1113 -94 q 1229 53 1229 -15 q 1207 117 1229 85 q 1185 158 1185 150 q 1207 186 1185 186 q 1245 150 1226 186 q 1264 63 1264 114 q 1187 -91 1264 -36 q 1007 -146 1110 -146 q 848 -119 939 -146 q 708 -72 757 -93 q 556 -3 660 -51 q 528 10 538 6 q 224 -104 406 -104 q 100 -78 154 -104 q 46 13 46 -51 q 96 116 46 76 q 213 156 146 156 q 531 63 328 156 q 699 406 599 151 q 661 405 692 406 q 613 404 631 404 m 499 25 q 342 76 439 53 q 186 100 246 100 q 93 43 93 100 q 131 -19 93 8 q 211 -56 168 -46 q 289 -67 254 -67 q 499 25 407 -67 m 1213 1006 q 1197 981 1213 990 q 1165 971 1182 971 q 1139 1015 1139 971 q 1139 1020 1139 1018 q 1139 1024 1139 1022 q 1139 1028 1139 1026 q 1172 1076 1140 1053 q 1224 1100 1203 1100 q 1232 1096 1231 1100 q 1222 1044 1232 1079 q 1213 1006 1213 1008 m 1001 1006 q 986 981 1001 990 q 954 971 971 971 q 928 1015 928 971 q 928 1020 928 1018 q 928 1024 928 1022 q 928 1028 928 1026 q 938 1054 928 1040 q 962 1078 949 1068 q 989 1094 975 1088 q 1013 1100 1003 1100 q 1021 1096 1019 1100 q 1011 1044 1021 1079 q 1001 1006 1001 1008 z "},"":{"ha":636,"x_min":13,"x_max":825,"o":"m 575 815 q 498 829 571 815 q 392 843 425 843 q 324 833 353 843 q 278 805 294 824 q 261 761 261 786 q 326 643 261 708 q 334 634 331 639 q 340 624 338 629 q 342 617 342 619 q 341 613 342 614 q 338 613 340 613 q 300 638 328 613 q 225 771 225 707 q 276 858 225 825 q 414 892 328 892 q 452 890 432 892 q 493 885 472 889 q 556 872 500 883 q 667 853 613 861 q 757 844 721 844 q 808 857 799 844 q 817 863 813 861 q 825 851 825 863 q 823 842 825 847 q 815 828 821 836 q 801 814 810 821 q 774 799 790 804 q 733 794 757 794 q 629 807 706 794 q 596 691 626 800 q 543 517 565 582 q 482 347 521 451 q 396 161 443 243 q 296 21 349 79 q 539 -39 429 -39 q 622 0 622 -39 q 617 24 622 11 q 606 47 611 36 q 600 60 600 57 q 603 70 600 65 q 610 74 606 75 q 629 49 621 69 q 638 3 638 28 q 613 -65 638 -37 q 532 -93 588 -93 q 398 -71 479 -93 q 261 -24 317 -49 q 110 -81 197 -81 q 40 -65 68 -81 q 13 -19 13 -49 q 45 44 13 14 q 124 75 78 75 q 257 38 171 75 q 371 228 315 108 q 458 443 426 349 q 528 663 490 538 q 575 815 567 789 m 225 -7 q 160 17 204 3 q 82 31 115 31 q 35 -3 35 31 q 56 -45 35 -29 q 108 -61 76 -61 q 225 -7 171 -60 m 751 983 q 754 978 754 981 q 753 976 754 976 q 749 975 751 975 q 655 1012 729 975 q 504 1090 581 1049 q 492 1111 492 1097 q 494 1124 492 1117 q 502 1136 497 1131 q 513 1145 507 1142 q 526 1149 519 1149 q 536 1144 532 1149 q 615 1090 564 1122 q 703 1031 667 1057 q 751 983 739 1004 z "},"":{"ha":636,"x_min":13,"x_max":825,"o":"m 575 815 q 498 829 571 815 q 392 843 425 843 q 324 833 353 843 q 278 805 294 824 q 261 761 261 786 q 326 643 261 708 q 334 634 331 639 q 340 624 338 629 q 342 617 342 619 q 341 613 342 614 q 338 613 340 613 q 300 638 328 613 q 225 771 225 707 q 276 858 225 825 q 414 892 328 892 q 452 890 432 892 q 493 885 472 889 q 556 872 500 883 q 667 853 613 861 q 757 844 721 844 q 808 857 799 844 q 817 863 813 861 q 825 851 825 863 q 823 842 825 847 q 815 828 821 836 q 801 814 810 821 q 774 799 790 804 q 733 794 757 794 q 629 807 706 794 q 596 691 626 800 q 543 517 565 582 q 482 347 521 451 q 396 161 443 243 q 296 21 349 79 q 539 -39 429 -39 q 622 0 622 -39 q 617 24 622 11 q 606 47 611 36 q 600 60 600 57 q 603 70 600 65 q 610 74 606 75 q 629 49 621 69 q 638 3 638 28 q 613 -65 638 -37 q 532 -93 588 -93 q 398 -71 479 -93 q 261 -24 317 -49 q 110 -81 197 -81 q 40 -65 68 -81 q 13 -19 13 -49 q 45 44 13 14 q 124 75 78 75 q 257 38 171 75 q 371 228 315 108 q 458 443 426 349 q 528 663 490 538 q 575 815 567 789 m 225 -7 q 160 17 204 3 q 82 31 115 31 q 35 -3 35 31 q 56 -45 35 -29 q 108 -61 76 -61 q 225 -7 171 -60 m 803 1111 q 726 1053 772 1092 q 643 988 679 1014 q 583 956 607 961 l 579 956 q 575 958 575 956 q 761 1158 575 983 q 769 1164 765 1163 q 778 1165 774 1165 q 801 1153 790 1165 q 811 1128 811 1140 q 809 1118 811 1122 q 803 1111 807 1114 z "},"":{"ha":636,"x_min":13,"x_max":825,"o":"m 575 815 q 498 829 571 815 q 392 843 425 843 q 324 833 353 843 q 278 805 294 824 q 261 761 261 786 q 326 643 261 708 q 334 634 331 639 q 340 624 338 629 q 342 617 342 619 q 341 613 342 614 q 338 613 340 613 q 300 638 328 613 q 225 771 225 707 q 276 858 225 825 q 414 892 328 892 q 452 890 432 892 q 493 885 472 889 q 556 872 500 883 q 667 853 613 861 q 757 844 721 844 q 808 857 799 844 q 817 863 813 861 q 825 851 825 863 q 823 842 825 847 q 815 828 821 836 q 801 814 810 821 q 774 799 790 804 q 733 794 757 794 q 629 807 706 794 q 596 691 626 800 q 543 517 565 582 q 482 347 521 451 q 396 161 443 243 q 296 21 349 79 q 539 -39 429 -39 q 622 0 622 -39 q 617 24 622 11 q 606 47 611 36 q 600 60 600 57 q 603 70 600 65 q 610 74 606 75 q 629 49 621 69 q 638 3 638 28 q 613 -65 638 -37 q 532 -93 588 -93 q 398 -71 479 -93 q 261 -24 317 -49 q 110 -81 197 -81 q 40 -65 68 -81 q 13 -19 13 -49 q 45 44 13 14 q 124 75 78 75 q 257 38 171 75 q 371 228 315 108 q 458 443 426 349 q 528 663 490 538 q 575 815 567 789 m 225 -7 q 160 17 204 3 q 82 31 115 31 q 35 -3 35 31 q 56 -45 35 -29 q 108 -61 76 -61 q 225 -7 171 -60 m 775 992 q 719 1049 757 1007 q 667 1111 681 1090 q 589 1047 649 1094 q 517 992 529 999 q 510 989 513 989 q 506 993 506 989 q 507 998 506 994 q 511 1006 508 1001 q 599 1091 525 1022 q 685 1163 672 1160 q 732 1097 692 1160 q 785 1010 772 1033 q 786 1000 786 1006 q 785 995 786 997 q 783 992 785 993 q 779 990 782 990 q 778 990 779 990 q 775 992 776 990 z "},"":{"ha":636,"x_min":13,"x_max":825,"o":"m 575 815 q 498 829 571 815 q 392 843 425 843 q 324 833 353 843 q 278 805 294 824 q 261 761 261 786 q 326 643 261 708 q 334 634 331 639 q 340 624 338 629 q 342 617 342 619 q 341 613 342 614 q 338 613 340 613 q 300 638 328 613 q 225 771 225 707 q 276 858 225 825 q 414 892 328 892 q 452 890 432 892 q 493 885 472 889 q 556 872 500 883 q 667 853 613 861 q 757 844 721 844 q 808 857 799 844 q 817 863 813 861 q 825 851 825 863 q 823 842 825 847 q 815 828 821 836 q 801 814 810 821 q 774 799 790 804 q 733 794 757 794 q 629 807 706 794 q 596 691 626 800 q 543 517 565 582 q 482 347 521 451 q 396 161 443 243 q 296 21 349 79 q 539 -39 429 -39 q 622 0 622 -39 q 617 24 622 11 q 606 47 611 36 q 600 60 600 57 q 603 70 600 65 q 610 74 606 75 q 629 49 621 69 q 638 3 638 28 q 613 -65 638 -37 q 532 -93 588 -93 q 398 -71 479 -93 q 261 -24 317 -49 q 110 -81 197 -81 q 40 -65 68 -81 q 13 -19 13 -49 q 45 44 13 14 q 124 75 78 75 q 257 38 171 75 q 371 228 315 108 q 458 443 426 349 q 528 663 490 538 q 575 815 567 789 m 225 -7 q 160 17 204 3 q 82 31 115 31 q 35 -3 35 31 q 56 -45 35 -29 q 108 -61 76 -61 q 225 -7 171 -60 m 781 1040 q 765 1015 781 1025 q 733 1006 750 1006 q 707 1050 707 1006 q 707 1063 707 1056 q 717 1089 707 1075 q 741 1113 728 1103 q 768 1128 754 1122 q 792 1135 782 1135 q 800 1131 799 1135 q 790 1078 800 1114 q 781 1040 781 1043 m 569 1040 q 554 1015 569 1025 q 522 1006 539 1006 q 496 1050 496 1006 q 496 1063 496 1056 q 528 1111 497 1088 q 581 1135 560 1135 q 589 1131 588 1135 q 579 1078 589 1114 q 569 1040 569 1043 z "},"":{"ha":1076,"x_min":17,"x_max":1007,"o":"m 17 343 q 19 351 17 347 q 24 358 21 356 q 31 362 26 360 q 40 365 35 364 q 51 366 44 365 q 63 367 57 367 q 76 367 68 367 q 143 364 99 367 q 217 838 165 636 q 211 838 214 838 q 206 838 208 838 q 182 837 194 838 q 158 835 169 836 q 139 831 146 833 q 133 829 136 829 q 124 843 124 829 q 138 874 124 858 q 174 889 151 889 l 228 889 q 253 946 235 928 q 304 961 282 961 q 319 958 314 961 q 324 946 324 954 q 303 893 313 921 q 364 894 332 894 q 487 888 425 894 q 612 865 549 881 q 733 825 675 849 q 841 767 790 801 q 928 690 892 732 q 985 594 964 649 q 1007 478 1007 539 q 938 278 1007 376 q 749 116 871 185 q 507 17 628 47 q 283 -12 386 -12 q 129 42 136 -12 q 131 55 128 50 q 147 56 135 60 q 136 197 136 108 q 140 317 136 250 q 67 315 114 315 q 43 319 54 315 q 24 328 32 322 q 17 343 17 335 m 200 146 q 243 38 203 51 q 325 25 278 25 q 616 101 453 25 q 853 274 779 178 q 956 524 956 406 q 840 722 956 646 q 542 825 724 799 q 344 842 426 842 q 317 841 331 842 q 289 840 303 840 q 203 364 219 603 q 273 363 229 364 q 344 363 317 363 q 365 357 365 363 q 344 343 365 349 q 200 321 308 331 q 197 233 197 276 q 200 146 197 189 z "},"":{"ha":1342,"x_min":21,"x_max":1426,"o":"m 1417 626 q 1425 615 1425 619 q 1413 608 1422 610 q 1392 614 1401 608 q 1307 697 1358 629 q 1243 251 1290 425 q 1155 12 1199 88 q 1071 -64 1111 -64 q 986 22 1028 -64 q 915 229 944 107 q 869 485 886 351 q 851 719 851 619 q 860 744 851 733 q 879 754 869 754 q 897 743 890 754 q 906 710 904 732 q 926 492 914 599 q 959 264 939 385 q 1009 69 979 143 q 1074 -4 1039 -4 q 1215 274 1138 -4 q 1240 384 1229 321 q 1256 508 1250 447 q 1265 624 1263 569 q 1268 718 1268 678 q 1268 735 1268 728 q 1268 750 1268 743 q 1247 782 1254 771 q 1231 811 1240 793 q 1219 847 1222 829 q 1215 886 1215 865 q 1216 897 1215 892 q 1217 908 1217 903 q 1219 917 1218 913 q 1223 924 1221 921 q 1227 930 1225 928 q 1231 933 1229 932 q 1236 935 1233 935 q 1247 931 1242 935 q 1260 918 1253 926 q 1311 806 1275 900 q 1417 626 1374 642 m 22 154 q 28 199 22 179 q 40 219 33 219 q 54 182 51 219 q 60 138 54 165 q 78 76 67 111 q 111 4 90 40 q 158 -62 132 -32 q 222 -111 183 -92 q 304 -131 261 -131 q 315 -130 310 -131 q 324 -129 319 -129 q 438 -63 381 -124 q 541 80 496 -3 q 633 280 586 163 q 708 485 679 397 q 768 675 736 572 q 808 803 800 778 q 687 832 781 811 q 564 857 593 853 q 440 868 493 868 q 382 863 407 868 q 341 849 357 858 q 317 828 325 840 q 310 800 310 817 q 373 685 310 753 q 546 549 436 618 q 551 540 553 544 q 539 536 549 535 q 354 634 424 564 q 285 778 285 704 q 337 878 285 839 q 489 917 389 917 q 540 914 513 917 q 597 906 567 911 q 652 896 626 901 q 710 882 678 890 q 761 869 742 874 q 810 856 781 864 q 847 846 839 849 q 867 840 857 843 q 885 832 876 836 q 900 824 893 828 q 911 815 907 819 q 915 807 915 811 q 903 798 915 801 q 867 794 892 794 l 857 794 q 823 686 853 782 q 765 503 793 590 q 695 310 736 417 q 622 142 654 203 q 456 -92 543 -7 q 279 -178 368 -178 q 75 -42 171 -178 q 22 154 22 33 m 925 1003 q 923 1003 924 1003 q 922 1006 922 1004 q 945 1035 922 1015 q 982 1063 968 1056 q 1032 1076 1004 1076 q 1099 1062 1056 1076 q 1164 1047 1142 1047 q 1222 1076 1197 1047 q 1231 1071 1231 1076 q 1210 1042 1231 1061 q 1175 1013 1190 1022 q 1138 1001 1157 1001 q 1068 1020 1113 1001 q 1000 1039 1024 1039 q 954 1021 976 1039 q 925 1003 932 1003 z "},"":{"ha":1106,"x_min":10,"x_max":1094,"o":"m 689 950 q 797 896 797 950 q 760 822 797 865 q 1094 476 1094 778 q 1053 283 1094 375 q 944 124 1013 192 q 788 7 875 57 q 603 -68 700 -43 q 414 -93 507 -93 q 259 -72 331 -93 q 131 -7 188 -50 q 43 107 75 36 q 11 268 11 178 q 225 729 11 506 q 125 688 154 704 q 113 682 118 685 q 101 676 107 679 q 91 672 96 674 q 82 669 86 671 q 74 667 78 668 q 69 666 71 667 q 64 665 67 665 q 57 669 58 667 q 114 714 57 685 q 285 785 197 758 q 635 946 444 921 q 640 947 638 946 q 646 947 643 947 q 652 948 649 947 q 658 949 656 949 q 664 949 661 949 q 670 949 667 949 q 676 949 674 949 q 683 950 679 950 q 689 950 686 950 m 719 826 q 738 878 738 860 q 685 907 738 907 q 674 907 679 907 q 662 906 668 907 q 649 906 656 906 q 394 813 510 892 q 601 832 492 832 q 659 831 629 832 q 719 826 689 829 m 85 286 q 103 159 85 217 q 155 62 122 101 q 233 -5 188 22 q 331 -45 278 -32 q 443 -58 383 -58 q 607 -35 524 -58 q 766 35 690 -11 q 901 144 842 82 q 997 293 961 207 q 1032 475 1032 379 q 951 690 1032 600 q 742 793 869 779 q 707 754 732 781 q 624 681 682 728 q 515 608 567 635 q 438 578 451 578 q 433 579 433 578 q 510 643 433 593 q 699 796 618 715 q 632 797 667 797 q 475 787 553 797 q 326 760 397 776 q 144 526 204 649 q 85 286 85 403 m 838 1010 q 840 1004 840 1007 q 839 1002 840 1003 q 835 1001 838 1001 q 741 1038 815 1001 q 590 1117 667 1075 q 578 1138 578 1124 q 581 1150 578 1143 q 588 1163 583 1157 q 599 1172 593 1168 q 612 1175 606 1175 q 622 1171 618 1175 q 701 1116 650 1149 q 789 1057 753 1083 q 838 1010 825 1031 z "},"":{"ha":1106,"x_min":10,"x_max":1094,"o":"m 689 950 q 797 896 797 950 q 760 822 797 865 q 1094 476 1094 778 q 1053 283 1094 375 q 944 124 1013 192 q 788 7 875 57 q 603 -68 700 -43 q 414 -93 507 -93 q 259 -72 331 -93 q 131 -7 188 -50 q 43 107 75 36 q 11 268 11 178 q 225 729 11 506 q 125 688 154 704 q 113 682 118 685 q 101 676 107 679 q 91 672 96 674 q 82 669 86 671 q 74 667 78 668 q 69 666 71 667 q 64 665 67 665 q 57 669 58 667 q 114 714 57 685 q 285 785 197 758 q 635 946 444 921 q 640 947 638 946 q 646 947 643 947 q 652 948 649 947 q 658 949 656 949 q 664 949 661 949 q 670 949 667 949 q 676 949 674 949 q 683 950 679 950 q 689 950 686 950 m 719 826 q 738 878 738 860 q 685 907 738 907 q 674 907 679 907 q 662 906 668 907 q 649 906 656 906 q 394 813 510 892 q 601 832 492 832 q 659 831 629 832 q 719 826 689 829 m 85 286 q 103 159 85 217 q 155 62 122 101 q 233 -5 188 22 q 331 -45 278 -32 q 443 -58 383 -58 q 607 -35 524 -58 q 766 35 690 -11 q 901 144 842 82 q 997 293 961 207 q 1032 475 1032 379 q 951 690 1032 600 q 742 793 869 779 q 707 754 732 781 q 624 681 682 728 q 515 608 567 635 q 438 578 451 578 q 433 579 433 578 q 510 643 433 593 q 699 796 618 715 q 632 797 667 797 q 475 787 553 797 q 326 760 397 776 q 144 526 204 649 q 85 286 85 403 m 888 1126 q 810 1068 857 1107 q 728 1003 764 1029 q 668 971 692 976 l 664 971 q 660 974 660 971 q 846 1174 660 999 q 854 1179 850 1178 q 863 1181 858 1181 q 872 1178 867 1181 q 882 1172 878 1176 q 889 1163 886 1168 q 894 1153 892 1158 q 896 1142 896 1147 q 894 1133 896 1138 q 888 1126 892 1129 z "},"":{"ha":1106,"x_min":10,"x_max":1094,"o":"m 689 950 q 797 896 797 950 q 760 822 797 865 q 1094 476 1094 778 q 1053 283 1094 375 q 944 124 1013 192 q 788 7 875 57 q 603 -68 700 -43 q 414 -93 507 -93 q 259 -72 331 -93 q 131 -7 188 -50 q 43 107 75 36 q 11 268 11 178 q 225 729 11 506 q 125 688 154 704 q 113 682 118 685 q 101 676 107 679 q 91 672 96 674 q 82 669 86 671 q 74 667 78 668 q 69 666 71 667 q 64 665 67 665 q 57 669 58 667 q 114 714 57 685 q 285 785 197 758 q 635 946 444 921 q 640 947 638 946 q 646 947 643 947 q 652 948 649 947 q 658 949 656 949 q 664 949 661 949 q 670 949 667 949 q 676 949 674 949 q 683 950 679 950 q 689 950 686 950 m 719 826 q 738 878 738 860 q 685 907 738 907 q 674 907 679 907 q 662 906 668 907 q 649 906 656 906 q 394 813 510 892 q 601 832 492 832 q 659 831 629 832 q 719 826 689 829 m 85 286 q 103 159 85 217 q 155 62 122 101 q 233 -5 188 22 q 331 -45 278 -32 q 443 -58 383 -58 q 607 -35 524 -58 q 766 35 690 -11 q 901 144 842 82 q 997 293 961 207 q 1032 475 1032 379 q 951 690 1032 600 q 742 793 869 779 q 707 754 732 781 q 624 681 682 728 q 515 608 567 635 q 438 578 451 578 q 433 579 433 578 q 510 643 433 593 q 699 796 618 715 q 632 797 667 797 q 475 787 553 797 q 326 760 397 776 q 144 526 204 649 q 85 286 85 403 m 853 1006 q 797 1063 835 1021 q 744 1125 758 1104 q 667 1060 726 1108 q 594 1006 607 1013 q 588 1003 590 1003 q 583 1007 583 1003 q 585 1012 583 1008 q 589 1019 586 1015 q 676 1105 603 1036 q 763 1176 750 1174 q 810 1110 769 1174 q 863 1024 850 1047 q 864 1014 864 1019 q 857 1004 863 1006 q 856 1004 857 1004 q 853 1006 854 1004 z "},"":{"ha":1106,"x_min":10,"x_max":1094,"o":"m 689 950 q 797 896 797 950 q 760 822 797 865 q 1094 476 1094 778 q 1053 283 1094 375 q 944 124 1013 192 q 788 7 875 57 q 603 -68 700 -43 q 414 -93 507 -93 q 259 -72 331 -93 q 131 -7 188 -50 q 43 107 75 36 q 11 268 11 178 q 225 729 11 506 q 125 688 154 704 q 113 682 118 685 q 101 676 107 679 q 91 672 96 674 q 82 669 86 671 q 74 667 78 668 q 69 666 71 667 q 64 665 67 665 q 57 669 58 667 q 114 714 57 685 q 285 785 197 758 q 635 946 444 921 q 640 947 638 946 q 646 947 643 947 q 652 948 649 947 q 658 949 656 949 q 664 949 661 949 q 670 949 667 949 q 676 949 674 949 q 683 950 679 950 q 689 950 686 950 m 719 826 q 738 878 738 860 q 685 907 738 907 q 674 907 679 907 q 662 906 668 907 q 649 906 656 906 q 394 813 510 892 q 601 832 492 832 q 659 831 629 832 q 719 826 689 829 m 85 286 q 103 159 85 217 q 155 62 122 101 q 233 -5 188 22 q 331 -45 278 -32 q 443 -58 383 -58 q 607 -35 524 -58 q 766 35 690 -11 q 901 144 842 82 q 997 293 961 207 q 1032 475 1032 379 q 951 690 1032 600 q 742 793 869 779 q 707 754 732 781 q 624 681 682 728 q 515 608 567 635 q 438 578 451 578 q 433 579 433 578 q 510 643 433 593 q 699 796 618 715 q 632 797 667 797 q 475 787 553 797 q 326 760 397 776 q 144 526 204 649 q 85 286 85 403 m 499 1054 q 496 1057 496 1054 q 519 1087 496 1067 q 556 1114 542 1107 q 606 1128 578 1128 q 672 1113 629 1128 q 738 1099 715 1099 q 796 1128 771 1099 q 804 1122 804 1128 q 784 1093 804 1113 q 749 1064 764 1074 q 711 1053 731 1053 q 642 1072 686 1053 q 574 1090 597 1090 q 528 1072 550 1090 q 499 1054 506 1054 z "},"":{"ha":1106,"x_min":10,"x_max":1094,"o":"m 689 950 q 797 896 797 950 q 760 822 797 865 q 1094 476 1094 778 q 1053 283 1094 375 q 944 124 1013 192 q 788 7 875 57 q 603 -68 700 -43 q 414 -93 507 -93 q 259 -72 331 -93 q 131 -7 188 -50 q 43 107 75 36 q 11 268 11 178 q 225 729 11 506 q 125 688 154 704 q 113 682 118 685 q 101 676 107 679 q 91 672 96 674 q 82 669 86 671 q 74 667 78 668 q 69 666 71 667 q 64 665 67 665 q 57 669 58 667 q 114 714 57 685 q 285 785 197 758 q 635 946 444 921 q 640 947 638 946 q 646 947 643 947 q 652 948 649 947 q 658 949 656 949 q 664 949 661 949 q 670 949 667 949 q 676 949 674 949 q 683 950 679 950 q 689 950 686 950 m 719 826 q 738 878 738 860 q 685 907 738 907 q 674 907 679 907 q 662 906 668 907 q 649 906 656 906 q 394 813 510 892 q 601 832 492 832 q 659 831 629 832 q 719 826 689 829 m 85 286 q 103 159 85 217 q 155 62 122 101 q 233 -5 188 22 q 331 -45 278 -32 q 443 -58 383 -58 q 607 -35 524 -58 q 766 35 690 -11 q 901 144 842 82 q 997 293 961 207 q 1032 475 1032 379 q 951 690 1032 600 q 742 793 869 779 q 707 754 732 781 q 624 681 682 728 q 515 608 567 635 q 438 578 451 578 q 433 579 433 578 q 510 643 433 593 q 699 796 618 715 q 632 797 667 797 q 475 787 553 797 q 326 760 397 776 q 144 526 204 649 q 85 286 85 403 m 819 1065 q 804 1040 819 1050 q 772 1031 789 1031 q 746 1075 746 1031 q 746 1081 746 1078 q 746 1088 746 1085 q 756 1114 746 1100 q 780 1138 767 1128 q 807 1153 793 1147 q 831 1160 821 1160 q 839 1156 838 1160 q 829 1103 839 1139 q 819 1065 819 1068 m 608 1065 q 593 1040 608 1050 q 561 1031 578 1031 q 535 1075 535 1031 q 535 1088 535 1081 q 567 1136 536 1113 q 619 1160 599 1160 q 628 1156 626 1160 q 618 1103 628 1139 q 608 1065 608 1068 z "},"":{"ha":611,"x_min":126,"x_max":536,"o":"m 515 119 q 491 133 504 122 q 469 151 478 143 q 445 175 461 158 q 425 196 429 192 q 322 297 415 204 l 160 126 q 147 121 154 121 q 133 129 139 121 q 126 147 126 138 q 131 158 126 154 q 207 238 165 193 l 293 326 q 210 413 256 364 q 131 494 164 461 q 128 500 129 497 q 126 506 126 503 q 133 524 126 515 q 147 532 139 532 q 160 526 154 532 l 322 354 l 425 457 q 528 542 501 533 l 532 542 q 536 538 536 542 q 501 482 536 518 l 349 326 q 444 233 385 289 q 515 165 503 178 q 535 131 535 144 q 522 118 535 118 q 515 119 518 118 z "},"":{"ha":1086,"x_min":86,"x_max":1040,"o":"m 672 979 q 771 928 771 979 q 738 853 771 897 q 800 840 792 843 q 928 976 881 932 q 940 982 933 982 q 950 978 946 982 q 957 969 954 975 q 960 957 960 964 q 958 946 960 951 q 951 935 956 940 q 851 822 921 903 q 1040 515 1040 743 q 992 289 1040 393 q 864 117 943 185 q 686 13 785 50 q 483 -25 588 -25 q 269 21 358 -25 q 232 -60 240 -32 q 224 -104 224 -85 q 239 -139 224 -131 q 239 -151 244 -142 q 210 -165 228 -165 q 176 -121 176 -165 q 229 43 176 -58 q 86 344 86 143 q 133 567 86 457 q 271 763 179 678 q 185 721 201 732 l 175 718 q 169 719 172 718 q 165 724 167 721 q 163 731 163 726 q 175 746 163 740 q 324 817 267 796 q 629 976 461 949 q 672 979 653 979 m 825 790 q 527 409 678 615 q 293 63 376 203 q 493 8 374 8 q 660 43 576 8 q 815 140 744 78 q 931 299 886 201 q 976 511 976 397 q 935 676 976 601 q 825 790 894 750 m 351 790 q 201 601 250 714 q 153 364 153 488 q 256 92 153 189 q 531 497 318 200 q 776 813 647 663 q 724 825 751 821 q 714 815 718 819 q 706 808 710 811 q 699 803 701 806 q 693 801 696 801 q 689 800 690 800 q 684 801 686 800 q 682 806 682 803 q 694 828 682 817 q 638 829 667 829 q 351 790 493 829 m 714 857 q 726 904 726 886 q 674 938 726 938 q 642 936 660 938 q 510 901 578 929 q 396 838 442 874 q 600 863 474 863 q 714 857 658 863 z "},"":{"ha":1229,"x_min":19,"x_max":1331,"o":"m 504 -53 q 461 -34 476 -53 q 446 17 446 -15 q 451 63 446 38 q 467 121 456 88 q 485 176 478 154 q 512 240 493 199 q 537 296 531 282 q 564 354 543 310 q 585 399 585 399 q 602 435 586 403 q 628 488 618 467 q 656 547 639 508 q 685 615 674 585 q 709 681 697 646 q 727 747 721 717 q 733 803 733 778 q 713 855 733 842 q 639 868 692 868 q 382 794 513 868 q 165 598 251 721 q 78 346 78 475 q 103 249 78 286 q 182 211 129 211 q 291 233 240 211 q 369 282 342 256 q 416 331 396 308 q 440 353 436 353 q 446 340 444 353 q 358 229 432 281 q 183 178 285 178 q 68 225 117 178 q 19 361 19 272 q 83 583 19 478 q 243 756 146 688 q 451 863 340 824 q 660 903 561 903 q 799 797 799 903 q 781 703 799 758 q 744 604 764 647 q 672 450 725 561 q 651 406 658 421 q 638 377 649 401 q 616 331 626 353 q 591 278 606 310 q 565 217 576 246 q 543 158 554 189 q 526 101 532 128 q 521 57 521 75 q 553 14 521 14 q 581 20 564 14 q 621 40 597 26 q 674 76 644 54 q 1008 448 811 181 q 1244 829 1206 715 q 1296 856 1265 856 q 1321 842 1311 856 q 1331 799 1331 829 q 1221 542 1304 758 q 1110 229 1138 325 q 1068 33 1068 82 q 1103 -15 1068 -15 q 1203 42 1133 -15 q 1226 57 1219 57 q 1232 50 1232 57 q 1227 33 1232 43 q 1219 21 1222 22 q 1039 -81 1107 -81 q 999 -21 999 -81 q 1061 254 999 44 q 1203 646 1125 463 q 936 297 1104 485 q 658 24 768 108 q 571 -33 610 -14 q 504 -53 532 -53 m 1140 965 q 1143 960 1143 963 q 1142 958 1143 958 q 1138 957 1140 957 q 1044 994 1118 957 q 893 1072 969 1031 q 881 1093 881 1079 q 883 1106 881 1099 q 891 1118 886 1113 q 902 1127 896 1124 q 915 1131 908 1131 q 925 1126 921 1131 q 1004 1072 953 1104 q 1092 1013 1056 1039 q 1140 965 1128 986 z "},"":{"ha":1229,"x_min":19,"x_max":1331,"o":"m 504 -53 q 461 -34 476 -53 q 446 17 446 -15 q 451 63 446 38 q 467 121 456 88 q 485 176 478 154 q 512 240 493 199 q 537 296 531 282 q 564 354 543 310 q 585 399 585 399 q 602 435 586 403 q 628 488 618 467 q 656 547 639 508 q 685 615 674 585 q 709 681 697 646 q 727 747 721 717 q 733 803 733 778 q 713 855 733 842 q 639 868 692 868 q 382 794 513 868 q 165 598 251 721 q 78 346 78 475 q 103 249 78 286 q 182 211 129 211 q 291 233 240 211 q 369 282 342 256 q 416 331 396 308 q 440 353 436 353 q 446 340 444 353 q 358 229 432 281 q 183 178 285 178 q 68 225 117 178 q 19 361 19 272 q 83 583 19 478 q 243 756 146 688 q 451 863 340 824 q 660 903 561 903 q 799 797 799 903 q 781 703 799 758 q 744 604 764 647 q 672 450 725 561 q 651 406 658 421 q 638 377 649 401 q 616 331 626 353 q 591 278 606 310 q 565 217 576 246 q 543 158 554 189 q 526 101 532 128 q 521 57 521 75 q 553 14 521 14 q 581 20 564 14 q 621 40 597 26 q 674 76 644 54 q 1008 448 811 181 q 1244 829 1206 715 q 1296 856 1265 856 q 1321 842 1311 856 q 1331 799 1331 829 q 1221 542 1304 758 q 1110 229 1138 325 q 1068 33 1068 82 q 1103 -15 1068 -15 q 1203 42 1133 -15 q 1226 57 1219 57 q 1232 50 1232 57 q 1227 33 1232 43 q 1219 21 1222 22 q 1039 -81 1107 -81 q 999 -21 999 -81 q 1061 254 999 44 q 1203 646 1125 463 q 936 297 1104 485 q 658 24 768 108 q 571 -33 610 -14 q 504 -53 532 -53 m 1218 1118 q 1141 1060 1188 1099 q 1058 994 1094 1021 q 999 963 1022 968 l 994 963 q 990 965 990 963 q 1176 1165 990 990 q 1193 1172 1185 1172 q 1201 1171 1197 1172 q 1209 1167 1206 1169 q 1216 1160 1213 1164 q 1222 1151 1219 1156 q 1225 1143 1224 1147 q 1226 1135 1226 1139 q 1224 1125 1226 1129 q 1218 1118 1222 1121 z "},"":{"ha":1229,"x_min":19,"x_max":1331,"o":"m 504 -53 q 461 -34 476 -53 q 446 17 446 -15 q 451 63 446 38 q 467 121 456 88 q 485 176 478 154 q 512 240 493 199 q 537 296 531 282 q 564 354 543 310 q 585 399 585 399 q 602 435 586 403 q 628 488 618 467 q 656 547 639 508 q 685 615 674 585 q 709 681 697 646 q 727 747 721 717 q 733 803 733 778 q 713 855 733 842 q 639 868 692 868 q 382 794 513 868 q 165 598 251 721 q 78 346 78 475 q 103 249 78 286 q 182 211 129 211 q 291 233 240 211 q 369 282 342 256 q 416 331 396 308 q 440 353 436 353 q 446 340 444 353 q 358 229 432 281 q 183 178 285 178 q 68 225 117 178 q 19 361 19 272 q 83 583 19 478 q 243 756 146 688 q 451 863 340 824 q 660 903 561 903 q 799 797 799 903 q 781 703 799 758 q 744 604 764 647 q 672 450 725 561 q 651 406 658 421 q 638 377 649 401 q 616 331 626 353 q 591 278 606 310 q 565 217 576 246 q 543 158 554 189 q 526 101 532 128 q 521 57 521 75 q 553 14 521 14 q 581 20 564 14 q 621 40 597 26 q 674 76 644 54 q 1008 448 811 181 q 1244 829 1206 715 q 1296 856 1265 856 q 1321 842 1311 856 q 1331 799 1331 829 q 1221 542 1304 758 q 1110 229 1138 325 q 1068 33 1068 82 q 1103 -15 1068 -15 q 1203 42 1133 -15 q 1226 57 1219 57 q 1232 50 1232 57 q 1227 33 1232 43 q 1219 21 1222 22 q 1039 -81 1107 -81 q 999 -21 999 -81 q 1061 254 999 44 q 1203 646 1125 463 q 936 297 1104 485 q 658 24 768 108 q 571 -33 610 -14 q 504 -53 532 -53 m 1165 949 q 1109 1006 1147 964 q 1057 1068 1071 1047 q 979 1003 1039 1051 q 907 949 919 956 q 900 946 903 946 q 896 950 896 946 q 901 963 896 954 q 989 1048 915 979 q 1075 1119 1063 1117 q 1122 1053 1082 1117 q 1175 967 1163 990 q 1176 957 1176 963 q 1169 947 1175 949 l 1165 949 z "},"":{"ha":1229,"x_min":19,"x_max":1331,"o":"m 504 -53 q 461 -34 476 -53 q 446 17 446 -15 q 451 63 446 38 q 467 121 456 88 q 485 176 478 154 q 512 240 493 199 q 537 296 531 282 q 564 354 543 310 q 585 399 585 399 q 602 435 586 403 q 628 488 618 467 q 656 547 639 508 q 685 615 674 585 q 709 681 697 646 q 727 747 721 717 q 733 803 733 778 q 713 855 733 842 q 639 868 692 868 q 382 794 513 868 q 165 598 251 721 q 78 346 78 475 q 103 249 78 286 q 182 211 129 211 q 291 233 240 211 q 369 282 342 256 q 416 331 396 308 q 440 353 436 353 q 446 340 444 353 q 358 229 432 281 q 183 178 285 178 q 68 225 117 178 q 19 361 19 272 q 83 583 19 478 q 243 756 146 688 q 451 863 340 824 q 660 903 561 903 q 799 797 799 903 q 781 703 799 758 q 744 604 764 647 q 672 450 725 561 q 651 406 658 421 q 638 377 649 401 q 616 331 626 353 q 591 278 606 310 q 565 217 576 246 q 543 158 554 189 q 526 101 532 128 q 521 57 521 75 q 553 14 521 14 q 581 20 564 14 q 621 40 597 26 q 674 76 644 54 q 1008 448 811 181 q 1244 829 1206 715 q 1296 856 1265 856 q 1321 842 1311 856 q 1331 799 1331 829 q 1221 542 1304 758 q 1110 229 1138 325 q 1068 33 1068 82 q 1103 -15 1068 -15 q 1203 42 1133 -15 q 1226 57 1219 57 q 1232 50 1232 57 q 1227 33 1232 43 q 1219 21 1222 22 q 1039 -81 1107 -81 q 999 -21 999 -81 q 1061 254 999 44 q 1203 646 1125 463 q 936 297 1104 485 q 658 24 768 108 q 571 -33 610 -14 q 504 -53 532 -53 m 1189 1038 q 1174 1013 1189 1022 q 1142 1003 1158 1003 q 1115 1047 1115 1003 q 1115 1053 1115 1050 q 1115 1060 1115 1057 q 1126 1086 1115 1072 q 1149 1110 1136 1100 q 1176 1126 1163 1119 q 1200 1132 1190 1132 q 1208 1128 1207 1132 q 1199 1076 1208 1111 q 1189 1038 1189 1040 m 978 1038 q 963 1013 978 1022 q 931 1003 947 1003 q 904 1047 904 1003 q 904 1052 904 1050 q 904 1056 904 1054 q 904 1060 904 1058 q 915 1086 904 1072 q 938 1110 925 1100 q 965 1126 951 1119 q 989 1132 979 1132 q 997 1128 996 1132 q 988 1076 997 1111 q 978 1038 978 1040 z "},"":{"ha":1326,"x_min":60,"x_max":1419,"o":"m 1419 840 q 1293 406 1419 700 q 1058 -71 1167 111 q 955 -222 1014 -146 q 819 -378 896 -299 q 654 -506 743 -457 q 485 -556 565 -556 q 349 -512 410 -556 q 288 -399 288 -469 q 297 -332 288 -372 q 324 -287 307 -292 q 328 -292 326 -289 q 332 -298 331 -294 q 334 -306 333 -301 q 335 -315 335 -311 q 335 -325 335 -319 q 333 -354 335 -336 q 332 -376 332 -372 q 383 -472 332 -437 q 500 -506 435 -506 q 650 -459 572 -506 q 797 -336 728 -412 q 916 -193 867 -260 q 1008 -56 965 -126 q 1105 127 1058 25 q 1178 301 1151 229 q 1251 501 1206 372 q 1317 683 1296 629 q 1119 425 1265 597 q 800 97 972 253 q 549 -58 628 -58 q 504 3 504 -58 q 553 202 504 81 q 659 430 601 324 q 765 654 717 536 q 814 846 814 772 q 789 901 814 888 q 718 914 764 914 q 523 863 628 914 q 332 735 418 813 q 188 556 246 657 q 131 363 131 454 q 268 226 131 226 q 333 235 303 226 q 390 264 364 244 q 431 295 417 283 q 466 331 444 307 q 489 357 488 356 q 510 357 510 378 q 490 317 510 342 q 383 225 451 261 q 246 189 314 189 q 113 244 165 189 q 60 381 60 300 q 129 581 60 476 q 300 766 199 686 q 519 898 401 846 q 728 950 636 950 q 835 924 790 950 q 879 839 879 897 q 835 667 879 775 q 739 460 792 558 q 642 249 686 361 q 599 69 599 138 q 631 24 599 24 q 833 165 694 24 q 1078 447 971 307 q 1238 668 1186 588 q 1347 882 1289 749 q 1382 908 1358 908 q 1411 886 1403 908 q 1419 840 1419 864 m 1328 1122 q 1251 1064 1297 1103 q 1168 999 1204 1025 q 1108 967 1132 972 q 1106 967 1107 967 q 1104 967 1106 967 q 1100 969 1100 967 q 1286 1169 1100 994 q 1292 1174 1289 1172 q 1297 1176 1294 1175 q 1303 1176 1300 1176 q 1326 1164 1315 1176 q 1336 1139 1336 1151 q 1334 1129 1336 1133 q 1328 1122 1332 1125 z "},"":{"ha":414,"x_min":-90,"x_max":542,"o":"m 542 374 q 467 166 542 247 q 264 85 393 85 q 107 131 161 85 q 3 -215 54 24 q 1 -229 1 -222 q 7 -255 1 -240 q 13 -279 13 -269 q -3 -324 13 -297 q -10 -333 -6 -328 q -18 -340 -14 -337 q -28 -346 -22 -343 q -39 -350 -33 -349 q -50 -351 -44 -351 q -78 -339 -67 -351 q -89 -301 -89 -326 q 61 183 -89 -231 q 54 215 54 199 q 96 285 54 260 q 243 750 225 681 q 222 755 243 751 q 201 768 200 758 q 231 794 201 783 l 260 806 q 295 901 283 869 q 316 950 307 932 q 326 969 325 968 q 338 981 328 971 q 371 996 353 996 q 388 989 381 996 q 394 969 394 982 q 386 936 394 954 l 333 810 q 480 635 418 756 q 542 374 542 515 m 263 121 q 355 143 315 121 q 417 203 394 165 q 451 287 440 242 q 463 382 463 332 q 457 457 463 419 q 315 738 429 639 q 131 172 271 638 q 263 121 181 121 z "},"":{"ha":847,"x_min":-196,"x_max":783,"o":"m -87 -286 q -167 -261 -139 -286 q -196 -194 -196 -236 q -178 -144 -196 -153 q -165 -143 -171 -140 q -161 -160 -158 -146 q -162 -174 -162 -165 q -153 -215 -162 -194 q -119 -249 -142 -237 q -74 -260 -97 -260 q 61 -117 7 -260 q 163 190 100 -21 q 247 481 226 400 l 157 481 q 143 483 147 481 q 139 489 139 485 q 149 503 139 496 q 168 510 158 510 l 257 510 q 349 799 322 742 q 558 922 406 922 q 721 871 664 922 q 781 768 781 817 q 613 615 781 683 q 558 592 579 601 q 513 566 538 582 q 475 531 488 550 q 463 490 463 513 q 465 469 463 481 q 476 447 468 458 q 497 426 483 436 q 522 408 510 415 q 554 390 533 400 q 587 374 575 379 q 623 358 599 368 q 657 343 647 347 q 680 331 669 336 q 703 319 690 326 q 724 306 715 313 q 743 291 733 299 q 760 275 753 283 q 772 257 767 267 q 781 237 778 247 q 783 215 783 226 q 783 208 783 211 q 782 201 782 204 q 669 51 769 115 q 447 -14 569 -14 q 398 -8 419 -14 q 365 10 376 -1 q 349 33 354 21 q 343 60 343 46 q 353 92 343 81 q 386 104 363 104 q 392 99 390 104 q 395 82 393 93 q 401 64 397 71 q 503 24 426 24 q 509 24 506 24 q 517 24 513 24 q 644 60 586 24 q 714 161 701 97 q 715 179 715 169 q 642 278 715 236 q 556 321 624 289 q 453 379 489 353 q 410 438 418 406 q 407 451 408 444 q 405 463 406 457 q 404 475 404 469 q 444 561 404 522 q 579 632 483 600 q 682 685 639 651 q 725 760 725 718 q 675 847 725 803 q 549 893 621 893 q 476 876 510 893 q 422 824 442 858 q 306 481 376 744 q 161 -22 215 147 q 117 -131 142 -83 q 67 -207 92 -178 q 13 -254 42 -236 q -39 -279 -15 -272 q -87 -286 -62 -286 z "},"":{"ha":457,"x_min":8,"x_max":489,"o":"m 461 111 q 449 99 460 110 q 431 83 438 89 q 410 66 424 78 q 388 47 397 54 q 364 31 378 40 q 340 16 350 21 q 318 7 329 11 q 297 3 307 3 q 263 38 268 3 q 308 253 263 96 q 42 -4 122 -4 q 8 46 8 -4 q 47 219 8 110 q 140 416 85 328 q 238 504 196 504 l 242 504 l 257 515 q 296 529 269 529 q 354 518 317 529 q 396 507 392 507 q 410 518 401 507 q 432 529 419 529 q 467 499 467 529 q 462 471 467 486 q 448 435 457 456 q 438 411 439 415 q 424 403 436 408 q 411 393 413 397 q 357 209 381 307 q 333 89 333 111 q 353 54 333 54 q 401 78 372 54 q 450 125 429 101 q 472 149 471 149 q 475 143 475 149 q 461 111 475 122 m 369 481 q 341 483 361 481 q 307 486 321 486 q 265 481 288 486 q 151 316 231 471 q 72 85 72 161 q 86 61 72 61 q 190 146 115 61 q 288 267 264 231 q 351 387 322 322 q 381 472 381 451 q 374 481 381 481 l 369 481 m 486 643 q 488 640 488 642 q 489 638 489 639 q 483 635 486 635 q 239 750 447 635 q 226 771 226 757 q 229 783 226 776 q 237 796 232 790 q 248 805 242 801 q 260 808 254 808 q 271 804 267 808 q 350 749 299 782 q 438 690 401 717 q 486 643 474 664 z "},"":{"ha":457,"x_min":8,"x_max":554,"o":"m 461 111 q 449 99 460 110 q 431 83 438 89 q 410 66 424 78 q 388 47 397 54 q 364 31 378 40 q 340 16 350 21 q 318 7 329 11 q 297 3 307 3 q 263 38 268 3 q 308 253 263 96 q 42 -4 122 -4 q 8 46 8 -4 q 47 219 8 110 q 140 416 85 328 q 238 504 196 504 l 242 504 l 257 515 q 296 529 269 529 q 354 518 317 529 q 396 507 392 507 q 410 518 401 507 q 432 529 419 529 q 467 499 467 529 q 462 471 467 486 q 448 435 457 456 q 438 411 439 415 q 424 403 436 408 q 411 393 413 397 q 357 209 381 307 q 333 89 333 111 q 353 54 333 54 q 401 78 372 54 q 450 125 429 101 q 472 149 471 149 q 475 143 475 149 q 461 111 475 122 m 369 481 q 341 483 361 481 q 307 486 321 486 q 265 481 288 486 q 151 316 231 471 q 72 85 72 161 q 86 61 72 61 q 190 146 115 61 q 288 267 264 231 q 351 387 322 322 q 381 472 381 451 q 374 481 381 481 l 369 481 m 546 775 q 469 717 515 756 q 386 651 422 678 q 326 619 350 625 q 322 619 324 619 q 318 622 319 621 q 504 822 318 647 q 513 828 508 826 q 521 829 517 829 q 544 817 533 829 q 554 792 554 804 q 552 782 554 786 q 546 775 550 778 z "},"":{"ha":457,"x_min":8,"x_max":526,"o":"m 461 111 q 449 99 460 110 q 431 83 438 89 q 410 66 424 78 q 388 47 397 54 q 364 31 378 40 q 340 16 350 21 q 318 7 329 11 q 297 3 307 3 q 263 38 268 3 q 308 253 263 96 q 42 -4 122 -4 q 8 46 8 -4 q 47 219 8 110 q 140 416 85 328 q 238 504 196 504 l 242 504 l 257 515 q 296 529 269 529 q 354 518 317 529 q 396 507 392 507 q 410 518 401 507 q 432 529 419 529 q 467 499 467 529 q 462 471 467 486 q 448 435 457 456 q 438 411 439 415 q 424 403 436 408 q 411 393 413 397 q 357 209 381 307 q 333 89 333 111 q 353 54 333 54 q 401 78 372 54 q 450 125 429 101 q 472 149 471 149 q 475 143 475 149 q 461 111 475 122 m 369 481 q 341 483 361 481 q 307 486 321 486 q 265 481 288 486 q 151 316 231 471 q 72 85 72 161 q 86 61 72 61 q 190 146 115 61 q 288 267 264 231 q 351 387 322 322 q 381 472 381 451 q 374 481 381 481 l 369 481 m 514 651 q 458 708 496 667 q 406 771 419 750 q 328 706 388 754 q 256 651 268 658 q 249 649 251 649 q 245 650 246 649 q 244 653 244 651 q 250 665 244 657 q 338 751 264 682 q 424 822 411 819 q 471 756 431 819 q 524 669 511 693 q 525 660 525 665 q 518 650 525 650 q 514 651 517 650 z "},"":{"ha":457,"x_min":8,"x_max":550,"o":"m 461 111 q 449 99 460 110 q 431 83 438 89 q 410 66 424 78 q 388 47 397 54 q 364 31 378 40 q 340 16 350 21 q 318 7 329 11 q 297 3 307 3 q 263 38 268 3 q 308 253 263 96 q 42 -4 122 -4 q 8 46 8 -4 q 47 219 8 110 q 140 416 85 328 q 238 504 196 504 l 242 504 l 257 515 q 296 529 269 529 q 354 518 317 529 q 396 507 392 507 q 410 518 401 507 q 432 529 419 529 q 467 499 467 529 q 462 471 467 486 q 448 435 457 456 q 438 411 439 415 q 424 403 436 408 q 411 393 413 397 q 357 209 381 307 q 333 89 333 111 q 353 54 333 54 q 401 78 372 54 q 450 125 429 101 q 472 149 471 149 q 475 143 475 149 q 461 111 475 122 m 369 481 q 341 483 361 481 q 307 486 321 486 q 265 481 288 486 q 151 316 231 471 q 72 85 72 161 q 86 61 72 61 q 190 146 115 61 q 288 267 264 231 q 351 387 322 322 q 381 472 381 451 q 374 481 381 481 l 369 481 m 244 676 q 242 679 242 676 q 265 709 242 689 q 301 736 288 729 q 351 750 324 750 q 418 735 375 750 q 483 721 461 721 q 542 750 517 721 q 550 744 550 750 q 530 715 550 735 q 494 686 510 696 q 457 675 476 675 q 388 694 432 675 q 319 713 343 713 q 274 694 296 713 q 244 676 251 676 z "},"":{"ha":457,"x_min":8,"x_max":546,"o":"m 461 111 q 449 99 460 110 q 431 83 438 89 q 410 66 424 78 q 388 47 397 54 q 364 31 378 40 q 340 16 350 21 q 318 7 329 11 q 297 3 307 3 q 263 38 268 3 q 308 253 263 96 q 42 -4 122 -4 q 8 46 8 -4 q 47 219 8 110 q 140 416 85 328 q 238 504 196 504 l 242 504 l 257 515 q 296 529 269 529 q 354 518 317 529 q 396 507 392 507 q 410 518 401 507 q 432 529 419 529 q 467 499 467 529 q 462 471 467 486 q 448 435 457 456 q 438 411 439 415 q 424 403 436 408 q 411 393 413 397 q 357 209 381 307 q 333 89 333 111 q 353 54 333 54 q 401 78 372 54 q 450 125 429 101 q 472 149 471 149 q 475 143 475 149 q 461 111 475 122 m 369 481 q 341 483 361 481 q 307 486 321 486 q 265 481 288 486 q 151 316 231 471 q 72 85 72 161 q 86 61 72 61 q 190 146 115 61 q 288 267 264 231 q 351 387 322 322 q 381 472 381 451 q 374 481 381 481 l 369 481 m 526 707 q 519 689 526 697 q 500 676 511 681 q 479 672 489 672 q 453 717 453 672 q 453 729 453 722 q 485 778 454 754 q 538 801 517 801 q 546 797 544 801 q 536 745 546 781 q 526 707 526 710 m 315 707 q 300 682 315 692 q 268 672 285 672 q 242 717 242 672 q 242 729 242 722 q 274 778 243 754 q 326 801 306 801 q 335 797 333 801 q 325 745 335 781 q 315 707 315 710 z "},"":{"ha":457,"x_min":8,"x_max":506,"o":"m 461 111 q 449 99 460 110 q 431 83 438 89 q 410 66 424 78 q 388 47 397 54 q 364 31 378 40 q 340 16 350 21 q 318 7 329 11 q 297 3 307 3 q 263 38 268 3 q 308 253 263 96 q 42 -4 122 -4 q 8 46 8 -4 q 47 219 8 110 q 140 416 85 328 q 238 504 196 504 l 242 504 l 257 515 q 296 529 269 529 q 354 518 317 529 q 396 507 392 507 q 410 518 401 507 q 432 529 419 529 q 467 499 467 529 q 462 471 467 486 q 448 435 457 456 q 438 411 439 415 q 424 403 436 408 q 411 393 413 397 q 357 209 381 307 q 333 89 333 111 q 353 54 333 54 q 401 78 372 54 q 450 125 429 101 q 472 149 471 149 q 475 143 475 149 q 461 111 475 122 m 369 481 q 341 483 361 481 q 307 486 321 486 q 265 481 288 486 q 151 316 231 471 q 72 85 72 161 q 86 61 72 61 q 190 146 115 61 q 288 267 264 231 q 351 387 322 322 q 381 472 381 451 q 374 481 381 481 l 369 481 m 506 732 q 467 642 506 682 q 378 601 428 601 q 337 615 353 601 q 321 654 321 629 q 336 717 321 682 q 375 760 351 751 q 446 800 394 800 q 489 780 472 800 q 506 732 506 760 m 442 779 q 399 760 421 779 q 365 716 378 742 q 353 667 353 690 q 393 628 353 628 q 453 660 428 628 q 478 732 478 692 q 442 779 478 779 z "},"":{"ha":653,"x_min":7,"x_max":615,"o":"m 42 -4 q 8 46 10 4 q 47 219 8 110 q 140 417 85 329 q 238 504 196 504 q 240 504 239 504 q 242 504 240 504 l 257 515 q 296 529 269 529 q 353 519 317 529 q 396 508 390 508 q 400 511 400 508 q 413 520 404 511 q 432 529 421 529 q 465 506 463 529 q 522 513 486 513 q 540 517 532 517 q 581 494 563 517 q 606 432 599 471 q 614 364 614 388 q 604 325 614 338 q 528 276 575 289 q 429 264 481 264 q 410 265 421 264 q 393 265 400 265 q 382 265 386 265 q 379 265 381 265 q 346 162 358 210 q 333 82 333 114 q 375 26 333 26 q 430 51 400 26 q 497 120 460 75 q 535 165 535 165 q 546 174 540 174 q 550 142 563 174 q 470 47 526 99 q 374 -12 414 -4 q 367 -13 371 -12 q 360 -14 364 -14 q 297 8 326 -14 q 268 79 268 29 q 272 115 268 96 q 307 251 285 186 q 252 178 279 213 q 185 97 225 143 q 107 24 144 51 q 42 -4 69 -4 m 371 481 l 369 481 q 351 482 361 481 q 329 485 340 483 q 307 486 318 486 q 265 481 288 486 q 158 329 232 472 q 74 101 85 186 q 72 85 72 92 q 86 61 72 61 q 185 140 115 61 q 288 267 254 219 q 352 388 324 326 q 381 472 381 450 q 375 481 381 481 l 371 481 m 556 365 q 551 400 556 379 q 514 469 543 469 q 467 435 494 469 q 420 365 439 400 q 392 304 401 329 q 405 303 396 304 q 426 302 414 303 q 448 301 438 301 q 468 302 458 301 q 489 304 478 303 q 510 308 500 306 q 545 326 536 315 q 556 365 554 336 z "},"":{"ha":321,"x_min":-82,"x_max":367,"o":"m 367 456 q 353 403 367 426 q 325 381 340 381 q 308 406 308 381 q 314 436 308 414 q 319 468 319 458 q 296 490 319 490 q 244 467 279 490 q 190 426 208 444 q 114 274 164 399 q 64 82 64 150 q 104 31 64 31 q 207 70 156 31 q 290 151 258 110 q 324 192 322 192 q 331 182 331 189 q 263 78 331 149 q 121 -7 194 7 l 121 -8 q 74 -39 92 -14 q 57 -96 57 -64 q 97 -163 57 -112 q 138 -253 138 -214 q 101 -331 138 -299 q 20 -377 65 -364 q -69 -390 -25 -390 q -82 -375 -82 -390 q -69 -364 -82 -368 q -19 -356 -51 -358 q 32 -349 14 -353 q 65 -326 50 -346 q 79 -268 79 -306 q 43 -198 79 -249 q 7 -119 7 -147 q 22 -53 7 -85 q 64 -8 38 -22 q 6 88 6 6 q 68 318 6 183 q 176 474 131 453 q 222 494 197 482 q 263 514 246 507 q 301 521 281 521 q 367 456 367 521 z "},"":{"ha":351,"x_min":28,"x_max":389,"o":"m 365 432 q 374 363 374 389 q 353 310 374 332 q 299 280 332 289 q 239 267 265 271 q 189 264 213 264 q 158 265 175 264 q 139 265 140 265 q 93 82 93 149 q 135 26 93 26 q 203 63 164 26 q 271 137 242 100 q 306 174 300 174 q 315 163 315 174 q 239 55 315 124 q 119 -14 163 -14 q 56 8 85 -14 q 28 79 28 29 q 32 115 28 94 q 58 218 42 168 q 75 279 74 268 q 54 301 54 285 q 78 317 54 317 l 88 317 q 151 443 143 426 q 300 517 190 517 q 365 432 347 517 m 315 365 q 308 425 315 400 q 292 460 301 450 q 274 469 283 469 q 208 410 246 469 q 151 304 169 350 q 174 303 154 304 q 207 301 193 301 q 289 314 264 301 q 315 365 314 326 m 386 613 l 389 607 q 388 605 389 606 q 383 604 386 604 q 139 719 347 604 q 129 728 132 724 q 126 740 126 733 q 129 753 126 746 q 137 765 132 760 q 148 774 142 771 q 160 778 154 778 q 164 777 163 778 q 167 776 165 776 q 171 774 169 775 q 250 719 199 751 q 338 660 301 686 q 386 613 374 633 z "},"":{"ha":351,"x_min":28,"x_max":482,"o":"m 365 432 q 374 363 374 389 q 353 310 374 332 q 299 280 332 289 q 239 267 265 271 q 189 264 213 264 q 158 265 175 264 q 139 265 140 265 q 93 82 93 149 q 135 26 93 26 q 203 63 164 26 q 271 137 242 100 q 306 174 300 174 q 315 163 315 174 q 239 55 315 124 q 119 -14 163 -14 q 56 8 85 -14 q 28 79 28 29 q 32 115 28 94 q 58 218 42 168 q 75 279 74 268 q 54 301 54 285 q 78 317 54 317 l 88 317 q 151 443 143 426 q 300 517 190 517 q 365 432 347 517 m 315 365 q 308 425 315 400 q 292 460 301 450 q 274 469 283 469 q 208 410 246 469 q 151 304 169 350 q 174 303 154 304 q 207 301 193 301 q 289 314 264 301 q 315 365 314 326 m 474 739 q 397 681 443 719 q 314 615 350 642 q 254 583 278 589 q 250 583 251 583 q 246 586 247 585 q 432 786 246 611 q 440 792 436 790 q 449 793 444 793 q 472 781 461 793 q 482 756 482 768 q 480 746 482 750 q 474 739 478 742 z "},"":{"ha":351,"x_min":28,"x_max":458,"o":"m 365 432 q 374 363 374 389 q 353 310 374 332 q 299 280 332 289 q 239 267 265 271 q 189 264 213 264 q 158 265 175 264 q 139 265 140 265 q 93 82 93 149 q 135 26 93 26 q 203 63 164 26 q 271 137 242 100 q 306 174 300 174 q 315 163 315 174 q 239 55 315 124 q 119 -14 163 -14 q 56 8 85 -14 q 28 79 28 29 q 32 115 28 94 q 58 218 42 168 q 75 279 74 268 q 54 301 54 285 q 78 317 54 317 l 88 317 q 151 443 143 426 q 300 517 190 517 q 365 432 347 517 m 315 365 q 308 425 315 400 q 292 460 301 450 q 274 469 283 469 q 208 410 246 469 q 151 304 169 350 q 174 303 154 304 q 207 301 193 301 q 289 314 264 301 q 315 365 314 326 m 446 635 q 390 692 428 650 q 338 754 351 733 q 260 690 319 738 q 188 635 200 642 q 181 632 183 632 q 177 633 178 632 q 176 636 176 635 q 182 649 176 640 q 269 734 196 665 q 356 806 343 803 q 403 740 363 803 q 456 653 443 676 q 457 643 457 649 q 450 633 457 633 q 446 635 449 633 z "},"":{"ha":351,"x_min":28,"x_max":465,"o":"m 365 432 q 374 363 374 389 q 353 310 374 332 q 299 280 332 289 q 239 267 265 271 q 189 264 213 264 q 158 265 175 264 q 139 265 140 265 q 93 82 93 149 q 135 26 93 26 q 203 63 164 26 q 271 137 242 100 q 306 174 300 174 q 315 163 315 174 q 239 55 315 124 q 119 -14 163 -14 q 56 8 85 -14 q 28 79 28 29 q 32 115 28 94 q 58 218 42 168 q 75 279 74 268 q 54 301 54 285 q 78 317 54 317 l 88 317 q 151 443 143 426 q 300 517 190 517 q 365 432 347 517 m 315 365 q 308 425 315 400 q 292 460 301 450 q 274 469 283 469 q 208 410 246 469 q 151 304 169 350 q 174 303 154 304 q 207 301 193 301 q 289 314 264 301 q 315 365 314 326 m 446 656 q 438 638 446 646 q 419 625 431 629 q 399 621 408 621 q 372 665 372 621 q 372 678 372 671 q 405 726 374 703 q 457 750 436 750 q 465 746 464 750 q 456 694 465 729 q 446 656 446 658 m 235 656 q 219 631 235 640 q 188 621 204 621 q 161 665 161 621 q 161 678 161 671 q 194 726 163 703 q 246 750 225 750 q 254 746 253 750 q 244 694 254 729 q 235 656 235 658 z "},"":{"ha":233,"x_min":24,"x_max":351,"o":"m 275 526 q 256 492 272 522 q 229 439 240 461 q 199 374 218 417 q 164 292 179 331 q 132 199 149 253 q 103 90 115 144 q 101 79 101 83 q 105 67 101 71 q 115 63 108 63 q 164 85 132 63 q 181 96 172 92 q 196 103 189 100 q 208 106 203 106 q 215 103 213 106 q 219 99 218 101 q 205 78 219 90 q 165 51 190 67 q 126 24 139 35 q 51 -8 88 -8 q 38 -6 43 -8 q 28 2 32 -4 q 25 17 25 8 q 31 46 25 29 q 125 332 63 139 q 129 347 128 342 q 131 357 131 353 q 128 367 131 363 q 126 376 126 372 q 127 383 126 379 q 131 393 128 388 q 169 489 156 463 q 192 515 176 503 q 224 533 207 526 q 254 539 240 539 q 268 535 263 539 q 275 526 274 532 m 349 651 q 351 646 351 649 q 346 643 349 643 q 101 758 310 643 q 92 767 94 763 q 89 779 89 772 q 100 804 89 792 q 122 817 111 817 q 126 816 125 817 q 130 815 128 815 q 133 813 132 814 q 213 758 161 790 q 300 699 264 725 q 349 651 336 672 z "},"":{"ha":233,"x_min":24,"x_max":449,"o":"m 275 526 q 256 492 272 522 q 229 439 240 461 q 199 374 218 417 q 164 292 179 331 q 132 199 149 253 q 103 90 115 144 q 101 79 101 83 q 105 67 101 71 q 115 63 108 63 q 164 85 132 63 q 181 96 172 92 q 196 103 189 100 q 208 106 203 106 q 215 103 213 106 q 219 99 218 101 q 205 78 219 90 q 165 51 190 67 q 126 24 139 35 q 51 -8 88 -8 q 38 -6 43 -8 q 28 2 32 -4 q 25 17 25 8 q 31 46 25 29 q 125 332 63 139 q 129 347 128 342 q 131 357 131 353 q 128 367 131 363 q 126 376 126 372 q 127 383 126 379 q 131 393 128 388 q 169 489 156 463 q 192 515 176 503 q 224 533 207 526 q 254 539 240 539 q 268 535 263 539 q 275 526 274 532 m 440 783 q 363 725 410 764 q 281 660 317 686 q 221 628 244 633 q 217 628 218 628 q 213 631 214 629 q 399 831 213 656 q 407 836 403 835 q 415 838 411 838 q 438 825 428 838 q 449 800 449 813 q 447 790 449 794 q 440 783 444 786 z "},"":{"ha":233,"x_min":24,"x_max":403,"o":"m 275 526 q 256 492 272 522 q 229 439 240 461 q 199 374 218 417 q 164 292 179 331 q 132 199 149 253 q 103 90 115 144 q 101 79 101 83 q 105 67 101 71 q 115 63 108 63 q 164 85 132 63 q 181 96 172 92 q 196 103 189 100 q 208 106 203 106 q 215 103 213 106 q 219 99 218 101 q 205 78 219 90 q 165 51 190 67 q 126 24 139 35 q 51 -8 88 -8 q 38 -6 43 -8 q 28 2 32 -4 q 25 17 25 8 q 31 46 25 29 q 125 332 63 139 q 129 347 128 342 q 131 357 131 353 q 128 367 131 363 q 126 376 126 372 q 127 383 126 379 q 131 393 128 388 q 169 489 156 463 q 192 515 176 503 q 224 533 207 526 q 254 539 240 539 q 268 535 263 539 q 275 526 274 532 m 390 633 q 334 690 372 649 q 282 753 296 732 q 204 688 264 736 q 132 633 144 640 q 125 631 128 631 q 122 632 122 631 q 121 635 121 633 q 122 640 121 636 q 126 647 124 643 q 214 733 140 664 q 300 804 288 801 q 347 738 307 801 q 400 651 388 675 q 401 642 401 647 q 394 632 401 632 q 390 633 393 632 z "},"":{"ha":233,"x_min":24,"x_max":424,"o":"m 275 526 q 256 492 272 522 q 229 439 240 461 q 199 374 218 417 q 164 292 179 331 q 132 199 149 253 q 103 90 115 144 q 101 79 101 83 q 105 67 101 71 q 115 63 108 63 q 164 85 132 63 q 181 96 172 92 q 196 103 189 100 q 208 106 203 106 q 215 103 213 106 q 219 99 218 101 q 205 78 219 90 q 165 51 190 67 q 126 24 139 35 q 51 -8 88 -8 q 38 -6 43 -8 q 28 2 32 -4 q 25 17 25 8 q 31 46 25 29 q 125 332 63 139 q 129 347 128 342 q 131 357 131 353 q 128 367 131 363 q 126 376 126 372 q 127 383 126 379 q 131 393 128 388 q 169 489 156 463 q 192 515 176 503 q 224 533 207 526 q 254 539 240 539 q 268 535 263 539 q 275 526 274 532 m 404 690 q 397 672 404 681 q 378 660 389 664 q 356 656 367 656 q 340 663 346 656 q 332 680 333 671 q 331 700 331 689 q 331 713 331 706 q 363 761 332 738 q 415 785 394 785 q 424 781 422 785 q 414 728 424 764 q 404 690 404 693 m 193 690 q 178 665 193 675 q 146 656 163 656 q 119 700 119 656 q 119 713 119 706 q 152 761 121 738 q 204 785 183 785 q 213 781 211 785 q 203 728 213 764 q 193 690 193 693 z "},"":{"ha":431,"x_min":28,"x_max":406,"o":"m 282 751 q 365 400 365 583 q 269 90 365 214 q 237 53 254 71 q 202 23 219 36 q 168 1 185 10 q 135 -13 151 -8 q 104 -18 118 -18 q 49 9 69 -18 q 29 90 29 36 q 35 154 29 119 q 69 281 43 204 q 144 437 94 357 q 247 529 194 517 q 281 532 263 532 q 311 528 300 532 q 231 725 308 586 q 121 675 165 693 l 107 671 q 93 685 93 671 q 111 713 93 700 q 210 761 136 729 q 128 865 163 836 q 117 889 117 875 q 127 914 117 903 q 151 925 138 925 q 188 903 171 925 q 265 786 233 843 q 333 814 292 797 q 383 835 374 831 q 400 839 394 839 q 406 836 404 838 q 400 828 406 833 q 386 815 394 822 q 282 751 347 786 m 324 378 q 324 387 324 383 q 324 394 324 390 q 324 403 324 399 q 317 452 324 435 q 288 469 310 469 q 283 469 285 469 q 278 468 281 468 q 273 469 275 469 q 268 469 271 469 q 199 401 239 469 q 133 258 160 332 q 97 142 106 183 q 93 110 94 125 q 92 83 92 96 q 131 15 92 15 q 188 45 156 15 q 251 123 221 75 q 303 240 282 171 q 324 378 324 308 z "},"":{"ha":453,"x_min":-4,"x_max":521,"o":"m 500 517 q 368 246 429 399 q 307 17 307 93 q 318 -8 307 -8 q 345 6 322 -8 q 372 19 368 19 q 381 11 381 19 q 350 -26 381 -6 q 289 -47 319 -47 q 249 13 249 -47 q 271 139 249 67 q 340 324 293 211 q 388 438 388 436 q 394 465 394 456 q 390 472 394 472 q 360 447 383 472 q 189 219 300 381 q 75 21 78 58 q 49 -6 74 11 q 7 -24 24 -24 q -4 -14 -3 -24 q 48 125 -1 -18 q 118 332 97 268 q 124 357 124 349 q 122 367 124 363 q 119 375 119 372 q 124 393 119 381 q 178 510 156 482 q 246 539 200 539 q 267 526 264 539 q 131 193 153 293 q 482 563 360 563 q 510 544 510 563 q 500 517 510 532 m 215 679 q 213 682 213 679 q 235 712 213 692 q 272 739 258 732 q 322 753 294 753 q 389 738 346 753 q 454 724 432 724 q 513 753 488 724 q 521 747 521 753 q 501 718 521 738 q 465 689 481 699 q 428 678 447 678 q 358 697 403 678 q 290 715 314 715 q 244 697 267 715 q 215 679 222 679 z "},"":{"ha":363,"x_min":29,"x_max":438,"o":"m 394 414 q 421 399 421 410 q 400 377 421 388 q 363 367 379 367 q 278 89 363 204 q 110 -26 193 -26 q 29 90 29 -26 q 35 154 29 122 q 60 247 42 190 q 107 371 78 304 q 178 484 136 438 q 264 531 221 531 l 274 531 q 285 564 274 550 q 315 578 296 578 q 350 497 335 576 q 394 414 365 417 m 324 378 q 293 427 311 385 q 268 469 275 469 q 168 342 225 469 q 97 142 111 215 q 92 83 92 110 q 131 15 92 15 q 255 128 186 15 q 324 378 324 242 m 435 644 q 437 642 436 643 q 438 639 438 640 q 436 637 438 638 q 432 636 435 636 q 188 751 396 636 q 180 757 183 754 q 176 764 176 760 q 175 772 175 768 q 178 785 175 778 q 185 797 181 792 q 197 806 190 803 q 209 810 203 810 q 219 806 215 810 q 299 751 247 783 q 386 692 350 718 q 435 644 422 665 z "},"":{"ha":363,"x_min":29,"x_max":489,"o":"m 394 414 q 421 399 421 410 q 400 377 421 388 q 363 367 379 367 q 278 89 363 204 q 110 -26 193 -26 q 29 90 29 -26 q 35 154 29 122 q 60 247 42 190 q 107 371 78 304 q 178 484 136 438 q 264 531 221 531 l 274 531 q 285 564 274 550 q 315 578 296 578 q 350 497 335 576 q 394 414 365 417 m 324 378 q 293 427 311 385 q 268 469 275 469 q 168 342 225 469 q 97 142 111 215 q 92 83 92 110 q 131 15 92 15 q 255 128 186 15 q 324 378 324 242 m 481 788 q 403 729 450 768 q 321 664 357 690 q 261 632 285 638 q 257 632 258 632 q 254 633 256 632 q 253 635 253 633 q 439 835 253 660 q 447 840 443 839 q 456 842 451 842 q 478 829 468 842 q 489 804 489 817 q 487 794 489 799 q 481 788 485 790 z "},"":{"ha":363,"x_min":29,"x_max":460,"o":"m 394 414 q 421 399 421 410 q 400 377 421 388 q 363 367 379 367 q 278 89 363 204 q 110 -26 193 -26 q 29 90 29 -26 q 35 154 29 122 q 60 247 42 190 q 107 371 78 304 q 178 484 136 438 q 264 531 221 531 l 274 531 q 285 564 274 550 q 315 578 296 578 q 350 497 335 576 q 394 414 365 417 m 324 378 q 293 427 311 385 q 268 469 275 469 q 168 342 225 469 q 97 142 111 215 q 92 83 92 110 q 131 15 92 15 q 255 128 186 15 q 324 378 324 242 m 447 658 q 391 715 429 674 q 339 778 353 757 q 261 713 321 761 q 189 658 201 665 q 182 656 185 656 q 178 657 179 656 q 178 660 178 658 q 183 672 178 664 q 271 758 197 689 q 357 829 344 826 q 404 763 364 826 q 457 676 444 700 q 458 667 458 672 q 451 657 458 657 q 447 658 450 657 z "},"":{"ha":363,"x_min":29,"x_max":496,"o":"m 394 414 q 421 399 421 410 q 400 377 421 388 q 363 367 379 367 q 278 89 363 204 q 110 -26 193 -26 q 29 90 29 -26 q 35 154 29 122 q 60 247 42 190 q 107 371 78 304 q 178 484 136 438 q 264 531 221 531 l 274 531 q 285 564 274 550 q 315 578 296 578 q 350 497 335 576 q 394 414 365 417 m 324 378 q 293 427 311 385 q 268 469 275 469 q 168 342 225 469 q 97 142 111 215 q 92 83 92 110 q 131 15 92 15 q 255 128 186 15 q 324 378 324 242 m 190 685 q 188 688 188 685 q 210 717 188 697 q 247 744 233 738 q 297 758 269 758 q 364 744 321 758 q 429 729 407 729 q 488 758 463 729 q 496 753 496 758 q 476 724 496 743 q 440 694 456 704 q 403 683 422 683 q 333 702 378 683 q 265 721 289 721 q 219 703 242 721 q 190 685 197 685 z "},"":{"ha":363,"x_min":29,"x_max":479,"o":"m 394 414 q 421 399 421 410 q 400 377 421 388 q 363 367 379 367 q 278 89 363 204 q 110 -26 193 -26 q 29 90 29 -26 q 35 154 29 122 q 60 247 42 190 q 107 371 78 304 q 178 484 136 438 q 264 531 221 531 l 274 531 q 285 564 274 550 q 315 578 296 578 q 350 497 335 576 q 394 414 365 417 m 324 378 q 293 427 311 385 q 268 469 275 469 q 168 342 225 469 q 97 142 111 215 q 92 83 92 110 q 131 15 92 15 q 255 128 186 15 q 324 378 324 242 m 460 701 q 452 683 460 692 q 433 671 444 675 q 413 667 422 667 q 386 711 386 667 q 386 724 386 717 q 419 772 388 749 q 471 796 450 796 q 479 792 478 796 q 469 740 479 775 q 460 701 460 704 m 249 701 q 233 676 249 686 q 201 667 218 667 q 175 711 175 667 q 175 724 175 717 q 208 772 176 749 q 260 796 239 796 q 268 792 267 796 q 258 740 268 775 q 249 701 249 704 z "},"":{"ha":564,"x_min":26,"x_max":551,"o":"m 372 465 q 354 436 372 449 q 319 424 336 424 q 278 438 296 424 q 261 472 261 453 q 314 513 261 513 q 353 499 333 513 q 372 465 372 486 m 275 361 q 321 361 297 361 q 369 360 344 361 q 417 360 393 360 q 550 364 507 360 l 551 360 q 498 331 551 344 q 371 308 444 318 q 288 296 297 299 q 242 294 279 294 q 97 302 168 294 q 26 326 26 310 q 39 351 26 342 q 61 360 51 360 q 85 360 63 360 q 135 360 107 360 q 202 361 163 361 q 275 361 242 361 m 308 188 q 290 158 308 171 q 256 146 272 146 q 215 160 232 146 q 197 194 197 175 q 250 235 197 235 q 289 222 269 235 q 308 188 308 208 z "},"":{"ha":363,"x_min":28,"x_max":438,"o":"m 421 628 q 432 622 426 628 q 438 610 438 617 q 432 592 438 601 q 354 472 411 563 q 394 414 367 415 q 404 413 400 414 q 412 410 408 411 q 417 407 415 408 q 419 403 418 406 q 421 399 421 401 q 400 377 421 388 q 363 367 379 367 q 337 208 363 283 q 273 83 311 132 q 191 3 235 33 q 110 -26 147 -26 q 78 -19 92 -25 q 54 -99 54 -74 q 57 -115 54 -108 q 64 -124 60 -121 q 49 -140 74 -129 q 31 -111 31 -140 q 57 -4 31 -69 q 29 89 29 25 q 35 154 29 118 q 42 188 38 168 q 55 234 47 208 q 72 288 63 260 q 95 344 82 315 q 122 401 108 374 q 153 451 136 428 q 187 493 169 475 q 224 521 204 511 q 264 531 244 531 q 269 531 267 531 q 274 531 271 531 q 285 564 274 550 q 315 578 296 578 q 344 524 332 576 q 421 628 411 628 m 324 378 q 307 397 315 382 q 101 31 175 179 q 109 22 104 25 q 119 17 114 18 q 129 15 124 15 q 188 45 154 15 q 251 122 221 75 q 303 239 282 169 q 324 378 324 308 m 92 74 q 289 433 154 203 q 278 468 278 456 q 273 469 275 469 q 268 469 271 469 q 199 401 239 469 q 133 258 160 332 q 97 142 106 183 q 94 121 94 131 q 92 103 93 111 q 92 88 92 94 q 92 74 92 81 z "},"":{"ha":463,"x_min":10,"x_max":499,"o":"m 499 533 q 468 450 494 521 q 425 331 442 379 q 372 158 400 260 q 343 35 343 57 q 346 31 343 31 q 402 65 357 31 q 464 100 447 100 q 475 93 475 100 q 444 61 475 83 q 372 15 413 39 q 328 -12 332 -10 q 299 -41 318 -21 q 265 -74 281 -61 q 236 -87 249 -87 q 218 -72 218 -87 q 240 -42 218 -62 q 269 -7 263 -22 q 364 325 293 50 q 191 108 299 228 q 29 -12 83 -12 q 10 13 10 -12 q 25 72 10 33 q 58 147 25 74 q 112 274 92 221 q 132 351 132 328 q 129 365 132 358 q 126 375 126 371 q 129 390 126 376 q 174 508 153 479 q 243 536 194 536 q 267 524 263 536 q 100 94 100 114 q 104 89 100 89 q 138 111 110 89 q 382 411 276 218 q 408 500 383 454 q 482 546 433 546 q 499 533 497 546 m 474 650 q 476 647 475 649 q 476 644 476 646 q 475 642 476 643 q 471 642 474 642 q 226 757 435 642 q 214 778 214 764 q 217 790 214 783 q 224 803 219 797 q 235 812 229 808 q 248 815 242 815 q 258 811 254 815 q 338 756 286 789 q 425 697 389 724 q 474 650 461 671 z "},"":{"ha":463,"x_min":10,"x_max":544,"o":"m 499 533 q 468 450 494 521 q 425 331 442 379 q 372 158 400 260 q 343 35 343 57 q 346 31 343 31 q 402 65 357 31 q 464 100 447 100 q 475 93 475 100 q 444 61 475 83 q 372 15 413 39 q 328 -12 332 -10 q 299 -41 318 -21 q 265 -74 281 -61 q 236 -87 249 -87 q 218 -72 218 -87 q 240 -42 218 -62 q 269 -7 263 -22 q 364 325 293 50 q 191 108 299 228 q 29 -12 83 -12 q 10 13 10 -12 q 25 72 10 33 q 58 147 25 74 q 112 274 92 221 q 132 351 132 328 q 129 365 132 358 q 126 375 126 371 q 129 390 126 376 q 174 508 153 479 q 243 536 194 536 q 267 524 263 536 q 100 94 100 114 q 104 89 100 89 q 138 111 110 89 q 382 411 276 218 q 408 500 383 454 q 482 546 433 546 q 499 533 497 546 m 536 751 q 459 693 506 732 q 376 628 413 654 q 317 596 340 601 q 313 596 314 596 q 308 599 310 597 q 494 799 308 624 q 503 804 499 803 q 511 806 507 806 q 534 793 524 806 q 544 768 544 781 q 542 758 544 763 q 536 751 540 754 z "},"":{"ha":463,"x_min":10,"x_max":517,"o":"m 499 533 q 468 450 494 521 q 425 331 442 379 q 372 158 400 260 q 343 35 343 57 q 346 31 343 31 q 402 65 357 31 q 464 100 447 100 q 475 93 475 100 q 444 61 475 83 q 372 15 413 39 q 328 -12 332 -10 q 299 -41 318 -21 q 265 -74 281 -61 q 236 -87 249 -87 q 218 -72 218 -87 q 240 -42 218 -62 q 269 -7 263 -22 q 364 325 293 50 q 191 108 299 228 q 29 -12 83 -12 q 10 13 10 -12 q 25 72 10 33 q 58 147 25 74 q 112 274 92 221 q 132 351 132 328 q 129 365 132 358 q 126 375 126 371 q 129 390 126 376 q 174 508 153 479 q 243 536 194 536 q 267 524 263 536 q 100 94 100 114 q 104 89 100 89 q 138 111 110 89 q 382 411 276 218 q 408 500 383 454 q 482 546 433 546 q 499 533 497 546 m 504 658 q 448 715 486 674 q 396 778 410 757 q 318 713 378 761 q 246 658 258 665 q 239 656 242 656 q 235 657 236 656 q 235 660 235 658 q 240 672 235 664 q 328 758 254 689 q 414 829 401 826 q 461 763 421 826 q 514 676 501 700 q 515 667 515 672 q 508 657 515 657 q 504 658 507 657 z "},"":{"ha":463,"x_min":10,"x_max":528,"o":"m 499 533 q 468 450 494 521 q 425 331 442 379 q 372 158 400 260 q 343 35 343 57 q 346 31 343 31 q 402 65 357 31 q 464 100 447 100 q 475 93 475 100 q 444 61 475 83 q 372 15 413 39 q 328 -12 332 -10 q 299 -41 318 -21 q 265 -74 281 -61 q 236 -87 249 -87 q 218 -72 218 -87 q 240 -42 218 -62 q 269 -7 263 -22 q 364 325 293 50 q 191 108 299 228 q 29 -12 83 -12 q 10 13 10 -12 q 25 72 10 33 q 58 147 25 74 q 112 274 92 221 q 132 351 132 328 q 129 365 132 358 q 126 375 126 371 q 129 390 126 376 q 174 508 153 479 q 243 536 194 536 q 267 524 263 536 q 100 94 100 114 q 104 89 100 89 q 138 111 110 89 q 382 411 276 218 q 408 500 383 454 q 482 546 433 546 q 499 533 497 546 m 508 689 q 501 671 508 679 q 482 658 493 663 q 461 654 471 654 q 435 699 435 654 q 435 711 435 704 q 467 760 436 736 q 519 783 499 783 q 528 779 526 783 q 518 727 528 763 q 508 689 508 692 m 297 689 q 282 664 297 674 q 250 654 267 654 q 224 699 224 654 q 224 711 224 704 q 256 760 225 736 q 308 783 288 783 q 317 779 315 783 q 307 727 317 763 q 297 689 297 692 z "},"":{"ha":440,"x_min":-121,"x_max":510,"o":"m 506 539 q 510 524 510 532 q 388 300 510 468 q 193 46 267 132 l 193 49 q 190 38 192 49 q 183 10 188 26 q 175 -23 179 -7 q 165 -51 171 -39 q 153 -62 158 -62 q 138 -59 147 -62 q 128 -56 129 -56 q -60 -378 -60 -307 q -54 -403 -60 -390 q -49 -421 -49 -417 q -65 -447 -49 -436 q -99 -458 -82 -458 q -121 -432 -121 -458 q -61 -280 -121 -382 q 62 -90 -1 -178 q 126 3 125 -3 q 142 128 142 49 q 120 328 142 242 q 61 414 99 414 q 50 414 57 414 l 42 413 q 36 419 36 413 q 67 453 36 431 q 90 483 71 456 q 119 511 110 511 q 172 422 149 511 q 194 222 194 332 q 194 189 194 211 q 193 156 193 167 q 204 133 193 133 q 333 281 236 133 q 429 468 429 428 q 422 476 429 476 q 413 474 419 476 q 401 471 406 471 q 390 478 394 471 q 431 518 390 496 q 496 540 471 540 q 506 539 503 540 m 494 726 q 417 668 464 707 q 335 603 371 629 q 275 571 299 576 q 271 571 272 571 q 267 574 268 572 q 453 774 267 599 q 461 779 457 778 q 469 781 465 781 q 492 768 482 781 q 503 743 503 756 q 501 733 503 738 q 494 726 499 729 z "},"":{"ha":304,"x_min":-96,"x_max":385,"o":"m -14 -293 q -24 -328 -14 -307 q -51 -367 -35 -350 q -78 -383 -67 -383 q -94 -347 -94 -383 q -77 -266 -94 -325 q -40 -154 -60 -207 q 6 -28 -21 -101 q 40 63 33 44 q 37 74 38 68 q 36 86 36 79 q 67 138 36 118 q 175 481 160 425 q 167 483 175 482 q 152 486 160 483 q 144 494 144 489 q 167 514 144 506 l 188 522 q 235 659 204 568 q 286 808 265 750 q 314 872 307 865 q 361 901 343 901 q 371 892 371 901 q 370 886 371 889 q 369 880 369 883 q 367 872 368 876 q 363 863 365 867 q 301 691 360 856 q 242 525 242 526 q 342 399 306 481 q 383 199 383 301 q 285 4 383 51 q 201 -12 247 -12 q 75 24 118 -12 q 28 -113 63 -12 q -22 -258 -7 -214 q -24 -264 -24 -261 q -21 -272 -24 -268 q -16 -282 -18 -276 q -14 -293 -14 -287 m 325 183 q 306 301 325 235 q 263 413 286 368 q 228 457 240 457 q 226 456 226 457 q 224 454 225 456 q 122 142 163 260 l 92 54 q 141 31 118 38 q 186 24 164 24 q 290 69 256 24 q 325 183 325 114 z "},"":{"ha":440,"x_min":-121,"x_max":510,"o":"m 506 539 q 510 524 510 532 q 388 300 510 468 q 193 46 267 132 l 193 49 q 190 38 192 49 q 183 10 188 26 q 175 -23 179 -7 q 165 -51 171 -39 q 153 -62 158 -62 q 138 -59 147 -62 q 128 -56 129 -56 q -60 -378 -60 -307 q -54 -403 -60 -390 q -49 -421 -49 -417 q -65 -447 -49 -436 q -99 -458 -82 -458 q -121 -432 -121 -458 q -61 -280 -121 -382 q 62 -90 -1 -178 q 126 3 125 -3 q 142 128 142 49 q 120 328 142 242 q 61 414 99 414 q 50 414 57 414 l 42 413 q 36 419 36 413 q 67 453 36 431 q 90 483 71 456 q 119 511 110 511 q 172 422 149 511 q 194 222 194 332 q 194 189 194 211 q 193 156 193 167 q 204 133 193 133 q 333 281 236 133 q 429 468 429 428 q 422 476 429 476 q 413 474 419 476 q 401 471 406 471 q 390 478 394 471 q 431 518 390 496 q 496 540 471 540 q 506 539 503 540 m 479 685 q 472 667 479 675 q 453 654 464 658 q 432 650 442 650 q 406 694 406 650 q 406 707 406 700 q 438 756 407 732 q 490 779 469 779 q 499 775 497 779 q 489 723 499 758 q 479 685 479 688 m 268 685 q 253 660 268 669 q 221 650 238 650 q 194 694 194 650 q 194 707 194 700 q 211 741 194 724 q 247 769 228 758 q 279 779 267 779 q 288 775 286 779 q 278 723 288 758 q 268 685 268 688 z "},"":{"ha":233,"x_min":24,"x_max":275,"o":"m 275 526 q 256 492 272 522 q 229 439 240 461 q 199 374 218 417 q 164 292 179 331 q 132 199 149 253 q 103 90 115 144 q 101 79 101 83 q 105 67 101 71 q 115 63 108 63 q 164 85 132 63 q 181 96 172 92 q 196 103 189 100 q 208 106 203 106 q 215 103 213 106 q 219 99 218 101 q 205 78 219 90 q 165 51 190 67 q 126 24 139 35 q 51 -8 88 -8 q 38 -6 43 -8 q 28 2 32 -4 q 25 17 25 8 q 31 46 25 29 q 125 332 63 139 q 129 347 128 342 q 131 357 131 353 q 128 367 131 363 q 126 376 126 372 q 127 383 126 379 q 131 393 128 388 q 169 489 156 463 q 192 515 176 503 q 224 533 207 526 q 254 539 240 539 q 268 535 263 539 q 275 526 274 532 z "},"":{"ha":1108,"x_min":35,"x_max":1079,"o":"m 957 933 q 1007 871 1007 933 q 995 757 1007 818 q 955 628 983 696 q 887 505 926 561 q 784 409 847 449 q 646 361 721 369 q 608 260 626 301 q 722 294 676 279 l 738 297 q 742 297 740 297 q 743 294 743 296 q 722 275 743 288 q 586 211 685 250 q 486 38 531 88 q 889 -86 731 -86 q 999 -51 950 -86 q 1049 46 1049 -15 q 1031 106 1049 76 q 1013 142 1013 135 q 1017 160 1013 151 q 1031 167 1022 169 q 1063 119 1047 160 q 1079 56 1079 78 q 1015 -83 1079 -33 q 858 -133 950 -133 q 817 -131 839 -133 q 777 -124 796 -128 q 733 -113 758 -121 q 692 -101 708 -106 q 647 -84 675 -96 q 606 -67 619 -72 q 563 -49 592 -62 q 524 -30 533 -35 q 483 -10 514 -25 q 447 7 453 4 q 188 -96 343 -96 q 81 -72 126 -96 q 35 8 35 -47 q 77 102 35 65 q 178 139 119 139 q 450 56 271 139 q 521 186 478 92 l 444 161 q 422 157 433 157 q 394 174 394 157 q 403 192 394 182 q 428 207 408 199 q 465 220 447 215 q 510 232 483 225 q 544 240 538 239 q 594 364 560 276 q 445 411 500 364 q 390 549 390 458 q 401 613 390 585 q 432 640 411 640 q 439 628 439 640 q 436 599 439 621 q 433 569 433 578 q 475 442 433 496 q 603 388 517 388 q 626 456 607 399 q 668 574 646 513 q 715 700 690 636 q 767 805 740 764 q 811 846 793 846 q 853 835 831 846 q 875 808 875 825 q 864 796 875 796 q 858 801 861 796 q 851 807 856 807 q 788 719 829 807 q 701 512 746 632 q 656 389 657 392 q 814 486 744 408 q 917 660 883 564 q 950 851 950 757 q 949 881 950 867 q 938 901 947 894 q 928 915 928 908 q 957 933 928 933 m 422 21 q 301 63 388 38 q 154 88 215 88 q 75 38 76 86 q 124 -37 75 -11 q 243 -62 172 -62 q 422 21 343 -62 z "},"":{"ha":249,"x_min":-49,"x_max":374,"o":"m 374 865 q 144 253 242 589 l 279 294 q 288 297 285 296 q 294 297 292 297 q 299 297 297 297 q 300 294 300 296 q 279 275 300 288 q 131 206 236 246 q 101 90 115 149 q 100 79 100 85 q 101 70 100 74 q 106 65 103 67 q 114 63 110 63 q 163 85 131 63 q 206 106 190 106 q 218 99 214 106 q 203 78 218 90 q 164 51 189 67 q 126 24 139 35 q 50 -8 88 -8 q 24 18 24 -8 q 29 46 24 29 l 78 186 l 1 161 q -21 157 -10 157 q -49 174 -49 157 q -47 182 -49 178 q -40 192 -44 186 q 94 238 -28 207 q 164 462 119 317 q 228 671 208 607 q 230 679 229 675 q 231 686 231 683 q 233 692 232 689 q 233 696 233 694 q 232 703 233 700 q 230 710 231 707 q 229 715 229 713 q 230 722 229 718 q 232 732 231 726 q 247 773 239 753 q 260 808 254 793 q 268 828 267 824 q 277 842 271 835 q 290 853 283 849 q 306 863 297 858 q 322 871 314 868 q 338 876 331 874 q 353 878 346 878 q 367 874 361 878 q 374 865 372 871 z "}}}
